Cambay Devanagari-Italic.ufo
<glyph name="exclam" format="1">
  <advance width="206"/>
  <unicode hex="0021"/>
  <outline>
    <contour>
      <point x="14" y="90" type="line"/>
      <point x="63" y="90" type="line"/>
      <point x="150" y="493" type="line"/>
      <point x="83" y="493" type="line"/>
    </contour>
    <contour>
      <point x="40" y="-39"/>
      <point x="54" y="-25"/>
      <point x="58" y="-6" type="curve" smooth="yes"/>
      <point x="63" y="19"/>
      <point x="51" y="37"/>
      <point x="24" y="37" type="curve" smooth="yes"/>
      <point x="1" y="37"/>
      <point x="-12" y="23"/>
      <point x="-16" y="4" type="curve" smooth="yes"/>
      <point x="-21" y="-21"/>
      <point x="-9" y="-39"/>
      <point x="18" y="-39" type="curve" smooth="yes"/>
    </contour>
  </outline>
</glyph>
<glyph name="numbersign" format="1">
  <advance width="550"/>
  <unicode hex="0023"/>
  <outline>
    <contour>
      <point x="273" y="494" type="line"/>
      <point x="245" y="347" type="line"/>
      <point x="364" y="347" type="line"/>
      <point x="392" y="494" type="line"/>
      <point x="448" y="494" type="line"/>
      <point x="420" y="347" type="line"/>
      <point x="545" y="347" type="line"/>
      <point x="534" y="295" type="line"/>
      <point x="409" y="295" type="line"/>
      <point x="385" y="169" type="line"/>
      <point x="510" y="169" type="line"/>
      <point x="500" y="117" type="line"/>
      <point x="375" y="117" type="line"/>
      <point x="345" y="-37" type="line"/>
      <point x="289" y="-37" type="line"/>
      <point x="319" y="117" type="line"/>
      <point x="200" y="117" type="line"/>
      <point x="170" y="-37" type="line"/>
      <point x="115" y="-37" type="line"/>
      <point x="145" y="117" type="line"/>
      <point x="22" y="117" type="line"/>
      <point x="32" y="169" type="line"/>
      <point x="155" y="169" type="line"/>
      <point x="179" y="295" type="line"/>
      <point x="55" y="295" type="line"/>
      <point x="66" y="347" type="line"/>
      <point x="190" y="347" type="line"/>
      <point x="218" y="494" type="line"/>
    </contour>
    <contour>
      <point x="329" y="169" type="line"/>
      <point x="353" y="295" type="line"/>
      <point x="234" y="295" type="line"/>
      <point x="210" y="169" type="line"/>
    </contour>
  </outline>
</glyph>
<glyph name="percent" format="1">
  <advance width="467"/>
  <unicode hex="0025"/>
  <outline>
    <contour>
      <point x="61" y="314"/>
      <point x="72" y="288"/>
      <point x="109" y="288" type="curve" smooth="yes"/>
      <point x="146" y="288"/>
      <point x="157" y="314"/>
      <point x="157" y="347" type="curve" smooth="yes"/>
      <point x="157" y="380"/>
      <point x="146" y="406"/>
      <point x="109" y="406" type="curve" smooth="yes"/>
      <point x="72" y="406"/>
      <point x="61" y="380"/>
      <point x="61" y="347" type="curve" smooth="yes"/>
    </contour>
    <contour>
      <point x="207" y="288"/>
      <point x="173" y="237"/>
      <point x="109" y="237" type="curve" smooth="yes"/>
      <point x="41" y="237"/>
      <point x="10" y="288"/>
      <point x="10" y="347" type="curve" smooth="yes"/>
      <point x="10" y="405"/>
      <point x="44" y="456"/>
      <point x="109" y="456" type="curve" smooth="yes"/>
      <point x="173" y="456"/>
      <point x="207" y="405"/>
      <point x="207" y="347" type="curve" smooth="yes"/>
    </contour>
    <contour>
      <point x="424" y="456" type="line"/>
      <point x="112" y="0" type="line"/>
      <point x="46" y="0" type="line"/>
      <point x="357" y="456" type="line"/>
    </contour>
    <contour>
      <point x="311" y="77"/>
      <point x="322" y="51"/>
      <point x="359" y="51" type="curve" smooth="yes"/>
      <point x="396" y="51"/>
      <point x="407" y="77"/>
      <point x="407" y="110" type="curve" smooth="yes"/>
      <point x="407" y="143"/>
      <point x="396" y="169"/>
      <point x="359" y="169" type="curve" smooth="yes"/>
      <point x="322" y="169"/>
      <point x="311" y="143"/>
      <point x="311" y="110" type="curve" smooth="yes"/>
    </contour>
    <contour>
      <point x="457" y="51"/>
      <point x="423" y="0"/>
      <point x="359" y="0" type="curve" smooth="yes"/>
      <point x="291" y="0"/>
      <point x="260" y="51"/>
      <point x="260" y="110" type="curve" smooth="yes"/>
      <point x="260" y="168"/>
      <point x="294" y="219"/>
      <point x="359" y="219" type="curve" smooth="yes"/>
      <point x="423" y="219"/>
      <point x="457" y="168"/>
      <point x="457" y="110" type="curve" smooth="yes"/>
    </contour>
  </outline>
</glyph>
<glyph name="quotesingle" format="1">
  <advance width="174"/>
  <unicode hex="0027"/>
  <outline>
    <contour>
      <point x="50" y="524"/>
      <point x="46" y="501" type="curve"/>
      <point x="37" y="375" type="line"/>
      <point x="69" y="375" type="line"/>
      <point x="108" y="497" type="line"/>
      <point x="114" y="521"/>
      <point x="107" y="540"/>
      <point x="80" y="540" type="curve"/>
      <point x="57" y="540"/>
    </contour>
  </outline>
</glyph>
<glyph name="parenleft" format="1">
  <advance width="269"/>
  <unicode hex="0028"/>
  <outline>
    <contour>
      <point x="72" y="277"/>
      <point x="93" y="335"/>
      <point x="121" y="393" type="curve" smooth="yes"/>
      <point x="152" y="457"/>
      <point x="190" y="515"/>
      <point x="234" y="572" type="curve"/>
      <point x="193" y="600" type="line"/>
      <point x="112" y="500"/>
      <point x="28" y="372"/>
      <point x="1" y="229" type="curve" smooth="yes"/>
      <point x="-28" y="80"/>
      <point x="8" y="-48"/>
      <point x="50" y="-148" type="curve"/>
      <point x="96" y="-128" type="line"/>
      <point x="74" y="-71"/>
      <point x="59" y="-13"/>
      <point x="52" y="45" type="curve" smooth="yes"/>
      <point x="47" y="109"/>
      <point x="51" y="167"/>
      <point x="60" y="217" type="curve" smooth="yes"/>
    </contour>
  </outline>
</glyph>
<glyph name="parenright" format="1">
  <advance width="269"/>
  <unicode hex="0029"/>
  <outline>
    <contour>
      <point x="70" y="171"/>
      <point x="49" y="113"/>
      <point x="21" y="55" type="curve" smooth="yes"/>
      <point x="-10" y="-9"/>
      <point x="-48" y="-67"/>
      <point x="-92" y="-124" type="curve"/>
      <point x="-50" y="-152" type="line"/>
      <point x="30" y="-52"/>
      <point x="114" y="76"/>
      <point x="142" y="219" type="curve" smooth="yes"/>
      <point x="171" y="368"/>
      <point x="135" y="496"/>
      <point x="92" y="596" type="curve"/>
      <point x="46" y="576" type="line"/>
      <point x="68" y="519"/>
      <point x="84" y="461"/>
      <point x="90" y="403" type="curve" smooth="yes"/>
      <point x="95" y="339"/>
      <point x="92" y="281"/>
      <point x="81" y="227" type="curve" smooth="yes"/>
    </contour>
  </outline>
</glyph>
<glyph name="asterisk" format="1">
  <advance width="450"/>
  <unicode hex="002A"/>
  <outline>
    <contour>
      <point x="175" y="424" type="line"/>
      <point x="90" y="487" type="line"/>
      <point x="51" y="436" type="line"/>
      <point x="144" y="383" type="line"/>
      <point x="30" y="329" type="line"/>
      <point x="51" y="279" type="line"/>
      <point x="158" y="341" type="line"/>
      <point x="132" y="225" type="line"/>
      <point x="190" y="225" type="line"/>
      <point x="212" y="341" type="line"/>
      <point x="296" y="278" type="line"/>
      <point x="333" y="327" type="line"/>
      <point x="242" y="380" type="line"/>
      <point x="355" y="436" type="line"/>
      <point x="334" y="487" type="line"/>
      <point x="227" y="424" type="line"/>
      <point x="251" y="540" type="line"/>
      <point x="193" y="540" type="line"/>
    </contour>
  </outline>
</glyph>
<glyph name="plus" format="1">
  <advance width="452"/>
  <unicode hex="002B"/>
  <outline>
    <contour>
      <point x="392" y="260" type="line"/>
      <point x="392" y="204" type="line"/>
      <point x="60" y="204" type="line"/>
      <point x="60" y="260" type="line"/>
    </contour>
    <contour>
      <point x="197" y="395" type="line"/>
      <point x="253" y="395" type="line"/>
      <point x="253" y="63" type="line"/>
      <point x="197" y="63" type="line"/>
    </contour>
  </outline>
</glyph>
<glyph name="comma" format="1">
  <advance width="220"/>
  <unicode hex="002C"/>
  <outline>
    <contour>
      <point x="-34" y="-27"/>
      <point x="-72" y="-76"/>
      <point x="-82" y="-90" type="curve"/>
      <point x="-59" y="-110" type="line"/>
      <point x="-20" y="-81"/>
      <point x="31" y="-33"/>
      <point x="40" y="14" type="curve" smooth="yes"/>
      <point x="47" y="49"/>
      <point x="30" y="70"/>
      <point x="0" y="70" type="curve" smooth="yes"/>
      <point x="-27" y="70"/>
      <point x="-46" y="53"/>
      <point x="-50" y="32" type="curve" smooth="yes"/>
      <point x="-55" y="6"/>
      <point x="-43" y="-14"/>
      <point x="-19" y="-19" type="curve"/>
      <point x="-22" y="-6" type="line"/>
    </contour>
  </outline>
</glyph>
<glyph name="hyphen" format="1">
  <advance width="346"/>
  <unicode hex="002D"/>
  <outline>
    <contour>
      <point x="37" y="190" type="line"/>
      <point x="283" y="190" type="line"/>
      <point x="292" y="237" type="line"/>
      <point x="46" y="237" type="line"/>
    </contour>
  </outline>
</glyph>
<glyph name="period" format="1">
  <advance width="220"/>
  <unicode hex="002E"/>
  <outline>
    <contour>
      <point x="31" y="-4"/>
      <point x="51" y="15"/>
      <point x="55" y="36" type="curve" smooth="yes"/>
      <point x="60" y="63"/>
      <point x="45" y="86"/>
      <point x="16" y="86" type="curve" smooth="yes"/>
      <point x="-9" y="86"/>
      <point x="-29" y="67"/>
      <point x="-33" y="46" type="curve" smooth="yes"/>
      <point x="-38" y="19"/>
      <point x="-23" y="-4"/>
      <point x="6" y="-4" type="curve" smooth="yes"/>
    </contour>
  </outline>
</glyph>
<glyph name="slash" format="1">
  <advance width="299"/>
  <unicode hex="002F"/>
  <outline>
    <contour>
      <point x="268" y="550" type="line"/>
      <point x="-38" y="-35" type="line"/>
      <point x="-98" y="-35" type="line"/>
      <point x="208" y="550" type="line"/>
    </contour>
  </outline>
</glyph>
<glyph name="zero" format="1">
  <advance width="440"/>
  <unicode hex="0030"/>
  <outline>
    <contour>
      <point x="29" y="45"/>
      <point x="21" y="137"/>
      <point x="37" y="223" type="curve" smooth="yes"/>
      <point x="55" y="314"/>
      <point x="104" y="411"/>
      <point x="197" y="411" type="curve" smooth="yes"/>
      <point x="286" y="411"/>
      <point x="294" y="319"/>
      <point x="277" y="233" type="curve" smooth="yes"/>
      <point x="260" y="142"/>
      <point x="210" y="45"/>
      <point x="117" y="45" type="curve" smooth="yes"/>
    </contour>
    <contour>
      <point x="80" y="464"/>
      <point x="3" y="359"/>
      <point x="-22" y="233" type="curve" smooth="yes"/>
      <point x="-47" y="102"/>
      <point x="-8" y="-8"/>
      <point x="117" y="-8" type="curve" smooth="yes"/>
      <point x="233" y="-8"/>
      <point x="311" y="97"/>
      <point x="335" y="223" type="curve" smooth="yes"/>
      <point x="361" y="356"/>
      <point x="325" y="464"/>
      <point x="199" y="464" type="curve"/>
    </contour>
  </outline>
</glyph>
<glyph name="one" format="1">
  <advance width="270"/>
  <unicode hex="0031"/>
  <outline>
    <contour>
      <point x="87" y="456" type="line"/>
      <point x="-5" y="420" type="line"/>
      <point x="8" y="372" type="line"/>
      <point x="84" y="400" type="line"/>
      <point x="16" y="50" type="line"/>
      <point x="-60" y="50" type="line"/>
      <point x="-70" y="0" type="line"/>
      <point x="148" y="0" type="line"/>
      <point x="158" y="50" type="line"/>
      <point x="75" y="50" type="line"/>
      <point x="154" y="456" type="line"/>
    </contour>
  </outline>
</glyph>
<glyph name="four" format="1">
  <advance width="397"/>
  <unicode hex="0034"/>
  <outline>
    <contour>
      <point x="203" y="456" type="line"/>
      <point x="-58" y="154" type="line"/>
      <point x="-58" y="109" type="line"/>
      <point x="160" y="109" type="line"/>
      <point x="139" y="-1" type="line"/>
      <point x="198" y="-1" type="line"/>
      <point x="219" y="109" type="line"/>
      <point x="298" y="109" type="line"/>
      <point x="309" y="165" type="line"/>
      <point x="230" y="165" type="line"/>
      <point x="287" y="456" type="line"/>
    </contour>
    <contour>
      <point x="22" y="165" type="line"/>
      <point x="217" y="394" type="line"/>
      <point x="171" y="165" type="line"/>
    </contour>
  </outline>
</glyph>
<glyph name="five" format="1">
  <advance width="367"/>
  <unicode hex="0035"/>
  <outline>
    <contour>
      <point x="181" y="239"/>
      <point x="212" y="214"/>
      <point x="199" y="150" type="curve" smooth="yes"/>
      <point x="186" y="81"/>
      <point x="134" y="52"/>
      <point x="50" y="52" type="curve" smooth="yes"/>
      <point x="16" y="52"/>
      <point x="-19" y="61"/>
      <point x="-49" y="71" type="curve"/>
      <point x="-72" y="16" type="line"/>
      <point x="-35" y="2"/>
      <point x="11" y="-7"/>
      <point x="48" y="-7" type="curve" smooth="yes"/>
      <point x="139" y="-7"/>
      <point x="235" y="27"/>
      <point x="257" y="141" type="curve" smooth="yes"/>
      <point x="274" y="227"/>
      <point x="230" y="294"/>
      <point x="115" y="294" type="curve" smooth="yes"/>
      <point x="98" y="294"/>
      <point x="83" y="294"/>
      <point x="58" y="291" type="curve"/>
      <point x="81" y="403" type="line"/>
      <point x="281" y="403" type="line"/>
      <point x="292" y="456" type="line"/>
      <point x="32" y="456" type="line"/>
      <point x="-11" y="237" type="line"/>
      <point x="5" y="232" type="line"/>
      <point x="34" y="236"/>
      <point x="60" y="239"/>
      <point x="89" y="239" type="curve" smooth="yes"/>
    </contour>
  </outline>
</glyph>
<glyph name="six" format="1">
  <advance width="385"/>
  <unicode hex="0036"/>
  <outline>
    <contour>
      <point x="47" y="205"/>
      <point x="80" y="228"/>
      <point x="147" y="228" type="curve" smooth="yes"/>
      <point x="216" y="228"/>
      <point x="228" y="190"/>
      <point x="219" y="146" type="curve" smooth="yes"/>
      <point x="209" y="94"/>
      <point x="170" y="51"/>
      <point x="105" y="51" type="curve" smooth="yes"/>
      <point x="33" y="51"/>
      <point x="0" y="108"/>
      <point x="27" y="213" type="curve" smooth="yes"/>
      <point x="29" y="219"/>
      <point x="32" y="222"/>
      <point x="32" y="222" type="curve"/>
      <point x="51" y="321"/>
      <point x="127" y="405"/>
      <point x="280" y="400" type="curve"/>
      <point x="281" y="455" type="line"/>
      <point x="117" y="455"/>
      <point x="1" y="374"/>
      <point x="-33" y="202" type="curve" smooth="yes"/>
      <point x="-55" y="89"/>
      <point x="-22" y="-7"/>
      <point x="101" y="-7" type="curve" smooth="yes"/>
      <point x="204" y="-7"/>
      <point x="263" y="64"/>
      <point x="277" y="137" type="curve" smooth="yes"/>
      <point x="296" y="237"/>
      <point x="232" y="284"/>
      <point x="154" y="284" type="curve" smooth="yes"/>
      <point x="98" y="284"/>
      <point x="52" y="268"/>
      <point x="18" y="243" type="curve"/>
      <point x="12" y="180" type="line"/>
    </contour>
  </outline>
</glyph>
<glyph name="seven" format="1">
  <advance width="341"/>
  <unicode hex="0037"/>
  <outline>
    <contour>
      <point x="2" y="457" type="line"/>
      <point x="-9" y="401" type="line"/>
      <point x="218" y="401" type="line"/>
      <point x="-21" y="0" type="line"/>
      <point x="46" y="0" type="line"/>
      <point x="296" y="417" type="line"/>
      <point x="296" y="457" type="line"/>
    </contour>
  </outline>
</glyph>
<glyph name="eight" format="1">
  <advance width="380"/>
  <unicode hex="0038"/>
  <outline>
    <contour>
      <point x="198" y="409"/>
      <point x="232" y="396"/>
      <point x="225" y="358" type="curve" smooth="yes"/>
      <point x="216" y="315"/>
      <point x="166" y="287"/>
      <point x="133" y="270" type="curve"/>
      <point x="90" y="294"/>
      <point x="71" y="318"/>
      <point x="78" y="352" type="curve" smooth="yes"/>
      <point x="85" y="387"/>
      <point x="126" y="409"/>
      <point x="164" y="409" type="curve" smooth="yes"/>
    </contour>
    <contour>
      <point x="30" y="48"/>
      <point x="0" y="82"/>
      <point x="8" y="123" type="curve" smooth="yes"/>
      <point x="19" y="179"/>
      <point x="74" y="210"/>
      <point x="126" y="224" type="curve"/>
      <point x="179" y="212"/>
      <point x="218" y="185"/>
      <point x="206" y="129" type="curve" smooth="yes"/>
      <point x="196" y="83"/>
      <point x="156" y="48"/>
      <point x="90" y="48" type="curve" smooth="yes"/>
    </contour>
    <contour>
      <point x="93" y="465"/>
      <point x="30" y="424"/>
      <point x="18" y="365" type="curve"/>
      <point x="5" y="299"/>
      <point x="44" y="271"/>
      <point x="61" y="253" type="curve"/>
      <point x="7" y="230"/>
      <point x="-41" y="186"/>
      <point x="-52" y="129" type="curve" smooth="yes"/>
      <point x="-65" y="56"/>
      <point x="-20" y="-11"/>
      <point x="87" y="-11" type="curve" smooth="yes"/>
      <point x="185" y="-11"/>
      <point x="250" y="43"/>
      <point x="267" y="119" type="curve" smooth="yes"/>
      <point x="280" y="178"/>
      <point x="247" y="228"/>
      <point x="201" y="249" type="curve"/>
      <point x="232" y="270"/>
      <point x="275" y="304"/>
      <point x="285" y="353" type="curve"/>
      <point x="299" y="426"/>
      <point x="251" y="465"/>
      <point x="169" y="465" type="curve" smooth="yes"/>
    </contour>
  </outline>
</glyph>
<glyph name="nine" format="1">
  <advance width="387"/>
  <unicode hex="0039"/>
  <outline>
    <contour>
      <point x="279" y="246"/>
      <point x="252" y="222"/>
      <point x="187" y="222" type="curve" smooth="yes"/>
      <point x="115" y="222"/>
      <point x="92" y="260"/>
      <point x="92" y="308" type="curve" smooth="yes"/>
      <point x="92" y="356"/>
      <point x="124" y="397"/>
      <point x="187" y="397" type="curve" smooth="yes"/>
      <point x="261" y="397"/>
      <point x="301" y="338"/>
      <point x="294" y="230" type="curve"/>
      <point x="294" y="228"/>
      <point x="295" y="225"/>
      <point x="295" y="222" type="curve" smooth="yes"/>
      <point x="290" y="125"/>
      <point x="239" y="43"/>
      <point x="86" y="48" type="curve"/>
      <point x="92" y="-7" type="line"/>
      <point x="263" y="-7"/>
      <point x="353" y="76"/>
      <point x="353" y="241" type="curve" smooth="yes"/>
      <point x="353" y="361"/>
      <point x="309" y="455"/>
      <point x="188" y="455" type="curve" smooth="yes"/>
      <point x="83" y="455"/>
      <point x="35" y="382"/>
      <point x="35" y="307" type="curve" smooth="yes"/>
      <point x="35" y="209"/>
      <point x="106" y="164"/>
      <point x="183" y="164" type="curve" smooth="yes"/>
      <point x="240" y="164"/>
      <point x="283" y="182"/>
      <point x="313" y="206" type="curve"/>
      <point x="310" y="271" type="line"/>
    </contour>
  </outline>
</glyph>
<glyph name="colon" format="1">
  <advance width="234"/>
  <unicode hex="003A"/>
  <outline>
    <contour>
      <point x="38" y="-6"/>
      <point x="55" y="11"/>
      <point x="59" y="32" type="curve" smooth="yes"/>
      <point x="65" y="59"/>
      <point x="51" y="80"/>
      <point x="22" y="80" type="curve" smooth="yes"/>
      <point x="-3" y="80"/>
      <point x="-21" y="63"/>
      <point x="-25" y="42" type="curve" smooth="yes"/>
      <point x="-30" y="15"/>
      <point x="-16" y="-6"/>
      <point x="13" y="-6" type="curve" smooth="yes"/>
    </contour>
    <contour>
      <point x="85" y="234"/>
      <point x="102" y="251"/>
      <point x="106" y="272" type="curve" smooth="yes"/>
      <point x="111" y="299"/>
      <point x="97" y="320"/>
      <point x="68" y="320" type="curve" smooth="yes"/>
      <point x="43" y="320"/>
      <point x="26" y="303"/>
      <point x="22" y="282" type="curve" smooth="yes"/>
      <point x="17" y="255"/>
      <point x="31" y="234"/>
      <point x="60" y="234" type="curve" smooth="yes"/>
    </contour>
  </outline>
</glyph>
<glyph name="semicolon" format="1">
  <advance width="234"/>
  <unicode hex="003B"/>
  <outline>
    <contour>
      <point x="85" y="234"/>
      <point x="102" y="251"/>
      <point x="106" y="272" type="curve" smooth="yes"/>
      <point x="111" y="299"/>
      <point x="97" y="320"/>
      <point x="68" y="320" type="curve" smooth="yes"/>
      <point x="43" y="320"/>
      <point x="26" y="303"/>
      <point x="22" y="282" type="curve" smooth="yes"/>
      <point x="17" y="255"/>
      <point x="31" y="234"/>
      <point x="60" y="234" type="curve" smooth="yes"/>
    </contour>
    <contour>
      <point x="-14" y="-27"/>
      <point x="-52" y="-76"/>
      <point x="-62" y="-90" type="curve"/>
      <point x="-39" y="-110" type="line"/>
      <point x="0" y="-81"/>
      <point x="51" y="-33"/>
      <point x="60" y="14" type="curve" smooth="yes"/>
      <point x="67" y="49"/>
      <point x="50" y="70"/>
      <point x="20" y="70" type="curve" smooth="yes"/>
      <point x="-7" y="70"/>
      <point x="-26" y="53"/>
      <point x="-30" y="32" type="curve" smooth="yes"/>
      <point x="-35" y="6"/>
      <point x="-23" y="-14"/>
      <point x="1" y="-19" type="curve"/>
      <point x="-2" y="-6" type="line"/>
    </contour>
  </outline>
</glyph>
<glyph name="less" format="1">
  <advance width="426"/>
  <unicode hex="003C"/>
  <outline>
    <contour>
      <point x="40" y="272" type="line"/>
      <point x="378" y="439" type="line"/>
      <point x="378" y="377" type="line"/>
      <point x="107" y="240" type="line"/>
      <point x="378" y="104" type="line"/>
      <point x="378" y="42" type="line"/>
      <point x="40" y="208" type="line"/>
    </contour>
  </outline>
</glyph>
<glyph name="greater" format="1">
  <advance width="428"/>
  <unicode hex="003E"/>
  <outline>
    <contour>
      <point x="388" y="208" type="line"/>
      <point x="48" y="42" type="line"/>
      <point x="48" y="104" type="line"/>
      <point x="319" y="240" type="line"/>
      <point x="48" y="377" type="line"/>
      <point x="48" y="439" type="line"/>
      <point x="388" y="272" type="line"/>
    </contour>
  </outline>
</glyph>
<glyph name="question" format="1">
  <advance width="425"/>
  <unicode hex="003F"/>
  <outline>
    <contour>
      <point x="121" y="-40"/>
      <point x="136" y="-26"/>
      <point x="140" y="-7" type="curve" smooth="yes"/>
      <point x="145" y="18"/>
      <point x="133" y="36"/>
      <point x="106" y="36" type="curve" smooth="yes"/>
      <point x="83" y="36"/>
      <point x="69" y="22"/>
      <point x="66" y="3" type="curve" smooth="yes"/>
      <point x="61" y="-22"/>
      <point x="72" y="-40"/>
      <point x="99" y="-40" type="curve" smooth="yes"/>
    </contour>
    <contour>
      <point x="157" y="498"/>
      <point x="111" y="481"/>
      <point x="71" y="465" type="curve"/>
      <point x="86" y="409" type="line"/>
      <point x="120" y="424"/>
      <point x="156" y="440"/>
      <point x="213" y="440" type="curve" smooth="yes"/>
      <point x="270" y="440"/>
      <point x="298" y="417"/>
      <point x="288" y="366" type="curve" smooth="yes"/>
      <point x="276" y="301"/>
      <point x="198" y="264"/>
      <point x="145" y="214" type="curve"/>
      <point x="109" y="172"/>
      <point x="96" y="124"/>
      <point x="90" y="94" type="curve"/>
      <point x="153" y="90" type="line"/>
      <point x="167" y="163"/>
      <point x="197" y="182"/>
      <point x="254" y="226" type="curve" smooth="yes"/>
      <point x="297" y="263"/>
      <point x="336" y="297"/>
      <point x="348" y="361" type="curve" smooth="yes"/>
      <point x="366" y="453"/>
      <point x="304" y="498"/>
      <point x="220" y="498" type="curve" smooth="yes"/>
    </contour>
  </outline>
</glyph>
<glyph name="at" format="1">
  <advance width="802"/>
  <unicode hex="0040"/>
  <outline>
    <contour>
      <point x="539" y="119" type="line" smooth="yes"/>
      <point x="529" y="71"/>
      <point x="539" y="45"/>
      <point x="580" y="45" type="curve" smooth="yes"/>
      <point x="668" y="45"/>
      <point x="699" y="229"/>
      <point x="699" y="291" type="curve" smooth="yes"/>
      <point x="699" y="418"/>
      <point x="624" y="489"/>
      <point x="470" y="489" type="curve" smooth="yes"/>
      <point x="221" y="489"/>
      <point x="110" y="262"/>
      <point x="110" y="103" type="curve" smooth="yes"/>
      <point x="110" y="-41"/>
      <point x="210" y="-102"/>
      <point x="342" y="-102" type="curve" smooth="yes"/>
      <point x="380" y="-102"/>
      <point x="421" y="-98"/>
      <point x="467" y="-83" type="curve"/>
      <point x="452" y="-138" type="line"/>
      <point x="398" y="-153"/>
      <point x="355" y="-158"/>
      <point x="303" y="-158" type="curve" smooth="yes"/>
      <point x="158" y="-158"/>
      <point x="37" y="-69"/>
      <point x="38" y="96" type="curve" smooth="yes"/>
      <point x="37" y="313"/>
      <point x="185" y="543"/>
      <point x="476" y="543" type="curve" smooth="yes"/>
      <point x="680" y="543"/>
      <point x="768" y="441"/>
      <point x="768" y="293" type="curve" smooth="yes"/>
      <point x="768" y="192"/>
      <point x="709" y="-10"/>
      <point x="561" y="-10" type="curve" smooth="yes"/>
      <point x="520" y="-10"/>
      <point x="484" y="6"/>
      <point x="473" y="43" type="curve"/>
      <point x="436" y="10"/>
      <point x="395" y="-10"/>
      <point x="346" y="-10" type="curve" smooth="yes"/>
      <point x="259" y="-10"/>
      <point x="196" y="56"/>
      <point x="219" y="173" type="curve" smooth="yes"/>
      <point x="245" y="305"/>
      <point x="343" y="381"/>
      <point x="450" y="381" type="curve" smooth="yes"/>
      <point x="479" y="381"/>
      <point x="509" y="375"/>
      <point x="540" y="362" type="curve"/>
      <point x="548" y="377" type="line"/>
      <point x="589" y="377" type="line"/>
    </contour>
    <contour>
      <point x="276" y="104"/>
      <point x="299" y="46"/>
      <point x="380" y="46" type="curve" smooth="yes"/>
      <point x="414" y="46"/>
      <point x="444" y="57"/>
      <point x="471" y="85" type="curve"/>
      <point x="513" y="316" type="line"/>
      <point x="491" y="327"/>
      <point x="469" y="332"/>
      <point x="440" y="332" type="curve" smooth="yes"/>
      <point x="365" y="332"/>
      <point x="309" y="276"/>
      <point x="292" y="190" type="curve" smooth="yes"/>
    </contour>
  </outline>
</glyph>
<glyph name="A" format="1">
  <advance width="488"/>
  <unicode hex="0041"/>
  <outline>
    <contour>
      <point x="291" y="0" type="line"/>
      <point x="270" y="161" type="line"/>
      <point x="60" y="161" type="line"/>
      <point x="-23" y="0" type="line"/>
      <point x="-99" y="0" type="line"/>
      <point x="196" y="550" type="line"/>
      <point x="281" y="550" type="line"/>
      <point x="363" y="0" type="line"/>
    </contour>
    <contour>
      <point x="90" y="218" type="line"/>
      <point x="262" y="218" type="line"/>
      <point x="227" y="481" type="line"/>
    </contour>
    <contour>
      <point x="244" y="550" type="move" name="top.cap"/>
    </contour>
  </outline>
</glyph>
<glyph name="B" format="1">
  <advance width="498"/>
  <unicode hex="0042"/>
  <outline>
    <contour>
      <point x="325" y="373"/>
      <point x="325" y="428" type="curve" smooth="yes"/>
      <point x="326" y="476"/>
      <point x="287" y="493"/>
      <point x="226" y="493" type="curve" smooth="yes"/>
      <point x="122" y="493" type="line"/>
      <point x="88" y="321" type="line"/>
      <point x="164" y="321" type="line" smooth="yes"/>
      <point x="285" y="321"/>
    </contour>
    <contour>
      <point x="319" y="111"/>
      <point x="319" y="178" type="curve" smooth="yes"/>
      <point x="319" y="246"/>
      <point x="249" y="266"/>
      <point x="172" y="266" type="curve" smooth="yes"/>
      <point x="78" y="266" type="line"/>
      <point x="37" y="58" type="line"/>
      <point x="142" y="58" type="line" smooth="yes"/>
      <point x="252" y="58"/>
    </contour>
    <contour>
      <point x="346" y="280"/>
      <point x="389" y="251"/>
      <point x="389" y="179" type="curve" smooth="yes"/>
      <point x="389" y="88"/>
      <point x="315" y="0"/>
      <point x="137" y="0" type="curve" smooth="yes"/>
      <point x="-40" y="0" type="line"/>
      <point x="67" y="550" type="line"/>
      <point x="263" y="550" type="line" smooth="yes"/>
      <point x="344" y="550"/>
      <point x="392" y="503"/>
      <point x="392" y="438" type="curve" smooth="yes"/>
      <point x="392" y="380"/>
      <point x="364" y="326"/>
      <point x="293" y="294" type="curve"/>
    </contour>
  </outline>
</glyph>
<glyph name="C" format="1">
  <advance width="518"/>
  <unicode hex="0043"/>
  <outline>
    <contour>
      <point x="446" y="474" type="line"/>
      <point x="406" y="489"/>
      <point x="377" y="498"/>
      <point x="320" y="498" type="curve" smooth="yes"/>
      <point x="141" y="498"/>
      <point x="53" y="348"/>
      <point x="60" y="227" type="curve" smooth="yes"/>
      <point x="60" y="110"/>
      <point x="145" y="57"/>
      <point x="250" y="57" type="curve" smooth="yes"/>
      <point x="296" y="57"/>
      <point x="334" y="68"/>
      <point x="382" y="83" type="curve"/>
      <point x="388" y="20" type="line"/>
      <point x="333" y="1"/>
      <point x="291" y="-9"/>
      <point x="228" y="-9" type="curve" smooth="yes"/>
      <point x="93" y="-9"/>
      <point x="-11" y="85"/>
      <point x="-11" y="223" type="curve" smooth="yes"/>
      <point x="-11" y="422"/>
      <point x="133" y="558"/>
      <point x="321" y="558" type="curve" smooth="yes"/>
      <point x="385" y="558"/>
      <point x="412" y="555"/>
      <point x="481" y="530" type="curve"/>
    </contour>
    <contour>
      <point x="321" y="550" type="move" name="top.cap"/>
    </contour>
  </outline>
</glyph>
<glyph name="D" format="1">
  <advance width="558"/>
  <unicode hex="0044"/>
  <outline>
    <contour>
      <point x="162" y="58" type="line" smooth="yes"/>
      <point x="348" y="58"/>
      <point x="399" y="213"/>
      <point x="399" y="318" type="curve" smooth="yes"/>
      <point x="399" y="427"/>
      <point x="361" y="493"/>
      <point x="243" y="493" type="curve" smooth="yes"/>
      <point x="122" y="493" type="line"/>
      <point x="37" y="58" type="line"/>
    </contour>
    <contour>
      <point x="-40" y="0" type="line"/>
      <point x="67" y="550" type="line"/>
      <point x="263" y="550" type="line" smooth="yes"/>
      <point x="416" y="550"/>
      <point x="476" y="447"/>
      <point x="475" y="312" type="curve" smooth="yes"/>
      <point x="475" y="205"/>
      <point x="405" y="0"/>
      <point x="152" y="0" type="curve" smooth="yes"/>
    </contour>
    <contour>
      <point x="219" y="550" type="move" name="top.cap"/>
    </contour>
  </outline>
</glyph>
<glyph name="E" format="1">
  <advance width="442"/>
  <unicode hex="0045"/>
  <outline>
    <contour>
      <point x="67" y="550" type="line"/>
      <point x="389" y="550" type="line"/>
      <point x="378" y="494" type="line"/>
      <point x="122" y="494" type="line"/>
      <point x="87" y="313" type="line"/>
      <point x="323" y="313" type="line"/>
      <point x="312" y="256" type="line"/>
      <point x="76" y="256" type="line"/>
      <point x="37" y="58" type="line"/>
      <point x="293" y="58" type="line"/>
      <point x="282" y="0" type="line"/>
      <point x="-40" y="0" type="line"/>
    </contour>
    <contour>
      <point x="228" y="550" type="move" name="top.cap"/>
    </contour>
  </outline>
</glyph>
<glyph name="F" format="1">
  <advance width="424"/>
  <unicode hex="0046"/>
  <outline>
    <contour>
      <point x="157" y="313" type="line"/>
      <point x="388" y="313" type="line"/>
      <point x="377" y="256" type="line"/>
      <point x="146" y="256" type="line"/>
      <point x="96" y="0" type="line"/>
      <point x="30" y="0" type="line"/>
      <point x="137" y="550" type="line"/>
      <point x="457" y="550" type="line"/>
      <point x="446" y="494" type="line"/>
      <point x="192" y="494" type="line"/>
    </contour>
  </outline>
</glyph>
<glyph name="G" format="1">
  <advance width="563"/>
  <unicode hex="0047"/>
  <outline>
    <contour>
      <point x="430" y="483"/>
      <point x="369" y="500"/>
      <point x="321" y="500" type="curve" smooth="yes"/>
      <point x="240" y="500"/>
      <point x="170" y="451"/>
      <point x="140" y="387" type="curve" smooth="yes"/>
      <point x="125" y="355"/>
      <point x="117" y="318"/>
      <point x="117" y="276" type="curve" smooth="yes"/>
      <point x="117" y="184"/>
      <point x="160" y="116"/>
      <point x="220" y="81" type="curve" smooth="yes"/>
      <point x="256" y="61"/>
      <point x="288" y="50"/>
      <point x="333" y="50" type="curve" smooth="yes"/>
      <point x="376" y="50"/>
      <point x="427" y="66"/>
      <point x="458" y="91" type="curve"/>
      <point x="458" y="237" type="line"/>
      <point x="300" y="237" type="line"/>
      <point x="300" y="291" type="line"/>
      <point x="519" y="291" type="line"/>
      <point x="519" y="70" type="line"/>
      <point x="502" y="53"/>
      <point x="477" y="34"/>
      <point x="442" y="19" type="curve" smooth="yes"/>
      <point x="407" y="3"/>
      <point x="364" y="-8"/>
      <point x="309" y="-8" type="curve" smooth="yes"/>
      <point x="206" y="-8"/>
      <point x="122" y="49"/>
      <point x="79" y="130" type="curve" smooth="yes"/>
      <point x="56" y="173"/>
      <point x="44" y="220"/>
      <point x="44" y="271" type="curve" smooth="yes"/>
      <point x="44" y="388"/>
      <point x="101" y="477"/>
      <point x="177" y="521" type="curve" smooth="yes"/>
      <point x="218" y="546"/>
      <point x="264" y="558"/>
      <point x="315" y="558" type="curve" smooth="yes"/>
      <point x="388" y="558"/>
      <point x="443" y="541"/>
      <point x="496" y="510" type="curve"/>
      <point x="470" y="462" type="line"/>
    </contour>
    <contour>
      <point x="315" y="550" type="move" name="top.cap"/>
    </contour>
    <contour>
      <point x="308" y="0" type="move" name="bottom"/>
    </contour>
  </outline>
</glyph>
<glyph name="H" format="1">
  <advance width="573"/>
  <unicode hex="0048"/>
  <outline>
    <contour>
      <point x="505" y="550" type="line"/>
      <point x="398" y="0" type="line"/>
      <point x="332" y="0" type="line"/>
      <point x="380" y="247" type="line"/>
      <point x="74" y="247" type="line"/>
      <point x="26" y="0" type="line"/>
      <point x="-40" y="0" type="line"/>
      <point x="67" y="550" type="line"/>
      <point x="133" y="550" type="line"/>
      <point x="86" y="307" type="line"/>
      <point x="392" y="307" type="line"/>
      <point x="439" y="550" type="line"/>
    </contour>
    <contour>
      <point x="286" y="550" type="move" name="top.cap"/>
    </contour>
  </outline>
</glyph>
<glyph name="I" format="1">
  <advance width="217"/>
  <unicode hex="0049"/>
  <outline>
    <contour>
      <point x="141" y="550" type="line"/>
      <point x="34" y="0" type="line"/>
      <point x="-31" y="0" type="line"/>
      <point x="76" y="550" type="line"/>
    </contour>
    <contour>
      <point x="108" y="550" type="move" name="top.cap"/>
    </contour>
  </outline>
</glyph>
<glyph name="J" format="1">
  <advance width="313"/>
  <unicode hex="004A"/>
  <outline>
    <contour>
      <point x="253" y="550" type="line"/>
      <point x="179" y="167" type="line" smooth="yes"/>
      <point x="157" y="56"/>
      <point x="103" y="-7"/>
      <point x="-29" y="-7" type="curve" smooth="yes"/>
      <point x="-52" y="-7"/>
      <point x="-77" y="-5"/>
      <point x="-100" y="1" type="curve"/>
      <point x="-74" y="62" type="line"/>
      <point x="-54" y="57"/>
      <point x="-36" y="55"/>
      <point x="-19" y="55" type="curve"/>
      <point x="68" y="55"/>
      <point x="96" y="93"/>
      <point x="120" y="200" type="curve"/>
      <point x="188" y="550" type="line"/>
    </contour>
    <contour>
      <point x="220" y="550" type="move" name="top.cap"/>
    </contour>
  </outline>
</glyph>
<glyph name="K" format="1">
  <advance width="487"/>
  <unicode hex="004B"/>
  <outline>
    <contour>
      <point x="203" y="550" type="line"/>
      <point x="96" y="0" type="line"/>
      <point x="30" y="0" type="line"/>
      <point x="137" y="550" type="line"/>
    </contour>
    <contour>
      <point x="528" y="550" type="line"/>
      <point x="238" y="278" type="line"/>
      <point x="427" y="0" type="line"/>
      <point x="350" y="0" type="line"/>
      <point x="160" y="282" type="line"/>
      <point x="446" y="550" type="line"/>
    </contour>
    <contour>
      <point x="225" y="0" type="move" name="bottom"/>
    </contour>
  </outline>
</glyph>
<glyph name="L" format="1">
  <advance width="400"/>
  <unicode hex="004C"/>
  <outline>
    <contour>
      <point x="133" y="550" type="line"/>
      <point x="40" y="58" type="line"/>
      <point x="284" y="58" type="line"/>
      <point x="273" y="0" type="line"/>
      <point x="-40" y="0" type="line"/>
      <point x="67" y="550" type="line"/>
    </contour>
    <contour>
      <point x="176" y="550" type="move" name="top.cap"/>
    </contour>
    <contour>
      <point x="116" y="0" type="move" name="bottom"/>
    </contour>
  </outline>
</glyph>
<glyph name="M" format="1">
  <advance width="672"/>
  <unicode hex="004D"/>
  <outline>
    <contour>
      <point x="151" y="550" type="line"/>
      <point x="270" y="228" type="line"/>
      <point x="507" y="550" type="line"/>
      <point x="604" y="550" type="line"/>
      <point x="497" y="0" type="line"/>
      <point x="431" y="0" type="line"/>
      <point x="519" y="457" type="line"/>
      <point x="292" y="158" type="line"/>
      <point x="225" y="158" type="line"/>
      <point x="114" y="457" type="line"/>
      <point x="26" y="0" type="line"/>
      <point x="-40" y="0" type="line"/>
      <point x="67" y="550" type="line"/>
    </contour>
  </outline>
</glyph>
<glyph name="N" format="1">
  <advance width="574"/>
  <unicode hex="004E"/>
  <outline>
    <contour>
      <point x="145" y="550" type="line"/>
      <point x="345" y="89" type="line"/>
      <point x="446" y="550" type="line"/>
      <point x="514" y="550" type="line"/>
      <point x="395" y="0" type="line"/>
      <point x="312" y="0" type="line"/>
      <point x="111" y="463" type="line"/>
      <point x="22" y="0" type="line"/>
      <point x="-44" y="0" type="line"/>
      <point x="63" y="550" type="line"/>
    </contour>
    <contour>
      <point x="296" y="550" type="move" name="top.cap"/>
    </contour>
    <contour>
      <point x="171" y="0" type="move" name="bottom"/>
    </contour>
  </outline>
</glyph>
<glyph name="O" format="1">
  <advance width="606"/>
  <unicode hex="004F"/>
  <outline>
    <contour>
      <point x="580" y="481"/>
      <point x="476" y="557"/>
      <point x="364" y="557" type="curve" smooth="yes"/>
      <point x="233" y="557"/>
      <point x="58" y="455"/>
      <point x="58" y="223" type="curve"/>
      <point x="58" y="67"/>
      <point x="160" y="-7"/>
      <point x="274" y="-7" type="curve" smooth="yes"/>
      <point x="405" y="-7"/>
      <point x="580" y="94"/>
      <point x="580" y="326" type="curve"/>
    </contour>
    <contour>
      <point x="510" y="174"/>
      <point x="411" y="58"/>
      <point x="289" y="58" type="curve" smooth="yes"/>
      <point x="184" y="58"/>
      <point x="127" y="114"/>
      <point x="127" y="227" type="curve"/>
      <point x="127" y="375"/>
      <point x="227" y="492"/>
      <point x="349" y="492" type="curve" smooth="yes"/>
      <point x="454" y="492"/>
      <point x="510" y="435"/>
      <point x="510" y="322" type="curve"/>
    </contour>
    <contour>
      <point x="364" y="550" type="move" name="top.cap"/>
    </contour>
  </outline>
</glyph>
<glyph name="P" format="1">
  <advance width="465"/>
  <unicode hex="0050"/>
  <outline>
    <contour>
      <point x="131" y="286"/>
      <point x="107" y="287"/>
      <point x="80" y="289" type="curve"/>
      <point x="122" y="494" type="line"/>
      <point x="196" y="494" type="line" smooth="yes"/>
      <point x="231" y="494"/>
      <point x="255" y="494"/>
      <point x="268" y="491" type="curve"/>
      <point x="318" y="485"/>
      <point x="348" y="454"/>
      <point x="337" y="397" type="curve" smooth="yes"/>
      <point x="318" y="298"/>
      <point x="241" y="286"/>
      <point x="150" y="286" type="curve" smooth="yes"/>
    </contour>
    <contour>
      <point x="425" y="507"/>
      <point x="345" y="550"/>
      <point x="233" y="550" type="curve" smooth="yes"/>
      <point x="67" y="550" type="line"/>
      <point x="-40" y="0" type="line"/>
      <point x="26" y="0" type="line"/>
      <point x="73" y="230" type="line"/>
      <point x="96" y="228"/>
      <point x="118" y="228"/>
      <point x="140" y="228" type="curve" smooth="yes"/>
      <point x="268" y="228"/>
      <point x="368" y="247"/>
      <point x="401" y="383" type="curve"/>
    </contour>
  </outline>
</glyph>
<glyph name="Q" format="1">
  <advance width="610"/>
  <unicode hex="0051"/>
  <outline>
    <contour>
      <point x="511" y="481"/>
      <point x="407" y="557"/>
      <point x="295" y="557" type="curve" smooth="yes"/>
      <point x="164" y="557"/>
      <point x="-11" y="455"/>
      <point x="-11" y="223" type="curve"/>
      <point x="-11" y="67"/>
      <point x="91" y="-7"/>
      <point x="205" y="-7" type="curve" smooth="yes"/>
      <point x="336" y="-7"/>
      <point x="511" y="94"/>
      <point x="511" y="326" type="curve"/>
    </contour>
    <contour>
      <point x="441" y="174"/>
      <point x="342" y="58"/>
      <point x="220" y="58" type="curve" smooth="yes"/>
      <point x="115" y="58"/>
      <point x="58" y="114"/>
      <point x="58" y="227" type="curve"/>
      <point x="58" y="375"/>
      <point x="158" y="492"/>
      <point x="280" y="492" type="curve" smooth="yes"/>
      <point x="385" y="492"/>
      <point x="441" y="435"/>
      <point x="441" y="322" type="curve"/>
    </contour>
    <contour>
      <point x="235" y="204" type="line"/>
      <point x="432" y="-22" type="line"/>
      <point x="479" y="21" type="line"/>
      <point x="284" y="245" type="line"/>
    </contour>
  </outline>
</glyph>
<glyph name="R" format="1">
  <advance width="496"/>
  <unicode hex="0052"/>
  <outline>
    <contour>
      <point x="355" y="0" type="line"/>
      <point x="247" y="236" type="line"/>
      <point x="358" y="264"/>
      <point x="405" y="346"/>
      <point x="405" y="420" type="curve" smooth="yes"/>
      <point x="405" y="506"/>
      <point x="348" y="550"/>
      <point x="248" y="550" type="curve" smooth="yes"/>
      <point x="67" y="550" type="line"/>
      <point x="-40" y="0" type="line"/>
      <point x="26" y="0" type="line"/>
      <point x="70" y="228" type="line"/>
      <point x="181" y="228" type="line"/>
      <point x="282" y="0" type="line"/>
    </contour>
    <contour>
      <point x="80" y="286" type="line"/>
      <point x="122" y="494" type="line"/>
      <point x="196" y="494" type="line" smooth="yes"/>
      <point x="273" y="494"/>
      <point x="339" y="495"/>
      <point x="339" y="420" type="curve" smooth="yes"/>
      <point x="339" y="333"/>
      <point x="284" y="286"/>
      <point x="145" y="286" type="curve"/>
    </contour>
    <contour>
      <point x="222" y="550" type="move" name="top.cap"/>
    </contour>
    <contour>
      <point x="162" y="0" type="move" name="bottom"/>
    </contour>
  </outline>
</glyph>
<glyph name="S" format="1">
  <advance width="462"/>
  <unicode hex="0053"/>
  <outline>
    <contour>
      <point x="171" y="60"/>
      <point x="127" y="69"/>
      <point x="63" y="93" type="curve"/>
      <point x="40" y="29" type="line"/>
      <point x="97" y="9"/>
      <point x="137" y="-8"/>
      <point x="207" y="-8" type="curve" smooth="yes"/>
      <point x="315" y="-8"/>
      <point x="420" y="40"/>
      <point x="420" y="149" type="curve" smooth="yes"/>
      <point x="420" y="253"/>
      <point x="323" y="278"/>
      <point x="238" y="313" type="curve" smooth="yes"/>
      <point x="189" y="333"/>
      <point x="121" y="357"/>
      <point x="121" y="415" type="curve" smooth="yes"/>
      <point x="121" y="468"/>
      <point x="169" y="497"/>
      <point x="246" y="497" type="curve" smooth="yes"/>
      <point x="285" y="497"/>
      <point x="330" y="481"/>
      <point x="370" y="465" type="curve"/>
      <point x="389" y="524" type="line"/>
      <point x="344" y="543"/>
      <point x="288" y="562"/>
      <point x="238" y="562" type="curve" smooth="yes"/>
      <point x="180" y="562"/>
      <point x="141" y="550"/>
      <point x="102" y="521" type="curve" smooth="yes"/>
      <point x="71" y="497"/>
      <point x="53" y="459"/>
      <point x="53" y="408" type="curve" smooth="yes"/>
      <point x="53" y="324"/>
      <point x="119" y="290"/>
      <point x="202" y="257" type="curve" smooth="yes"/>
      <point x="265" y="232"/>
      <point x="349" y="209"/>
      <point x="349" y="145" type="curve" smooth="yes"/>
      <point x="349" y="85"/>
      <point x="282" y="60"/>
      <point x="209" y="60" type="curve" smooth="yes"/>
    </contour>
    <contour>
      <point x="238" y="549" type="move" name="top.cap"/>
    </contour>
    <contour>
      <point x="209" y="2" type="move" name="bottom"/>
    </contour>
  </outline>
</glyph>
<glyph name="T" format="1">
  <advance width="451"/>
  <unicode hex="0054"/>
  <outline>
    <contour>
      <point x="435" y="550" type="line"/>
      <point x="424" y="494" type="line"/>
      <point x="246" y="494" type="line"/>
      <point x="150" y="0" type="line"/>
      <point x="84" y="0" type="line"/>
      <point x="180" y="494" type="line"/>
      <point x="-2" y="494" type="line"/>
      <point x="9" y="550" type="line"/>
    </contour>
    <contour>
      <point x="223" y="550" type="move" name="top.cap"/>
    </contour>
    <contour>
      <point x="112" y="0" type="move" name="bottom"/>
    </contour>
  </outline>
</glyph>
<glyph name="U" format="1">
  <advance width="542"/>
  <unicode hex="0055"/>
  <outline>
    <contour>
      <point x="314" y="-9"/>
      <point x="386" y="64"/>
      <point x="414" y="208" type="curve" smooth="yes"/>
      <point x="480" y="550" type="line"/>
      <point x="415" y="550" type="line"/>
      <point x="346" y="196" type="line" smooth="yes"/>
      <point x="332" y="119"/>
      <point x="280" y="49"/>
      <point x="170" y="49" type="curve" smooth="yes"/>
      <point x="66" y="49"/>
      <point x="40" y="100"/>
      <point x="57" y="192" type="curve" smooth="yes"/>
      <point x="127" y="550" type="line"/>
      <point x="62" y="550" type="line"/>
      <point x="-4" y="212" type="line" smooth="yes"/>
      <point x="-32" y="68"/>
      <point x="14" y="-9"/>
      <point x="166" y="-9" type="curve" smooth="yes"/>
    </contour>
    <contour>
      <point x="255" y="550" type="move" name="top.cap"/>
    </contour>
  </outline>
</glyph>
<glyph name="V" format="1">
  <advance width="485"/>
  <unicode hex="0056"/>
  <outline>
    <contour>
      <point x="83" y="550" type="line"/>
      <point x="147" y="69" type="line"/>
      <point x="397" y="550" type="line"/>
      <point x="473" y="550" type="line"/>
      <point x="178" y="0" type="line"/>
      <point x="93" y="0" type="line"/>
      <point x="11" y="550" type="line"/>
    </contour>
  </outline>
</glyph>
<glyph name="W" format="1">
  <advance width="777"/>
  <unicode hex="0057"/>
  <outline>
    <contour>
      <point x="82" y="550" type="line"/>
      <point x="100" y="88" type="line"/>
      <point x="339" y="550" type="line"/>
      <point x="402" y="550" type="line"/>
      <point x="442" y="88" type="line"/>
      <point x="652" y="550" type="line"/>
      <point x="729" y="550" type="line"/>
      <point x="473" y="0" type="line"/>
      <point x="385" y="0" type="line"/>
      <point x="348" y="422" type="line"/>
      <point x="121" y="0" type="line"/>
      <point x="41" y="0" type="line"/>
      <point x="8" y="550" type="line"/>
    </contour>
  </outline>
</glyph>
<glyph name="X" format="1">
  <advance width="493"/>
  <unicode hex="0058"/>
  <outline>
    <contour>
      <point x="104" y="550" type="line"/>
      <point x="369" y="0" type="line"/>
      <point x="290" y="1" type="line"/>
      <point x="28" y="551" type="line"/>
    </contour>
    <contour>
      <point x="469" y="550" type="line"/>
      <point x="-12" y="0" type="line"/>
      <point x="-96" y="1" type="line"/>
      <point x="388" y="550" type="line"/>
    </contour>
  </outline>
</glyph>
<glyph name="Y" format="1">
  <advance width="454"/>
  <unicode hex="0059"/>
  <outline>
    <contour>
      <point x="84" y="0" type="line"/>
      <point x="133" y="254" type="line"/>
      <point x="8" y="550" type="line"/>
      <point x="81" y="550" type="line"/>
      <point x="178" y="324" type="line"/>
      <point x="366" y="550" type="line"/>
      <point x="444" y="550" type="line"/>
      <point x="198" y="249" type="line"/>
      <point x="150" y="0" type="line"/>
    </contour>
    <contour>
      <point x="221" y="550" type="move" name="top.cap"/>
    </contour>
  </outline>
</glyph>
<glyph name="Z" format="1">
  <advance width="475"/>
  <unicode hex="005A"/>
  <outline>
    <contour>
      <point x="437" y="550" type="line"/>
      <point x="428" y="509" type="line"/>
      <point x="34" y="58" type="line"/>
      <point x="343" y="58" type="line"/>
      <point x="332" y="0" type="line"/>
      <point x="-71" y="0" type="line"/>
      <point x="-62" y="43" type="line"/>
      <point x="330" y="494" type="line"/>
      <point x="36" y="494" type="line"/>
      <point x="47" y="550" type="line"/>
    </contour>
    <contour>
      <point x="232" y="550" type="move" name="top.cap"/>
    </contour>
  </outline>
</glyph>
<glyph name="bracketleft" format="1">
  <advance width="304"/>
  <unicode hex="005B"/>
  <outline>
    <contour>
      <point x="117" y="-89" type="line"/>
      <point x="-5" y="-89" type="line"/>
      <point x="116" y="536" type="line"/>
      <point x="238" y="536" type="line"/>
      <point x="248" y="586" type="line"/>
      <point x="70" y="586" type="line"/>
      <point x="-71" y="-139" type="line"/>
      <point x="107" y="-139" type="line"/>
    </contour>
  </outline>
</glyph>
<glyph name="backslash" format="1">
  <advance width="299"/>
  <unicode hex="005C"/>
  <outline>
    <contour>
      <point x="171" y="-35" type="line"/>
      <point x="106" y="-35" type="line"/>
      <point x="29" y="550" type="line"/>
      <point x="93" y="550" type="line"/>
    </contour>
  </outline>
</glyph>
<glyph name="bracketright" format="1">
  <advance width="304"/>
  <unicode hex="005D"/>
  <outline>
    <contour>
      <point x="248" y="586" type="line"/>
      <point x="70" y="586" type="line"/>
      <point x="60" y="536" type="line"/>
      <point x="182" y="536" type="line"/>
      <point x="61" y="-89" type="line"/>
      <point x="-61" y="-89" type="line"/>
      <point x="-71" y="-139" type="line"/>
      <point x="107" y="-139" type="line"/>
    </contour>
  </outline>
</glyph>
<glyph name="asciicircum" format="1">
  <advance width="397"/>
  <unicode hex="005E"/>
  <outline>
    <contour>
      <point x="140" y="407" type="line"/>
      <point x="105" y="449" type="line"/>
      <point x="276" y="601" type="line"/>
      <point x="390" y="441" type="line"/>
      <point x="344" y="407" type="line"/>
      <point x="263" y="517" type="line"/>
    </contour>
  </outline>
</glyph>
<glyph name="underscore" format="1">
  <advance width="452"/>
  <unicode hex="005F"/>
  <outline>
    <contour>
      <point x="280" y="-25" type="line"/>
      <point x="269" y="-83" type="line"/>
      <point x="-63" y="-83" type="line"/>
      <point x="-52" y="-25" type="line"/>
    </contour>
  </outline>
</glyph>
<glyph name="grave" format="1">
  <advance width="193"/>
  <unicode hex="0060"/>
  <outline>
    <contour>
      <point x="5" y="550" type="line"/>
      <point x="155" y="427" type="line"/>
      <point x="188" y="465" type="line"/>
      <point x="41" y="593" type="line"/>
    </contour>
    <contour>
      <point x="105" y="384" type="move" name="_top"/>
    </contour>
  </outline>
</glyph>
<glyph name="a" format="1">
  <advance width="393"/>
  <unicode hex="0061"/>
  <outline>
    <contour>
      <point x="222" y="333"/>
      <point x="232" y="305"/>
      <point x="214" y="225" type="curve"/>
      <point x="155" y="224"/>
      <point x="105" y="221"/>
      <point x="63" y="211" type="curve" smooth="yes"/>
      <point x="13" y="199"/>
      <point x="-38" y="161"/>
      <point x="-49" y="101" type="curve" smooth="yes"/>
      <point x="-62" y="35"/>
      <point x="-14" y="-10"/>
      <point x="56" y="-10" type="curve" smooth="yes"/>
      <point x="97" y="-10"/>
      <point x="138" y="5"/>
      <point x="180" y="34" type="curve"/>
      <point x="186" y="0" type="line"/>
      <point x="234" y="0" type="line"/>
      <point x="282" y="246" type="line" smooth="yes"/>
      <point x="302" y="353"/>
      <point x="248" y="388"/>
      <point x="154" y="388" type="curve" smooth="yes"/>
      <point x="115" y="388"/>
      <point x="70" y="380"/>
      <point x="26" y="366" type="curve"/>
      <point x="35" y="316" type="line"/>
      <point x="67" y="326"/>
      <point x="113" y="333"/>
      <point x="142" y="333" type="curve" smooth="yes"/>
    </contour>
    <contour>
      <point x="35" y="42"/>
      <point x="6" y="60"/>
      <point x="13" y="98" type="curve" smooth="yes"/>
      <point x="21" y="139"/>
      <point x="53" y="159"/>
      <point x="104" y="169" type="curve" smooth="yes"/>
      <point x="118" y="172"/>
      <point x="153" y="177"/>
      <point x="206" y="178" type="curve"/>
      <point x="187" y="88" type="line"/>
      <point x="154" y="62"/>
      <point x="116" y="42"/>
      <point x="67" y="42" type="curve" smooth="yes"/>
    </contour>
    <contour>
      <point x="157" y="384" type="move" name="top"/>
    </contour>
  </outline>
</glyph>
<glyph name="b" format="1">
  <advance width="439"/>
  <unicode hex="0062"/>
  <outline>
    <contour>
      <point x="171" y="47"/>
      <point x="150" y="56"/>
      <point x="123" y="70" type="curve"/>
      <point x="123" y="324" type="line"/>
      <point x="151" y="335"/>
      <point x="179" y="339"/>
      <point x="208" y="339" type="curve" smooth="yes"/>
      <point x="294" y="339"/>
      <point x="333" y="278"/>
      <point x="333" y="192" type="curve" smooth="yes"/>
      <point x="333" y="91"/>
      <point x="294" y="47"/>
      <point x="209" y="47" type="curve" smooth="yes"/>
    </contour>
    <contour>
      <point x="149" y="5"/>
      <point x="186" y="-8"/>
      <point x="225" y="-8" type="curve" smooth="yes"/>
      <point x="341" y="-8"/>
      <point x="401" y="73"/>
      <point x="401" y="188" type="curve" smooth="yes"/>
      <point x="401" y="253"/>
      <point x="384" y="308"/>
      <point x="348" y="344" type="curve" smooth="yes"/>
      <point x="312" y="378"/>
      <point x="268" y="392"/>
      <point x="216" y="392" type="curve" smooth="yes"/>
      <point x="185" y="392"/>
      <point x="153" y="388"/>
      <point x="123" y="374" type="curve"/>
      <point x="123" y="532" type="line"/>
      <point x="58" y="532" type="line"/>
      <point x="58" y="0" type="line"/>
      <point x="104" y="0" type="line"/>
      <point x="116" y="27" type="line"/>
    </contour>
  </outline>
</glyph>
<glyph name="c" format="1">
  <advance width="363"/>
  <unicode hex="0063"/>
  <outline>
    <contour>
      <point x="161" y="-9"/>
      <point x="192" y="-2"/>
      <point x="231" y="12" type="curve"/>
      <point x="220" y="62" type="line"/>
      <point x="195" y="53"/>
      <point x="167" y="48"/>
      <point x="143" y="48" type="curve" smooth="yes"/>
      <point x="88" y="48"/>
      <point x="29" y="62"/>
      <point x="29" y="148" type="curve" smooth="yes"/>
      <point x="29" y="232"/>
      <point x="70" y="335"/>
      <point x="202" y="335" type="curve" smooth="yes"/>
      <point x="229" y="335"/>
      <point x="251" y="331"/>
      <point x="276" y="321" type="curve"/>
      <point x="298" y="367" type="line"/>
      <point x="265" y="382"/>
      <point x="236" y="389"/>
      <point x="202" y="389" type="curve" smooth="yes"/>
      <point x="23" y="389"/>
      <point x="-38" y="253"/>
      <point x="-38" y="135" type="curve" smooth="yes"/>
      <point x="-38" y="48"/>
      <point x="17" y="-9"/>
      <point x="119" y="-9" type="curve" smooth="yes"/>
    </contour>
    <contour>
      <point x="190" y="384" type="move" name="top"/>
    </contour>
  </outline>
</glyph>
<glyph name="d" format="1">
  <advance width="439"/>
  <unicode hex="0064"/>
  <outline>
    <contour>
      <point x="45" y="47"/>
      <point x="19" y="105"/>
      <point x="34" y="187" type="curve" smooth="yes"/>
      <point x="52" y="276"/>
      <point x="106" y="339"/>
      <point x="193" y="339" type="curve" smooth="yes"/>
      <point x="221" y="339"/>
      <point x="248" y="336"/>
      <point x="273" y="325" type="curve"/>
      <point x="220" y="71" type="line"/>
      <point x="191" y="57"/>
      <point x="168" y="47"/>
      <point x="127" y="47" type="curve" smooth="yes"/>
    </contour>
    <contour>
      <point x="147" y="-8"/>
      <point x="186" y="4"/>
      <point x="224" y="26" type="curve"/>
      <point x="229" y="0" type="line"/>
      <point x="276" y="0" type="line"/>
      <point x="380" y="532" type="line"/>
      <point x="312" y="532" type="line"/>
      <point x="279" y="373" type="line"/>
      <point x="252" y="387"/>
      <point x="223" y="392"/>
      <point x="190" y="392" type="curve" smooth="yes"/>
      <point x="71" y="392"/>
      <point x="-7" y="316"/>
      <point x="-31" y="193" type="curve" smooth="yes"/>
      <point x="-54" y="75"/>
      <point x="-8" y="-8"/>
      <point x="112" y="-8" type="curve" smooth="yes"/>
    </contour>
  </outline>
</glyph>
<glyph name="e" format="1">
  <advance width="404"/>
  <unicode hex="0065"/>
  <outline>
    <contour>
      <point x="75" y="389"/>
      <point x="-8" y="308"/>
      <point x="-32" y="190" type="curve" smooth="yes"/>
      <point x="-56" y="64"/>
      <point x="-1" y="-8"/>
      <point x="125" y="-8" type="curve" smooth="yes"/>
      <point x="166" y="-8"/>
      <point x="209" y="-1"/>
      <point x="249" y="12" type="curve"/>
      <point x="242" y="62" type="line"/>
      <point x="209" y="51"/>
      <point x="176" y="46"/>
      <point x="145" y="46" type="curve" smooth="yes"/>
      <point x="54" y="46"/>
      <point x="10" y="86"/>
      <point x="27" y="170" type="curve"/>
      <point x="289" y="172" type="line"/>
      <point x="294" y="180" type="line"/>
      <point x="299" y="213" type="line" smooth="yes"/>
      <point x="316" y="324"/>
      <point x="279" y="389"/>
      <point x="175" y="389" type="curve" smooth="yes"/>
    </contour>
    <contour>
      <point x="38" y="222" type="line"/>
      <point x="57" y="282"/>
      <point x="103" y="338"/>
      <point x="180" y="338" type="curve" smooth="yes"/>
      <point x="237" y="338"/>
      <point x="251" y="288"/>
      <point x="239" y="226" type="curve"/>
    </contour>
    <contour>
      <point x="171" y="384" type="move" name="top"/>
    </contour>
  </outline>
</glyph>
<glyph name="f" format="1">
  <advance width="286"/>
  <unicode hex="0066"/>
  <outline>
    <contour>
      <point x="310" y="503"/>
      <point x="329" y="499"/>
      <point x="353" y="492" type="curve"/>
      <point x="369" y="538" type="line"/>
      <point x="343" y="546"/>
      <point x="312" y="554"/>
      <point x="277" y="554" type="curve" smooth="yes"/>
      <point x="182" y="554"/>
      <point x="144" y="508"/>
      <point x="128" y="425" type="curve" smooth="yes"/>
      <point x="120" y="384" type="line"/>
      <point x="65" y="384" type="line"/>
      <point x="55" y="333" type="line"/>
      <point x="112" y="333" type="line"/>
      <point x="47" y="0" type="line"/>
      <point x="112" y="0" type="line"/>
      <point x="177" y="333" type="line"/>
      <point x="303" y="333" type="line"/>
      <point x="313" y="384" type="line"/>
      <point x="186" y="384" type="line"/>
      <point x="193" y="417" type="line" smooth="yes"/>
      <point x="205" y="479"/>
      <point x="230" y="503"/>
      <point x="295" y="503" type="curve" smooth="yes"/>
    </contour>
  </outline>
</glyph>
<glyph name="g" format="1">
  <advance width="439"/>
  <unicode hex="0067"/>
  <outline>
    <contour>
      <point x="184" y="-126"/>
      <point x="138" y="-159"/>
      <point x="38" y="-159" type="curve" smooth="yes"/>
      <point x="13" y="-159"/>
      <point x="-15" y="-152"/>
      <point x="-47" y="-140" type="curve"/>
      <point x="-70" y="-184" type="line"/>
      <point x="-40" y="-199"/>
      <point x="6" y="-210"/>
      <point x="45" y="-210" type="curve" smooth="yes"/>
      <point x="169" y="-210"/>
      <point x="243" y="-151"/>
      <point x="269" y="-20" type="curve" smooth="yes"/>
      <point x="349" y="384" type="line"/>
      <point x="301" y="384" type="line"/>
      <point x="289" y="360" type="line"/>
      <point x="271" y="368" type="line" smooth="yes"/>
      <point x="242" y="383"/>
      <point x="213" y="389"/>
      <point x="183" y="389" type="curve" smooth="yes"/>
      <point x="91" y="389"/>
      <point x="-6" y="327"/>
      <point x="-32" y="190" type="curve" smooth="yes"/>
      <point x="-51" y="90"/>
      <point x="-9" y="-8"/>
      <point x="110" y="-8" type="curve" smooth="yes"/>
      <point x="146" y="-8"/>
      <point x="178" y="0"/>
      <point x="214" y="17" type="curve"/>
    </contour>
    <contour>
      <point x="108" y="45"/>
      <point x="89" y="48"/>
      <point x="71" y="57" type="curve" smooth="yes"/>
      <point x="36" y="80"/>
      <point x="22" y="130"/>
      <point x="34" y="189" type="curve" smooth="yes"/>
      <point x="51" y="275"/>
      <point x="104" y="337"/>
      <point x="189" y="337" type="curve" smooth="yes"/>
      <point x="213" y="337"/>
      <point x="241" y="333"/>
      <point x="272" y="318" type="curve"/>
      <point x="219" y="67" type="line"/>
      <point x="192" y="53"/>
      <point x="162" y="45"/>
      <point x="127" y="45" type="curve" smooth="yes"/>
    </contour>
    <contour>
      <point x="206" y="384" type="move" name="top"/>
    </contour>
  </outline>
</glyph>
<glyph name="h" format="1">
  <advance width="430"/>
  <unicode hex="0068"/>
  <outline>
    <contour>
      <point x="313" y="0" type="line"/>
      <point x="379" y="0" type="line"/>
      <point x="379" y="261" type="line" smooth="yes"/>
      <point x="379" y="343"/>
      <point x="333" y="394"/>
      <point x="253" y="394" type="curve" smooth="yes"/>
      <point x="214" y="394"/>
      <point x="171" y="383"/>
      <point x="125" y="359" type="curve"/>
      <point x="125" y="532" type="line"/>
      <point x="60" y="532" type="line"/>
      <point x="60" y="0" type="line"/>
      <point x="125" y="0" type="line"/>
      <point x="125" y="311" type="line"/>
      <point x="165" y="330"/>
      <point x="199" y="339"/>
      <point x="228" y="339" type="curve" smooth="yes"/>
      <point x="292" y="339"/>
      <point x="313" y="310"/>
      <point x="313" y="246" type="curve" smooth="yes"/>
    </contour>
  </outline>
</glyph>
<glyph name="i" format="1">
  <advance width="181"/>
  <unicode hex="0069"/>
  <outline>
    <contour>
      <point x="-49" y="0" type="line"/>
      <point x="16" y="0" type="line"/>
      <point x="91" y="384" type="line"/>
      <point x="26" y="384" type="line"/>
    </contour>
    <contour>
      <point x="99" y="458"/>
      <point x="118" y="476"/>
      <point x="121" y="495" type="curve" smooth="yes"/>
      <point x="126" y="519"/>
      <point x="111" y="541"/>
      <point x="85" y="541" type="curve" smooth="yes"/>
      <point x="62" y="541"/>
      <point x="44" y="523"/>
      <point x="40" y="505" type="curve" smooth="yes"/>
      <point x="35" y="480"/>
      <point x="50" y="458"/>
      <point x="77" y="458" type="curve" smooth="yes"/>
    </contour>
  </outline>
</glyph>
<glyph name="j" format="1">
  <advance width="180"/>
  <unicode hex="006A"/>
  <outline>
    <contour>
      <point x="94" y="457"/>
      <point x="114" y="473"/>
      <point x="118" y="494" type="curve" smooth="yes"/>
      <point x="123" y="520"/>
      <point x="106" y="541"/>
      <point x="81" y="541" type="curve" smooth="yes"/>
      <point x="60" y="541"/>
      <point x="40" y="525"/>
      <point x="36" y="504" type="curve" smooth="yes"/>
      <point x="31" y="478"/>
      <point x="48" y="457"/>
      <point x="73" y="457" type="curve" smooth="yes"/>
    </contour>
    <component base="dotlessj"/>
  </outline>
</glyph>
<glyph name="k" format="1">
  <advance width="400"/>
  <unicode hex="006B"/>
  <outline>
    <contour>
      <point x="-47" y="0" type="line"/>
      <point x="18" y="0" type="line"/>
      <point x="122" y="532" type="line"/>
      <point x="57" y="532" type="line"/>
    </contour>
    <contour>
      <point x="66" y="212" type="line"/>
      <point x="199" y="0" type="line"/>
      <point x="271" y="0" type="line"/>
      <point x="143" y="207" type="line"/>
      <point x="322" y="384" type="line"/>
      <point x="247" y="384" type="line"/>
    </contour>
    <contour>
      <point x="113" y="0" type="move" name="bottom"/>
    </contour>
  </outline>
</glyph>
<glyph name="l" format="1">
  <advance width="220"/>
  <unicode hex="006C"/>
  <outline>
    <contour>
      <point x="22" y="51"/>
      <point x="27" y="76"/>
      <point x="32" y="104" type="curve" smooth="yes"/>
      <point x="116" y="533" type="line"/>
      <point x="53" y="533" type="line"/>
      <point x="-36" y="85" type="line" smooth="yes"/>
      <point x="-47" y="31"/>
      <point x="-19" y="-9"/>
      <point x="33" y="-9" type="curve" smooth="yes"/>
      <point x="69" y="-9"/>
      <point x="97" y="3"/>
      <point x="113" y="9" type="curve"/>
      <point x="105" y="58" type="line"/>
      <point x="93" y="54"/>
      <point x="82" y="51"/>
      <point x="69" y="51" type="curve" smooth="yes"/>
    </contour>
    <contour>
      <point x="165" y="533" type="move" name="top"/>
    </contour>
    <contour>
      <point x="31" y="0" type="move" name="bottom"/>
    </contour>
  </outline>
</glyph>
<glyph name="m" format="1">
  <advance width="634"/>
  <unicode hex="006D"/>
  <outline>
    <contour>
      <point x="408" y="0" type="line"/>
      <point x="475" y="0" type="line"/>
      <point x="525" y="258" type="line" smooth="yes"/>
      <point x="540" y="334"/>
      <point x="508" y="390"/>
      <point x="425" y="390" type="curve" smooth="yes"/>
      <point x="375" y="390"/>
      <point x="333" y="370"/>
      <point x="287" y="340" type="curve"/>
      <point x="275" y="368"/>
      <point x="243" y="390"/>
      <point x="196" y="390" type="curve" smooth="yes"/>
      <point x="182" y="390"/>
      <point x="164" y="390"/>
      <point x="142" y="386" type="curve" smooth="yes"/>
      <point x="126" y="380"/>
      <point x="104" y="371"/>
      <point x="75" y="353" type="curve"/>
      <point x="68" y="384" type="line"/>
      <point x="24" y="384" type="line"/>
      <point x="-51" y="0" type="line"/>
      <point x="14" y="0" type="line"/>
      <point x="76" y="308" type="line"/>
      <point x="115" y="327"/>
      <point x="147" y="338"/>
      <point x="173" y="338" type="curve" smooth="yes"/>
      <point x="225" y="338"/>
      <point x="238" y="304"/>
      <point x="227" y="246" type="curve" smooth="yes"/>
      <point x="179" y="0" type="line"/>
      <point x="244" y="0" type="line"/>
      <point x="294" y="258" type="line" smooth="yes"/>
      <point x="298" y="276"/>
      <point x="300" y="291"/>
      <point x="300" y="300" type="curve"/>
      <point x="343" y="326"/>
      <point x="374" y="338"/>
      <point x="403" y="338" type="curve" smooth="yes"/>
      <point x="455" y="338"/>
      <point x="467" y="304"/>
      <point x="456" y="246" type="curve" smooth="yes"/>
    </contour>
  </outline>
</glyph>
<glyph name="n" format="1">
  <advance width="427"/>
  <unicode hex="006E"/>
  <outline>
    <contour>
      <point x="273" y="0" type="line"/>
      <point x="338" y="0" type="line"/>
      <point x="388" y="258" type="line" smooth="yes"/>
      <point x="403" y="338"/>
      <point x="370" y="390"/>
      <point x="285" y="390" type="curve" smooth="yes"/>
      <point x="246" y="390"/>
      <point x="196" y="379"/>
      <point x="144" y="353" type="curve"/>
      <point x="137" y="384" type="line"/>
      <point x="93" y="384" type="line"/>
      <point x="19" y="0" type="line"/>
      <point x="84" y="0" type="line"/>
      <point x="145" y="307" type="line"/>
      <point x="189" y="326"/>
      <point x="227" y="335"/>
      <point x="259" y="335" type="curve" smooth="yes"/>
      <point x="319" y="335"/>
      <point x="333" y="310"/>
      <point x="321" y="246" type="curve" smooth="yes"/>
    </contour>
    <contour>
      <point x="260" y="384" type="move" name="top"/>
    </contour>
    <contour>
      <point x="187" y="0" type="move" name="bottom"/>
    </contour>
  </outline>
</glyph>
<glyph name="o" format="1">
  <advance width="447"/>
  <unicode hex="006F"/>
  <outline>
    <contour>
      <point x="262" y="338"/>
      <point x="289" y="274"/>
      <point x="274" y="195" type="curve" smooth="yes"/>
      <point x="258" y="111"/>
      <point x="202" y="44"/>
      <point x="123" y="44" type="curve" smooth="yes"/>
      <point x="46" y="44"/>
      <point x="19" y="107"/>
      <point x="34" y="185" type="curve" smooth="yes"/>
      <point x="51" y="270"/>
      <point x="108" y="338"/>
      <point x="188" y="338" type="curve" smooth="yes"/>
    </contour>
    <contour>
      <point x="232" y="-9"/>
      <point x="316" y="70"/>
      <point x="338" y="186" type="curve" smooth="yes"/>
      <point x="362" y="310"/>
      <point x="311" y="389"/>
      <point x="190" y="389" type="curve" smooth="yes"/>
      <point x="71" y="389"/>
      <point x="-8" y="313"/>
      <point x="-31" y="195" type="curve" smooth="yes"/>
      <point x="-55" y="73"/>
      <point x="-2" y="-9"/>
      <point x="117" y="-9" type="curve" smooth="yes"/>
    </contour>
    <contour>
      <point x="195" y="384" type="move" name="top"/>
    </contour>
  </outline>
</glyph>
<glyph name="p" format="1">
  <advance width="440"/>
  <unicode hex="0070"/>
  <outline>
    <contour>
      <point x="253" y="335"/>
      <point x="281" y="278"/>
      <point x="265" y="194" type="curve" smooth="yes"/>
      <point x="248" y="107"/>
      <point x="190" y="42"/>
      <point x="105" y="42" type="curve" smooth="yes"/>
      <point x="79" y="42"/>
      <point x="51" y="46"/>
      <point x="26" y="59" type="curve"/>
      <point x="79" y="311" type="line"/>
      <point x="109" y="327"/>
      <point x="131" y="335"/>
      <point x="171" y="335" type="curve" smooth="yes"/>
    </contour>
    <contour>
      <point x="20" y="10" type="line"/>
      <point x="48" y="-3"/>
      <point x="78" y="-10"/>
      <point x="111" y="-10" type="curve" smooth="yes"/>
      <point x="223" y="-10"/>
      <point x="310" y="66"/>
      <point x="333" y="191" type="curve" smooth="yes"/>
      <point x="358" y="318"/>
      <point x="282" y="389"/>
      <point x="190" y="389" type="curve" smooth="yes"/>
      <point x="153" y="389"/>
      <point x="115" y="379"/>
      <point x="77" y="356" type="curve"/>
      <point x="71" y="384" type="line"/>
      <point x="26" y="384" type="line"/>
      <point x="-89" y="-208" type="line"/>
      <point x="-24" y="-208" type="line"/>
    </contour>
  </outline>
</glyph>
<glyph name="q" format="1">
  <advance width="441"/>
  <unicode hex="0071"/>
  <outline>
    <contour>
      <point x="289" y="61" type="line"/>
      <point x="259" y="48"/>
      <point x="229" y="42"/>
      <point x="198" y="42" type="curve" smooth="yes"/>
      <point x="118" y="42"/>
      <point x="88" y="103"/>
      <point x="104" y="184" type="curve" smooth="yes"/>
      <point x="121" y="274"/>
      <point x="177" y="335"/>
      <point x="262" y="335" type="curve" smooth="yes"/>
      <point x="299" y="335"/>
      <point x="319" y="329"/>
      <point x="342" y="313" type="curve"/>
    </contour>
    <contour>
      <point x="219" y="-10"/>
      <point x="251" y="-5"/>
      <point x="283" y="8" type="curve"/>
      <point x="239" y="-208" type="line"/>
      <point x="307" y="-208" type="line"/>
      <point x="422" y="383" type="line"/>
      <point x="372" y="383" type="line"/>
      <point x="354" y="354" type="line"/>
      <point x="324" y="377"/>
      <point x="292" y="389"/>
      <point x="252" y="389" type="curve" smooth="yes"/>
      <point x="150" y="389"/>
      <point x="65" y="329"/>
      <point x="40" y="201" type="curve" smooth="yes"/>
      <point x="17" y="79"/>
      <point x="78" y="-10"/>
      <point x="190" y="-10" type="curve" smooth="yes"/>
    </contour>
  </outline>
</glyph>
<glyph name="r" format="1">
  <advance width="293"/>
  <unicode hex="0072"/>
  <outline>
    <contour>
      <point x="152" y="389"/>
      <point x="115" y="378"/>
      <point x="77" y="353" type="curve"/>
      <point x="70" y="384" type="line"/>
      <point x="24" y="384" type="line"/>
      <point x="-51" y="0" type="line"/>
      <point x="14" y="0" type="line"/>
      <point x="75" y="303" type="line"/>
      <point x="107" y="322"/>
      <point x="138" y="332"/>
      <point x="166" y="332" type="curve" smooth="yes"/>
      <point x="185" y="332"/>
      <point x="203" y="329"/>
      <point x="218" y="321" type="curve"/>
      <point x="249" y="377" type="line"/>
      <point x="233" y="385"/>
      <point x="219" y="389"/>
      <point x="187" y="389" type="curve" smooth="yes"/>
    </contour>
    <contour>
      <point x="150" y="384" type="move" name="top"/>
    </contour>
    <contour>
      <point x="-23" y="0" type="move" name="bottom"/>
    </contour>
  </outline>
</glyph>
<glyph name="s" format="1">
  <advance width="370"/>
  <unicode hex="0073"/>
  <outline>
    <contour>
      <point x="37" y="46"/>
      <point x="-6" y="58"/>
      <point x="-41" y="71" type="curve"/>
      <point x="-66" y="21" type="line"/>
      <point x="-33" y="7"/>
      <point x="16" y="-9"/>
      <point x="77" y="-9" type="curve" smooth="yes"/>
      <point x="165" y="-9"/>
      <point x="225" y="38"/>
      <point x="235" y="89" type="curve" smooth="yes"/>
      <point x="247" y="148"/>
      <point x="223" y="177"/>
      <point x="155" y="206" type="curve" smooth="yes"/>
      <point x="96" y="235"/>
      <point x="52" y="244"/>
      <point x="59" y="282" type="curve" smooth="yes"/>
      <point x="66" y="316"/>
      <point x="111" y="335"/>
      <point x="169" y="335" type="curve" smooth="yes"/>
      <point x="204" y="335"/>
      <point x="233" y="325"/>
      <point x="251" y="317" type="curve"/>
      <point x="274" y="366" type="line"/>
      <point x="244" y="380"/>
      <point x="210" y="389"/>
      <point x="165" y="389" type="curve" smooth="yes"/>
      <point x="90" y="389"/>
      <point x="10" y="366"/>
      <point x="-5" y="291" type="curve"/>
      <point x="-18" y="223"/>
      <point x="33" y="198"/>
      <point x="62" y="185" type="curve"/>
      <point x="149" y="144"/>
      <point x="181" y="137"/>
      <point x="174" y="104" type="curve" smooth="yes"/>
      <point x="167" y="64"/>
      <point x="119" y="46"/>
      <point x="75" y="46" type="curve" smooth="yes"/>
    </contour>
    <contour>
      <point x="168" y="384" type="move" name="top"/>
    </contour>
    <contour>
      <point x="82" y="0" type="move" name="bottom"/>
    </contour>
  </outline>
</glyph>
<glyph name="t" format="1">
  <advance width="308"/>
  <unicode hex="0074"/>
  <outline>
    <contour>
      <point x="188" y="-8"/>
      <point x="224" y="-3"/>
      <point x="255" y="8" type="curve"/>
      <point x="248" y="54" type="line"/>
      <point x="231" y="50"/>
      <point x="205" y="47"/>
      <point x="185" y="47" type="curve" smooth="yes"/>
      <point x="137" y="47"/>
      <point x="136" y="71"/>
      <point x="145" y="121" type="curve" smooth="yes"/>
      <point x="183" y="330" type="line"/>
      <point x="289" y="330" type="line"/>
      <point x="300" y="384" type="line"/>
      <point x="194" y="384" type="line"/>
      <point x="213" y="483" type="line"/>
      <point x="147" y="478" type="line"/>
      <point x="129" y="384" type="line"/>
      <point x="54" y="384" type="line"/>
      <point x="43" y="330" type="line"/>
      <point x="118" y="330" type="line"/>
      <point x="77" y="121" type="line" smooth="yes"/>
      <point x="62" y="40"/>
      <point x="81" y="-8"/>
      <point x="163" y="-8" type="curve" smooth="yes"/>
    </contour>
    <contour>
      <point x="166" y="0" type="move" name="bottom"/>
    </contour>
  </outline>
</glyph>
<glyph name="u" format="1">
  <advance width="430"/>
  <unicode hex="0075"/>
  <outline>
    <contour>
      <point x="89" y="384" type="line"/>
      <point x="24" y="384" type="line"/>
      <point x="-27" y="123" type="line" smooth="yes"/>
      <point x="-43" y="43"/>
      <point x="-8" y="-10"/>
      <point x="76" y="-10" type="curve" smooth="yes"/>
      <point x="115" y="-10"/>
      <point x="163" y="2"/>
      <point x="216" y="27" type="curve"/>
      <point x="224" y="0" type="line"/>
      <point x="268" y="0" type="line"/>
      <point x="343" y="384" type="line"/>
      <point x="278" y="384" type="line"/>
      <point x="215" y="74" type="line"/>
      <point x="173" y="56"/>
      <point x="136" y="46"/>
      <point x="103" y="46" type="curve" smooth="yes"/>
      <point x="42" y="46"/>
      <point x="28" y="71"/>
      <point x="40" y="135" type="curve" smooth="yes"/>
    </contour>
    <contour>
      <point x="174" y="384" type="move" name="top"/>
    </contour>
  </outline>
</glyph>
<glyph name="v" format="1">
  <advance width="400"/>
  <unicode hex="0076"/>
  <outline>
    <contour>
      <point x="345" y="384" type="line"/>
      <point x="180" y="83" type="line"/>
      <point x="173" y="63" type="line"/>
      <point x="173" y="83" type="line"/>
      <point x="125" y="384" type="line"/>
      <point x="59" y="384" type="line"/>
      <point x="127" y="0" type="line"/>
      <point x="198" y="0" type="line"/>
      <point x="415" y="384" type="line"/>
    </contour>
  </outline>
</glyph>
<glyph name="w" format="1">
  <advance width="645"/>
  <unicode hex="0077"/>
  <outline>
    <contour>
      <point x="48" y="0" type="line"/>
      <point x="122" y="0" type="line"/>
      <point x="273" y="297" type="line"/>
      <point x="310" y="0" type="line"/>
      <point x="390" y="0" type="line"/>
      <point x="592" y="384" type="line"/>
      <point x="524" y="384" type="line"/>
      <point x="364" y="77" type="line"/>
      <point x="359" y="62" type="line"/>
      <point x="359" y="77" type="line"/>
      <point x="320" y="384" type="line"/>
      <point x="256" y="384" type="line"/>
      <point x="99" y="77" type="line"/>
      <point x="95" y="62" type="line"/>
      <point x="96" y="77" type="line"/>
      <point x="55" y="384" type="line"/>
      <point x="-7" y="384" type="line"/>
    </contour>
  </outline>
</glyph>
<glyph name="x" format="1">
  <advance width="407"/>
  <unicode hex="0078"/>
  <outline>
    <contour>
      <point x="27" y="384" type="line"/>
      <point x="164" y="189" type="line"/>
      <point x="27" y="0" type="line"/>
      <point x="99" y="0" type="line"/>
      <point x="200" y="141" type="line"/>
      <point x="301" y="0" type="line"/>
      <point x="380" y="0" type="line"/>
      <point x="241" y="191" type="line"/>
      <point x="380" y="384" type="line"/>
      <point x="307" y="384" type="line"/>
      <point x="205" y="240" type="line"/>
      <point x="101" y="384" type="line"/>
    </contour>
  </outline>
</glyph>
<glyph name="y" format="1">
  <advance width="415"/>
  <unicode hex="0079"/>
  <outline>
    <contour>
      <point x="179" y="66" type="line"/>
      <point x="123" y="384" type="line"/>
      <point x="59" y="384" type="line"/>
      <point x="132" y="-20" type="line"/>
      <point x="20" y="-206" type="line"/>
      <point x="94" y="-206" type="line"/>
      <point x="428" y="384" type="line"/>
      <point x="359" y="384" type="line"/>
    </contour>
    <contour>
      <point x="226" y="384" type="move" name="top"/>
    </contour>
  </outline>
</glyph>
<glyph name="z" format="1">
  <advance width="385"/>
  <unicode hex="007A"/>
  <outline>
    <contour>
      <point x="4" y="333" type="line"/>
      <point x="209" y="333" type="line"/>
      <point x="-55" y="33" type="line"/>
      <point x="-56" y="0" type="line"/>
      <point x="241" y="0" type="line"/>
      <point x="251" y="49" type="line"/>
      <point x="34" y="49" type="line"/>
      <point x="299" y="350" type="line"/>
      <point x="300" y="384" type="line"/>
      <point x="14" y="384" type="line"/>
    </contour>
    <contour>
      <point x="160" y="384" type="move" name="top"/>
    </contour>
  </outline>
</glyph>
<glyph name="braceleft" format="1">
  <advance width="309"/>
  <unicode hex="007B"/>
  <outline>
    <contour>
      <point x="-23" y="240" type="line"/>
      <point x="27" y="248"/>
      <point x="78" y="288"/>
      <point x="89" y="342" type="curve" smooth="yes"/>
      <point x="103" y="417" type="line" smooth="yes"/>
      <point x="123" y="520"/>
      <point x="203" y="576"/>
      <point x="279" y="586" type="curve"/>
      <point x="279" y="532" type="line"/>
      <point x="211" y="518"/>
      <point x="175" y="496"/>
      <point x="155" y="398" type="curve" smooth="yes"/>
      <point x="144" y="337" type="line" smooth="yes"/>
      <point x="132" y="275"/>
      <point x="86" y="236"/>
      <point x="53" y="217" type="curve"/>
      <point x="82" y="193"/>
      <point x="108" y="156"/>
      <point x="97" y="95" type="curve" smooth="yes"/>
      <point x="85" y="33" type="line" smooth="yes"/>
      <point x="66" y="-64"/>
      <point x="97" y="-88"/>
      <point x="159" y="-103" type="curve"/>
      <point x="129" y="-158" type="line"/>
      <point x="58" y="-148"/>
      <point x="3" y="-97"/>
      <point x="23" y="7" type="curve" smooth="yes"/>
      <point x="38" y="82" type="line" smooth="yes"/>
      <point x="49" y="136"/>
      <point x="10" y="180"/>
      <point x="-37" y="188" type="curve"/>
    </contour>
  </outline>
</glyph>
<glyph name="bar" format="1">
  <advance width="300"/>
  <unicode hex="007C"/>
  <outline>
    <contour>
      <point x="180" y="622" type="line"/>
      <point x="180" y="-179" type="line"/>
    </contour>
    <contour>
      <point x="180" y="622" type="line"/>
      <point x="180" y="-179" type="line"/>
      <point x="120" y="-179" type="line"/>
      <point x="120" y="622" type="line"/>
    </contour>
  </outline>
</glyph>
<glyph name="braceright" format="1">
  <advance width="309"/>
  <unicode hex="007D"/>
  <outline>
    <contour>
      <point x="149" y="179"/>
      <point x="101" y="142"/>
      <point x="90" y="86" type="curve" smooth="yes"/>
      <point x="75" y="11" type="line" smooth="yes"/>
      <point x="55" y="-93"/>
      <point x="-25" y="-148"/>
      <point x="-101" y="-158" type="curve"/>
      <point x="-100" y="-105" type="line"/>
      <point x="-32" y="-90"/>
      <point x="4" y="-68"/>
      <point x="23" y="29" type="curve" smooth="yes"/>
      <point x="35" y="91" type="line" smooth="yes"/>
      <point x="47" y="152"/>
      <point x="92" y="191"/>
      <point x="125" y="211" type="curve"/>
      <point x="97" y="234"/>
      <point x="70" y="271"/>
      <point x="82" y="333" type="curve" smooth="yes"/>
      <point x="94" y="394" type="line" smooth="yes"/>
      <point x="113" y="492"/>
      <point x="81" y="516"/>
      <point x="19" y="530" type="curve"/>
      <point x="49" y="586" type="line"/>
      <point x="120" y="576"/>
      <point x="175" y="524"/>
      <point x="155" y="421" type="curve" smooth="yes"/>
      <point x="140" y="346" type="line" smooth="yes"/>
      <point x="130" y="292"/>
      <point x="168" y="248"/>
      <point x="216" y="240" type="curve"/>
      <point x="201" y="187" type="line"/>
    </contour>
  </outline>
</glyph>
<glyph name="asciitilde" format="1">
  <advance width="378"/>
  <unicode hex="007E"/>
  <outline>
    <contour>
      <point x="161" y="536"/>
      <point x="127" y="506"/>
      <point x="107" y="459" type="curve"/>
      <point x="150" y="440" type="line"/>
      <point x="163" y="467"/>
      <point x="177" y="486"/>
      <point x="198" y="486" type="curve" smooth="yes"/>
      <point x="224" y="486"/>
      <point x="241" y="443"/>
      <point x="289" y="443" type="curve" smooth="yes"/>
      <point x="334" y="443"/>
      <point x="369" y="474"/>
      <point x="387" y="519" type="curve"/>
      <point x="344" y="538" type="line"/>
      <point x="331" y="510"/>
      <point x="317" y="491"/>
      <point x="293" y="491" type="curve" smooth="yes"/>
      <point x="266" y="491"/>
      <point x="242" y="536"/>
      <point x="202" y="536" type="curve" smooth="yes"/>
    </contour>
  </outline>
</glyph>
<glyph name="exclamdown" format="1">
  <advance width="176"/>
  <unicode hex="00A1"/>
  <outline>
    <contour>
      <point x="25" y="-49" type="line"/>
      <point x="94" y="354" type="line"/>
      <point x="45" y="354" type="line"/>
      <point x="-42" y="-49" type="line"/>
    </contour>
    <contour>
      <point x="68" y="483"/>
      <point x="54" y="470"/>
      <point x="51" y="450" type="curve" smooth="yes"/>
      <point x="46" y="425"/>
      <point x="57" y="407"/>
      <point x="84" y="407" type="curve" smooth="yes"/>
      <point x="107" y="407"/>
      <point x="121" y="421"/>
      <point x="125" y="440" type="curve" smooth="yes"/>
      <point x="130" y="466"/>
      <point x="117" y="483"/>
      <point x="91" y="483" type="curve" smooth="yes"/>
    </contour>
  </outline>
</glyph>
<glyph name="cent" format="1">
  <advance width="405"/>
  <unicode hex="00A2"/>
  <outline>
    <contour>
      <point x="152" y="-50" type="line"/>
      <point x="200" y="-50" type="line"/>
      <point x="218" y="49" type="line"/>
      <point x="170" y="49" type="line"/>
    </contour>
    <contour>
      <point x="252" y="415" type="line"/>
      <point x="300" y="415" type="line"/>
      <point x="320" y="514" type="line"/>
      <point x="272" y="514" type="line"/>
    </contour>
    <component base="c" xOffset="29" yOffset="50"/>
  </outline>
</glyph>
<glyph name="sterling" format="1">
  <advance width="460"/>
  <unicode hex="00A3"/>
  <outline>
    <contour>
      <point x="110" y="52" type="line"/>
      <point x="140" y="206" type="line"/>
      <point x="72" y="206" type="line"/>
      <point x="82" y="259" type="line"/>
      <point x="150" y="259" type="line"/>
      <point x="153" y="274" type="line" smooth="yes"/>
      <point x="178" y="402"/>
      <point x="237" y="467"/>
      <point x="375" y="467" type="curve" smooth="yes"/>
      <point x="403" y="467"/>
      <point x="432" y="461"/>
      <point x="460" y="453" type="curve"/>
      <point x="428" y="405" type="line"/>
      <point x="405" y="410"/>
      <point x="387" y="412"/>
      <point x="362" y="412" type="curve" smooth="yes"/>
      <point x="303" y="412"/>
      <point x="238" y="390"/>
      <point x="223" y="304" type="curve"/>
      <point x="214" y="259" type="line"/>
      <point x="401" y="259" type="line"/>
      <point x="391" y="206" type="line"/>
      <point x="204" y="206" type="line"/>
      <point x="174" y="52" type="line"/>
      <point x="383" y="52" type="line"/>
      <point x="373" y="0" type="line"/>
      <point x="23" y="0" type="line"/>
      <point x="33" y="52" type="line"/>
    </contour>
  </outline>
</glyph>
<glyph name="yen" format="1">
  <advance width="449"/>
  <unicode hex="00A5"/>
  <outline>
    <contour>
      <point x="356" y="185" type="line"/>
      <point x="253" y="185" type="line"/>
      <point x="241" y="121" type="line"/>
      <point x="344" y="121" type="line"/>
      <point x="335" y="74" type="line"/>
      <point x="231" y="74" type="line"/>
      <point x="217" y="0" type="line"/>
      <point x="151" y="0" type="line"/>
      <point x="165" y="74" type="line"/>
      <point x="64" y="74" type="line"/>
      <point x="74" y="121" type="line"/>
      <point x="175" y="121" type="line"/>
      <point x="187" y="185" type="line"/>
      <point x="86" y="185" type="line"/>
      <point x="96" y="234" type="line"/>
      <point x="194" y="234" type="line"/>
      <point x="101" y="456" type="line"/>
      <point x="162" y="456" type="line"/>
      <point x="237" y="279" type="line"/>
      <point x="380" y="456" type="line"/>
      <point x="450" y="456" type="line"/>
      <point x="265" y="234" type="line"/>
      <point x="366" y="234" type="line"/>
    </contour>
  </outline>
</glyph>
<glyph name="section" format="1">
  <advance width="426"/>
  <unicode hex="00A7"/>
  <outline>
    <contour>
      <point x="192" y="493"/>
      <point x="138" y="480"/>
      <point x="138" y="435" type="curve" smooth="yes"/>
      <point x="138" y="404"/>
      <point x="173" y="387"/>
      <point x="199" y="379" type="curve" smooth="yes"/>
      <point x="234" y="368"/>
      <point x="277" y="353"/>
      <point x="310" y="338" type="curve" smooth="yes"/>
      <point x="341" y="323"/>
      <point x="371" y="295"/>
      <point x="371" y="254" type="curve" smooth="yes"/>
      <point x="371" y="222"/>
      <point x="360" y="195"/>
      <point x="339" y="174" type="curve"/>
      <point x="356" y="157"/>
      <point x="371" y="135"/>
      <point x="371" y="101" type="curve" smooth="yes"/>
      <point x="371" y="22"/>
      <point x="292" y="-9"/>
      <point x="197" y="-9" type="curve" smooth="yes"/>
      <point x="145" y="-9"/>
      <point x="98" y="1"/>
      <point x="55" y="18" type="curve"/>
      <point x="76" y="69" type="line"/>
      <point x="120" y="52"/>
      <point x="158" y="45"/>
      <point x="193" y="45" type="curve" smooth="yes"/>
      <point x="254" y="45"/>
      <point x="298" y="55"/>
      <point x="298" y="101" type="curve" smooth="yes"/>
      <point x="298" y="144"/>
      <point x="252" y="149"/>
      <point x="209" y="165" type="curve"/>
      <point x="174" y="176"/>
      <point x="141" y="187"/>
      <point x="114" y="202" type="curve" smooth="yes"/>
      <point x="84" y="219"/>
      <point x="69" y="246"/>
      <point x="69" y="282" type="curve" smooth="yes"/>
      <point x="69" y="311"/>
      <point x="80" y="336"/>
      <point x="102" y="357" type="curve"/>
      <point x="83" y="374"/>
      <point x="70" y="398"/>
      <point x="70" y="427" type="curve" smooth="yes"/>
      <point x="70" y="505"/>
      <point x="140" y="546"/>
      <point x="231" y="546" type="curve" smooth="yes"/>
      <point x="289" y="546"/>
      <point x="321" y="536"/>
      <point x="350" y="527" type="curve"/>
      <point x="332" y="478" type="line"/>
      <point x="301" y="486"/>
      <point x="270" y="493"/>
      <point x="239" y="493" type="curve" smooth="yes"/>
    </contour>
    <contour>
      <point x="136" y="267"/>
      <point x="151" y="257"/>
      <point x="170" y="246" type="curve"/>
      <point x="195" y="234"/>
      <point x="276" y="207"/>
      <point x="281" y="206" type="curve"/>
      <point x="292" y="216"/>
      <point x="298" y="229"/>
      <point x="298" y="246" type="curve" smooth="yes"/>
      <point x="298" y="272"/>
      <point x="273" y="292"/>
      <point x="223" y="306" type="curve"/>
      <point x="158" y="327" type="line"/>
      <point x="145" y="320"/>
      <point x="136" y="307"/>
      <point x="136" y="294" type="curve" smooth="yes"/>
    </contour>
  </outline>
</glyph>
<glyph name="dieresis" format="1">
  <advance width="212"/>
  <unicode hex="00A8"/>
  <outline>
    <contour>
      <point x="42" y="465"/>
      <point x="60" y="480"/>
      <point x="64" y="497" type="curve" smooth="yes"/>
      <point x="68" y="520"/>
      <point x="53" y="539"/>
      <point x="31" y="539" type="curve" smooth="yes"/>
      <point x="13" y="539"/>
      <point x="-5" y="524"/>
      <point x="-8" y="507" type="curve" smooth="yes"/>
      <point x="-13" y="484"/>
      <point x="2" y="465"/>
      <point x="24" y="465" type="curve" smooth="yes"/>
    </contour>
    <contour>
      <point x="180" y="465"/>
      <point x="198" y="480"/>
      <point x="202" y="497" type="curve" smooth="yes"/>
      <point x="206" y="520"/>
      <point x="191" y="539"/>
      <point x="169" y="539" type="curve" smooth="yes"/>
      <point x="151" y="539"/>
      <point x="133" y="524"/>
      <point x="130" y="507" type="curve" smooth="yes"/>
      <point x="125" y="484"/>
      <point x="140" y="465"/>
      <point x="162" y="465" type="curve" smooth="yes"/>
    </contour>
    <contour>
      <point x="74" y="384" type="move" name="_top"/>
    </contour>
  </outline>
</glyph>
<glyph name="ordfeminine" format="1">
  <advance width="265"/>
  <unicode hex="00AA"/>
  <outline>
    <contour>
      <point x="164" y="505"/>
      <point x="139" y="500"/>
      <point x="115" y="493" type="curve"/>
      <point x="115" y="529" type="line"/>
      <point x="141" y="538"/>
      <point x="168" y="544"/>
      <point x="193" y="544" type="curve" smooth="yes"/>
      <point x="249" y="544"/>
      <point x="283" y="511"/>
      <point x="272" y="448" type="curve" smooth="yes"/>
      <point x="248" y="312" type="line"/>
      <point x="216" y="312" type="line"/>
      <point x="211" y="334" type="line"/>
      <point x="187" y="316"/>
      <point x="161" y="306"/>
      <point x="136" y="306" type="curve" smooth="yes"/>
      <point x="101" y="306"/>
      <point x="75" y="329"/>
      <point x="75" y="363" type="curve" smooth="yes"/>
      <point x="75" y="418"/>
      <point x="103" y="449"/>
      <point x="228" y="445" type="curve" smooth="yes"/>
      <point x="235" y="482"/>
      <point x="227" y="505"/>
      <point x="180" y="505" type="curve" smooth="yes"/>
    </contour>
    <contour>
      <point x="176" y="344"/>
      <point x="196" y="352"/>
      <point x="215" y="368" type="curve"/>
      <point x="221" y="411" type="line"/>
      <point x="188" y="411" type="line"/>
      <point x="156" y="411"/>
      <point x="127" y="404"/>
      <point x="123" y="384" type="curve" smooth="yes"/>
      <point x="119" y="361"/>
      <point x="129" y="344"/>
      <point x="151" y="344" type="curve" smooth="yes"/>
    </contour>
  </outline>
</glyph>
<glyph name="logicalnot" format="1">
  <advance width="482"/>
  <unicode hex="00AC"/>
  <outline>
    <contour>
      <point x="427" y="238" type="line"/>
      <point x="427" y="72" type="line"/>
      <point x="377" y="72" type="line"/>
      <point x="377" y="190" type="line"/>
      <point x="55" y="190" type="line"/>
      <point x="55" y="238" type="line"/>
    </contour>
  </outline>
</glyph>
<glyph name="registered" format="1">
  <advance width="551"/>
  <unicode hex="00AE"/>
  <outline>
    <contour>
      <point x="359" y="416"/>
      <point x="344" y="398"/>
      <point x="317" y="388" type="curve"/>
      <point x="360" y="300" type="line"/>
      <point x="321" y="300" type="line"/>
      <point x="283" y="381" type="line"/>
      <point x="239" y="381" type="line"/>
      <point x="239" y="300" type="line"/>
      <point x="203" y="300" type="line"/>
      <point x="203" y="513" type="line"/>
      <point x="285" y="513" type="line"/>
      <point x="288" y="513" type="line" smooth="yes"/>
      <point x="328" y="513"/>
      <point x="359" y="488"/>
      <point x="359" y="448" type="curve" smooth="yes"/>
    </contour>
    <contour>
      <point x="481" y="344"/>
      <point x="458" y="294"/>
      <point x="421" y="259" type="curve" smooth="yes"/>
      <point x="384" y="223"/>
      <point x="333" y="204"/>
      <point x="276" y="204" type="curve" smooth="yes"/>
      <point x="217" y="204"/>
      <point x="166" y="223"/>
      <point x="130" y="259" type="curve" smooth="yes"/>
      <point x="93" y="294"/>
      <point x="70" y="344"/>
      <point x="70" y="405" type="curve" smooth="yes"/>
      <point x="70" y="465"/>
      <point x="93" y="515"/>
      <point x="130" y="551" type="curve" smooth="yes"/>
      <point x="166" y="586"/>
      <point x="217" y="605"/>
      <point x="276" y="605" type="curve" smooth="yes"/>
      <point x="333" y="605"/>
      <point x="384" y="586"/>
      <point x="421" y="551" type="curve" smooth="yes"/>
      <point x="458" y="515"/>
      <point x="481" y="465"/>
      <point x="481" y="405" type="curve" smooth="yes"/>
    </contour>
    <contour>
      <point x="325" y="467"/>
      <point x="312" y="480"/>
      <point x="287" y="480" type="curve" smooth="yes"/>
      <point x="239" y="480" type="line"/>
      <point x="239" y="410" type="line"/>
      <point x="251" y="410" type="line"/>
      <point x="277" y="410" type="line" smooth="yes"/>
      <point x="300" y="410"/>
      <point x="325" y="419"/>
      <point x="325" y="447" type="curve" smooth="yes"/>
    </contour>
    <contour>
      <point x="437" y="454"/>
      <point x="420" y="494"/>
      <point x="392" y="522" type="curve" smooth="yes"/>
      <point x="364" y="549"/>
      <point x="324" y="563"/>
      <point x="276" y="563" type="curve" smooth="yes"/>
      <point x="228" y="563"/>
      <point x="188" y="549"/>
      <point x="160" y="522" type="curve" smooth="yes"/>
      <point x="132" y="494"/>
      <point x="115" y="454"/>
      <point x="115" y="405" type="curve" smooth="yes"/>
      <point x="115" y="304"/>
      <point x="180" y="245"/>
      <point x="276" y="245" type="curve" smooth="yes"/>
      <point x="372" y="245"/>
      <point x="437" y="304"/>
      <point x="437" y="405" type="curve" smooth="yes"/>
    </contour>
  </outline>
</glyph>
<glyph name="macron" format="1">
  <advance width="217"/>
  <unicode hex="00AF"/>
  <outline>
    <contour>
      <point x="-11" y="466" type="line"/>
      <point x="196" y="466" type="line"/>
      <point x="206" y="518" type="line"/>
      <point x="-1" y="518" type="line"/>
    </contour>
    <contour>
      <point x="78" y="384" type="move" name="_top"/>
    </contour>
  </outline>
</glyph>
<glyph name="degree" format="1">
  <advance width="234"/>
  <unicode hex="00B0"/>
  <outline>
    <contour>
      <point x="177" y="324"/>
      <point x="209" y="360"/>
      <point x="209" y="393" type="curve" smooth="yes"/>
      <point x="209" y="420"/>
      <point x="196" y="434"/>
      <point x="170" y="434" type="curve" smooth="yes"/>
      <point x="130" y="434"/>
      <point x="98" y="398"/>
      <point x="98" y="365" type="curve" smooth="yes"/>
      <point x="98" y="338"/>
      <point x="111" y="324"/>
      <point x="137" y="324" type="curve" smooth="yes"/>
    </contour>
    <contour>
      <point x="78" y="276"/>
      <point x="49" y="309"/>
      <point x="49" y="360" type="curve" smooth="yes"/>
      <point x="49" y="408"/>
      <point x="90" y="482"/>
      <point x="177" y="482" type="curve" smooth="yes"/>
      <point x="228" y="482"/>
      <point x="257" y="449"/>
      <point x="257" y="398" type="curve" smooth="yes"/>
      <point x="257" y="350"/>
      <point x="216" y="276"/>
      <point x="129" y="276" type="curve" smooth="yes"/>
    </contour>
  </outline>
</glyph>
<glyph name="acute" format="1">
  <advance width="193"/>
  <unicode hex="00B4"/>
  <outline>
    <contour>
      <point x="15" y="427" type="line"/>
      <point x="188" y="550" type="line"/>
      <point x="156" y="596" type="line"/>
      <point x="-14" y="468" type="line"/>
    </contour>
    <contour>
      <point x="73" y="384" type="move" name="_top"/>
    </contour>
  </outline>
</glyph>
<glyph name="micro" format="1">
  <advance width="430"/>
  <unicode hex="00B5"/>
  <outline>
    <contour>
      <point x="159" y="384" type="line"/>
      <point x="116" y="166" type="line" smooth="yes"/>
      <point x="101" y="91"/>
      <point x="115" y="44"/>
      <point x="189" y="44" type="curve" smooth="yes"/>
      <point x="210" y="44"/>
      <point x="246" y="56"/>
      <point x="291" y="76" type="curve"/>
      <point x="349" y="384" type="line"/>
      <point x="412" y="384" type="line"/>
      <point x="337" y="0" type="line"/>
      <point x="292" y="0" type="line"/>
      <point x="283" y="28" type="line"/>
      <point x="242" y="8"/>
      <point x="199" y="-10"/>
      <point x="162" y="-10" type="curve" smooth="yes"/>
      <point x="123" y="-10"/>
      <point x="103" y="4"/>
      <point x="86" y="19" type="curve"/>
      <point x="53" y="-159" type="line"/>
      <point x="-10" y="-159" type="line"/>
      <point x="96" y="384" type="line"/>
    </contour>
  </outline>
</glyph>
<glyph name="paragraph" format="1">
  <advance width="495"/>
  <unicode hex="00B6"/>
  <outline>
    <contour>
      <point x="427" y="586" type="line"/>
      <point x="427" y="0" type="line"/>
      <point x="361" y="0" type="line"/>
      <point x="361" y="528" type="line"/>
      <point x="268" y="528" type="line"/>
      <point x="268" y="0" type="line"/>
      <point x="201" y="0" type="line"/>
      <point x="200" y="266" type="line"/>
      <point x="104" y="269"/>
      <point x="31" y="331"/>
      <point x="31" y="429" type="curve" smooth="yes"/>
      <point x="31" y="544"/>
      <point x="122" y="586"/>
      <point x="228" y="586" type="curve" smooth="yes"/>
    </contour>
  </outline>
</glyph>
<glyph name="periodcentered" format="1">
  <advance width="229"/>
  <unicode hex="00B7"/>
  <outline>
    <contour>
      <point x="83" y="235"/>
      <point x="107" y="255"/>
      <point x="112" y="280" type="curve" smooth="yes"/>
      <point x="117" y="310"/>
      <point x="98" y="334"/>
      <point x="69" y="334" type="curve" smooth="yes"/>
      <point x="43" y="334"/>
      <point x="19" y="314"/>
      <point x="14" y="290" type="curve" smooth="yes"/>
      <point x="8" y="259"/>
      <point x="28" y="235"/>
      <point x="58" y="235" type="curve" smooth="yes"/>
    </contour>
  </outline>
</glyph>
<glyph name="onesuperior" format="1">
  <advance width="179"/>
  <unicode hex="00B9"/>
  <outline>
    <contour>
      <point x="97" y="276" type="line"/>
      <point x="47" y="276" type="line"/>
      <point x="94" y="535" type="line"/>
      <point x="34" y="520" type="line"/>
      <point x="23" y="560" type="line"/>
      <point x="113" y="587" type="line"/>
      <point x="157" y="587" type="line"/>
    </contour>
  </outline>
</glyph>
<glyph name="ordmasculine" format="1">
  <advance width="300"/>
  <unicode hex="00BA"/>
  <outline>
    <contour>
      <point x="111" y="506"/>
      <point x="85" y="474"/>
      <point x="85" y="425" type="curve" smooth="yes"/>
      <point x="85" y="376"/>
      <point x="111" y="344"/>
      <point x="150" y="344" type="curve" smooth="yes"/>
      <point x="189" y="344"/>
      <point x="215" y="374"/>
      <point x="215" y="425" type="curve" smooth="yes"/>
      <point x="215" y="474"/>
      <point x="189" y="506"/>
      <point x="150" y="506" type="curve" smooth="yes"/>
    </contour>
    <contour>
      <point x="78" y="307"/>
      <point x="40" y="353"/>
      <point x="40" y="425" type="curve" smooth="yes"/>
      <point x="40" y="497"/>
      <point x="81" y="543"/>
      <point x="150" y="543" type="curve" smooth="yes"/>
      <point x="221" y="543"/>
      <point x="260" y="497"/>
      <point x="260" y="425" type="curve" smooth="yes"/>
      <point x="260" y="353"/>
      <point x="220" y="307"/>
      <point x="149" y="307" type="curve" smooth="yes"/>
    </contour>
  </outline>
</glyph>
<glyph name="onehalf" format="1">
  <advance width="690"/>
  <unicode hex="00BD"/>
  <outline>
    <contour>
      <point x="527" y="550" type="line"/>
      <point x="61" y="0" type="line"/>
      <point x="-6" y="0" type="line"/>
      <point x="461" y="550" type="line"/>
    </contour>
    <contour>
      <point x="115" y="239" type="line"/>
      <point x="65" y="239" type="line"/>
      <point x="112" y="498" type="line"/>
      <point x="52" y="483" type="line"/>
      <point x="41" y="523" type="line"/>
      <point x="131" y="550" type="line"/>
      <point x="175" y="550" type="line"/>
    </contour>
    <contour>
      <point x="375" y="290" type="line"/>
      <point x="402" y="300"/>
      <point x="434" y="312"/>
      <point x="471" y="312" type="curve" smooth="yes"/>
      <point x="527" y="312"/>
      <point x="567" y="291"/>
      <point x="567" y="229" type="curve" smooth="yes"/>
      <point x="567" y="180"/>
      <point x="526" y="131"/>
      <point x="424" y="46" type="curve"/>
      <point x="542" y="46" type="line"/>
      <point x="532" y="0" type="line"/>
      <point x="335" y="0" type="line"/>
      <point x="335" y="32" type="line"/>
      <point x="424" y="107" type="line"/>
      <point x="475" y="150"/>
      <point x="505" y="181"/>
      <point x="511" y="209" type="curve" smooth="yes"/>
      <point x="516" y="237"/>
      <point x="511" y="263"/>
      <point x="464" y="263" type="curve" smooth="yes"/>
      <point x="441" y="263"/>
      <point x="407" y="253"/>
      <point x="378" y="242" type="curve"/>
    </contour>
  </outline>
</glyph>
<glyph name="threequarters" format="1">
  <advance width="721"/>
  <unicode hex="00BE"/>
  <outline>
    <contour>
      <point x="202" y="556"/>
      <point x="234" y="528"/>
      <point x="234" y="486" type="curve" smooth="yes"/>
      <point x="234" y="452"/>
      <point x="215" y="421"/>
      <point x="185" y="398" type="curve"/>
      <point x="210" y="383"/>
      <point x="221" y="363"/>
      <point x="221" y="335" type="curve" smooth="yes"/>
      <point x="221" y="286"/>
      <point x="193" y="233"/>
      <point x="89" y="233" type="curve" smooth="yes"/>
      <point x="51" y="233"/>
      <point x="18" y="246"/>
      <point x="0" y="254" type="curve"/>
      <point x="23" y="295" type="line"/>
      <point x="53" y="285"/>
      <point x="73" y="278"/>
      <point x="92" y="278" type="curve" smooth="yes"/>
      <point x="154" y="278"/>
      <point x="171" y="305"/>
      <point x="171" y="336" type="curve" smooth="yes"/>
      <point x="171" y="366"/>
      <point x="144" y="376"/>
      <point x="94" y="376" type="curve" smooth="yes"/>
      <point x="85" y="376" type="line"/>
      <point x="93" y="418" type="line"/>
      <point x="102" y="418" type="line" smooth="yes"/>
      <point x="173" y="418"/>
      <point x="186" y="447"/>
      <point x="186" y="473" type="curve" smooth="yes"/>
      <point x="186" y="501"/>
      <point x="167" y="510"/>
      <point x="139" y="510" type="curve" smooth="yes"/>
      <point x="121" y="510"/>
      <point x="97" y="505"/>
      <point x="67" y="497" type="curve"/>
      <point x="59" y="541" type="line"/>
      <point x="95" y="551"/>
      <point x="114" y="556"/>
      <point x="151" y="556" type="curve" smooth="yes"/>
    </contour>
    <contour>
      <point x="576" y="550" type="line"/>
      <point x="110" y="0" type="line"/>
      <point x="43" y="0" type="line"/>
      <point x="510" y="550" type="line"/>
    </contour>
    <contour>
      <point x="529" y="113" type="line"/>
      <point x="577" y="113" type="line"/>
      <point x="568" y="66" type="line"/>
      <point x="518" y="66" type="line"/>
      <point x="505" y="0" type="line"/>
      <point x="456" y="0" type="line"/>
      <point x="469" y="66" type="line"/>
      <point x="324" y="66" type="line"/>
      <point x="328" y="107" type="line"/>
      <point x="506" y="309" type="line"/>
      <point x="567" y="309" type="line"/>
    </contour>
    <contour>
      <point x="506" y="240" type="line"/>
      <point x="393" y="113" type="line"/>
      <point x="478" y="113" type="line"/>
    </contour>
  </outline>
</glyph>
<glyph name="questiondown" format="1">
  <advance width="395"/>
  <unicode hex="00BF"/>
  <outline>
    <contour>
      <point x="206" y="483"/>
      <point x="191" y="469"/>
      <point x="188" y="450" type="curve" smooth="yes"/>
      <point x="183" y="425"/>
      <point x="194" y="407"/>
      <point x="221" y="407" type="curve" smooth="yes"/>
      <point x="244" y="407"/>
      <point x="258" y="421"/>
      <point x="262" y="440" type="curve" smooth="yes"/>
      <point x="266" y="465"/>
      <point x="255" y="483"/>
      <point x="228" y="483" type="curve" smooth="yes"/>
    </contour>
    <contour>
      <point x="170" y="-55"/>
      <point x="217" y="-38"/>
      <point x="256" y="-22" type="curve"/>
      <point x="242" y="34" type="line"/>
      <point x="208" y="19"/>
      <point x="171" y="3"/>
      <point x="115" y="3" type="curve" smooth="yes"/>
      <point x="58" y="3"/>
      <point x="29" y="26"/>
      <point x="39" y="77" type="curve" smooth="yes"/>
      <point x="52" y="142"/>
      <point x="129" y="179"/>
      <point x="183" y="229" type="curve"/>
      <point x="219" y="271"/>
      <point x="231" y="319"/>
      <point x="237" y="349" type="curve"/>
      <point x="175" y="353" type="line"/>
      <point x="161" y="280"/>
      <point x="130" y="261"/>
      <point x="73" y="217" type="curve"/>
      <point x="30" y="180"/>
      <point x="-9" y="146"/>
      <point x="-21" y="82" type="curve" smooth="yes"/>
      <point x="-39" y="-10"/>
      <point x="23" y="-55"/>
      <point x="107" y="-55" type="curve" smooth="yes"/>
    </contour>
  </outline>
</glyph>
<glyph name="Aring" format="1">
  <advance width="488"/>
  <unicode hex="00C5"/>
  <outline>
    <contour>
      <point x="283" y="539" type="line"/>
      <point x="319" y="556"/>
      <point x="346" y="587"/>
      <point x="353" y="622" type="curve" smooth="yes"/>
      <point x="364" y="679"/>
      <point x="324" y="727"/>
      <point x="266" y="727" type="curve" smooth="yes"/>
      <point x="211" y="727"/>
      <point x="159" y="683"/>
      <point x="149" y="632" type="curve" smooth="yes"/>
      <point x="141" y="591"/>
      <point x="160" y="556"/>
      <point x="190" y="539" type="curve"/>
      <point x="-99" y="0" type="line"/>
      <point x="-23" y="0" type="line"/>
      <point x="60" y="161" type="line"/>
      <point x="270" y="161" type="line"/>
      <point x="291" y="0" type="line"/>
      <point x="363" y="0" type="line"/>
    </contour>
    <contour>
      <point x="199" y="658"/>
      <point x="228" y="684"/>
      <point x="265" y="684" type="curve" smooth="yes"/>
      <point x="295" y="684"/>
      <point x="315" y="660"/>
      <point x="309" y="632" type="curve" smooth="yes"/>
      <point x="302" y="598"/>
      <point x="269" y="570"/>
      <point x="234" y="570" type="curve" smooth="yes"/>
      <point x="202" y="570"/>
      <point x="186" y="593"/>
      <point x="192" y="622" type="curve" smooth="yes"/>
    </contour>
    <contour>
      <point x="90" y="218" type="line"/>
      <point x="227" y="481" type="line"/>
      <point x="262" y="218" type="line"/>
    </contour>
  </outline>
</glyph>
<glyph name="AE" format="1">
  <advance width="687"/>
  <unicode hex="00C6"/>
  <outline>
    <contour>
      <point x="301" y="550" type="line"/>
      <point x="-21" y="0" type="line"/>
      <point x="45" y="0" type="line"/>
      <point x="137" y="161" type="line"/>
      <point x="328" y="161" type="line"/>
      <point x="297" y="0" type="line"/>
      <point x="598" y="0" type="line"/>
      <point x="609" y="58" type="line"/>
      <point x="369" y="58" type="line"/>
      <point x="408" y="256" type="line"/>
      <point x="627" y="256" type="line"/>
      <point x="638" y="313" type="line"/>
      <point x="419" y="313" type="line"/>
      <point x="454" y="494" type="line"/>
      <point x="694" y="494" type="line"/>
      <point x="705" y="550" type="line"/>
    </contour>
    <contour>
      <point x="171" y="218" type="line"/>
      <point x="331" y="494" type="line"/>
      <point x="393" y="494" type="line"/>
      <point x="339" y="218" type="line"/>
    </contour>
  </outline>
</glyph>
<glyph name="Ccedilla" format="1">
  <advance width="516"/>
  <unicode hex="00C7"/>
  <outline>
    <contour>
      <point x="273" y="-171"/>
      <point x="251" y="-166"/>
      <point x="217" y="-157" type="curve"/>
      <point x="205" y="-153" type="line"/>
      <point x="189" y="-206" type="line"/>
      <point x="228" y="-217"/>
      <point x="258" y="-226"/>
      <point x="292" y="-226" type="curve" smooth="yes"/>
      <point x="345" y="-226"/>
      <point x="384" y="-190"/>
      <point x="384" y="-145" type="curve" smooth="yes"/>
      <point x="384" y="-82"/>
      <point x="335" y="-65"/>
      <point x="300" y="-55" type="curve"/>
      <point x="288" y="-52" type="line"/>
      <point x="298" y="-8" type="line"/>
      <point x="306" y="-9"/>
      <point x="313" y="-9"/>
      <point x="320" y="-9" type="curve" smooth="yes"/>
      <point x="384" y="-9"/>
      <point x="438" y="3"/>
      <point x="486" y="27" type="curve"/>
      <point x="470" y="79" type="line"/>
      <point x="427" y="62"/>
      <point x="385" y="52"/>
      <point x="340" y="52" type="curve" smooth="yes"/>
      <point x="297" y="52"/>
      <point x="258" y="62"/>
      <point x="225" y="81" type="curve" smooth="yes"/>
      <point x="162" y="117"/>
      <point x="119" y="184"/>
      <point x="119" y="277" type="curve" smooth="yes"/>
      <point x="119" y="341"/>
      <point x="139" y="393"/>
      <point x="177" y="435" type="curve" smooth="yes"/>
      <point x="208" y="468"/>
      <point x="264" y="498"/>
      <point x="326" y="498" type="curve" smooth="yes"/>
      <point x="388" y="498"/>
      <point x="410" y="493"/>
      <point x="462" y="475" type="curve"/>
      <point x="479" y="529" type="line"/>
      <point x="427" y="549"/>
      <point x="387" y="558"/>
      <point x="314" y="558" type="curve" smooth="yes"/>
      <point x="233" y="558"/>
      <point x="162" y="522"/>
      <point x="121" y="478" type="curve" smooth="yes"/>
      <point x="78" y="434"/>
      <point x="44" y="363"/>
      <point x="44" y="276" type="curve" smooth="yes"/>
      <point x="44" y="192"/>
      <point x="69" y="123"/>
      <point x="119" y="71" type="curve" smooth="yes"/>
      <point x="149" y="41"/>
      <point x="189" y="14"/>
      <point x="240" y="2" type="curve"/>
      <point x="219" y="-91" type="line"/>
      <point x="284" y="-106" type="line" smooth="yes"/>
      <point x="310" y="-112"/>
      <point x="326" y="-121"/>
      <point x="326" y="-142" type="curve" smooth="yes"/>
      <point x="326" y="-164"/>
      <point x="308" y="-174"/>
      <point x="284" y="-172" type="curve" smooth="yes"/>
    </contour>
  </outline>
</glyph>
<glyph name="Eth" format="1">
  <advance width="594"/>
  <unicode hex="00D0"/>
  <outline>
    <contour>
      <point x="342" y="308" type="line"/>
      <point x="331" y="256" type="line"/>
      <point x="26" y="256" type="line"/>
      <point x="36" y="308" type="line"/>
    </contour>
    <component base="D" xOffset="36"/>
  </outline>
</glyph>
<glyph name="multiply" format="1">
  <advance width="436"/>
  <unicode hex="00D7"/>
  <outline>
    <contour>
      <point x="312" y="80" type="line"/>
      <point x="215" y="177" type="line"/>
      <point x="119" y="80" type="line"/>
      <point x="80" y="120" type="line"/>
      <point x="175" y="217" type="line"/>
      <point x="81" y="312" type="line"/>
      <point x="123" y="355" type="line"/>
      <point x="220" y="260" type="line"/>
      <point x="315" y="356" type="line"/>
      <point x="356" y="317" type="line"/>
      <point x="259" y="220" type="line"/>
      <point x="355" y="123" type="line"/>
    </contour>
  </outline>
</glyph>
<glyph name="Oslash" format="1">
  <advance width="647"/>
  <unicode hex="00D8"/>
  <outline>
    <contour>
      <point x="531" y="481"/>
      <point x="427" y="557"/>
      <point x="315" y="557" type="curve" smooth="yes"/>
      <point x="184" y="557"/>
      <point x="9" y="455"/>
      <point x="9" y="223" type="curve"/>
      <point x="9" y="67"/>
      <point x="111" y="-7"/>
      <point x="225" y="-7" type="curve" smooth="yes"/>
      <point x="356" y="-7"/>
      <point x="531" y="94"/>
      <point x="531" y="326" type="curve"/>
    </contour>
    <contour>
      <point x="461" y="174"/>
      <point x="362" y="58"/>
      <point x="240" y="58" type="curve" smooth="yes"/>
      <point x="135" y="58"/>
      <point x="78" y="114"/>
      <point x="78" y="227" type="curve"/>
      <point x="78" y="375"/>
      <point x="178" y="492"/>
      <point x="300" y="492" type="curve" smooth="yes"/>
      <point x="405" y="492"/>
      <point x="461" y="435"/>
      <point x="461" y="322" type="curve"/>
    </contour>
    <contour>
      <point x="-70" y="37" type="line"/>
      <point x="-34" y="-8" type="line"/>
      <point x="609" y="511" type="line"/>
      <point x="574" y="556" type="line"/>
    </contour>
  </outline>
</glyph>
<glyph name="Thorn" format="1">
  <advance width="464"/>
  <unicode hex="00DE"/>
  <outline>
    <contour>
      <point x="175" y="450"/>
      <point x="146" y="448"/>
      <point x="107" y="445" type="curve"/>
      <point x="129" y="550" type="line"/>
      <point x="63" y="550" type="line"/>
      <point x="-44" y="0" type="line"/>
      <point x="22" y="0" type="line"/>
      <point x="49" y="129" type="line"/>
      <point x="73" y="127"/>
      <point x="95" y="126"/>
      <point x="118" y="126" type="curve" smooth="yes"/>
      <point x="248" y="126"/>
      <point x="353" y="153"/>
      <point x="379" y="287" type="curve" smooth="yes"/>
      <point x="400" y="394"/>
      <point x="331" y="450"/>
      <point x="203" y="450" type="curve" smooth="yes"/>
    </contour>
    <contour>
      <point x="297" y="207"/>
      <point x="235" y="185"/>
      <point x="134" y="185" type="curve" smooth="yes"/>
      <point x="114" y="185"/>
      <point x="87" y="185"/>
      <point x="57" y="188" type="curve"/>
      <point x="100" y="388" type="line"/>
      <point x="131" y="389"/>
      <point x="158" y="390"/>
      <point x="183" y="390" type="curve" smooth="yes"/>
      <point x="270" y="390"/>
      <point x="329" y="372"/>
      <point x="315" y="297" type="curve" smooth="yes"/>
    </contour>
  </outline>
</glyph>
<glyph name="germandbls" format="1">
  <advance width="441"/>
  <unicode hex="00DF"/>
  <outline>
    <contour>
      <point x="21" y="0" type="line"/>
      <point x="84" y="0" type="line"/>
      <point x="161" y="394" type="line" smooth="yes"/>
      <point x="173" y="456"/>
      <point x="217" y="497"/>
      <point x="268" y="497" type="curve" smooth="yes"/>
      <point x="302" y="497"/>
      <point x="335" y="467"/>
      <point x="327" y="429" type="curve"/>
      <point x="316" y="373"/>
      <point x="210" y="346"/>
      <point x="196" y="277" type="curve" smooth="yes"/>
      <point x="184" y="218"/>
      <point x="228" y="195"/>
      <point x="269" y="177" type="curve" smooth="yes"/>
      <point x="307" y="157"/>
      <point x="346" y="150"/>
      <point x="338" y="105" type="curve" smooth="yes"/>
      <point x="328" y="58"/>
      <point x="295" y="42"/>
      <point x="247" y="42" type="curve" smooth="yes"/>
      <point x="227" y="42"/>
      <point x="197" y="46"/>
      <point x="157" y="53" type="curve"/>
      <point x="142" y="10" type="line"/>
      <point x="181" y="-3"/>
      <point x="218" y="-10"/>
      <point x="259" y="-10" type="curve" smooth="yes"/>
      <point x="334" y="-10"/>
      <point x="387" y="21"/>
      <point x="402" y="93" type="curve" smooth="yes"/>
      <point x="413" y="151"/>
      <point x="386" y="194"/>
      <point x="320" y="218" type="curve" smooth="yes"/>
      <point x="295" y="228" type="line" smooth="yes"/>
      <point x="264" y="242"/>
      <point x="251" y="247"/>
      <point x="259" y="272" type="curve" smooth="yes"/>
      <point x="265" y="292"/>
      <point x="298" y="318"/>
      <point x="328" y="340" type="curve" smooth="yes"/>
      <point x="358" y="361"/>
      <point x="384" y="389"/>
      <point x="390" y="422" type="curve" smooth="yes"/>
      <point x="402" y="485"/>
      <point x="352" y="554"/>
      <point x="279" y="554" type="curve" smooth="yes"/>
      <point x="185" y="554"/>
      <point x="116" y="492"/>
      <point x="98" y="399" type="curve" smooth="yes"/>
    </contour>
  </outline>
</glyph>
<glyph name="ae" format="1">
  <advance width="629"/>
  <unicode hex="00E6"/>
  <outline>
    <contour>
      <point x="351" y="389"/>
      <point x="309" y="372"/>
      <point x="269" y="333" type="curve"/>
      <point x="252" y="365"/>
      <point x="219" y="388"/>
      <point x="154" y="388" type="curve" smooth="yes"/>
      <point x="115" y="388"/>
      <point x="70" y="380"/>
      <point x="26" y="366" type="curve"/>
      <point x="35" y="316" type="line"/>
      <point x="67" y="326"/>
      <point x="113" y="333"/>
      <point x="142" y="333" type="curve" smooth="yes"/>
      <point x="222" y="333"/>
      <point x="231" y="297"/>
      <point x="214" y="225" type="curve"/>
      <point x="155" y="225"/>
      <point x="103" y="219"/>
      <point x="61" y="209" type="curve" smooth="yes"/>
      <point x="10" y="197"/>
      <point x="-38" y="161"/>
      <point x="-49" y="101" type="curve" smooth="yes"/>
      <point x="-62" y="35"/>
      <point x="-14" y="-10"/>
      <point x="56" y="-10" type="curve" smooth="yes"/>
      <point x="118" y="-10"/>
      <point x="175" y="12"/>
      <point x="218" y="58" type="curve"/>
      <point x="236" y="16"/>
      <point x="279" y="-8"/>
      <point x="352" y="-8" type="curve" smooth="yes"/>
      <point x="392" y="-8"/>
      <point x="435" y="-1"/>
      <point x="476" y="12" type="curve"/>
      <point x="469" y="62" type="line"/>
      <point x="435" y="51"/>
      <point x="403" y="46"/>
      <point x="372" y="46" type="curve" smooth="yes"/>
      <point x="275" y="46"/>
      <point x="245" y="91"/>
      <point x="261" y="170" type="curve"/>
      <point x="517" y="172" type="line"/>
      <point x="523" y="180" type="line"/>
      <point x="528" y="213" type="line" smooth="yes"/>
      <point x="550" y="323"/>
      <point x="505" y="389"/>
      <point x="402" y="389" type="curve" smooth="yes"/>
    </contour>
    <contour>
      <point x="20" y="42"/>
      <point x="7" y="65"/>
      <point x="13" y="98" type="curve" smooth="yes"/>
      <point x="29" y="178"/>
      <point x="143" y="177"/>
      <point x="206" y="178" type="curve"/>
      <point x="184" y="88" type="line"/>
      <point x="151" y="58"/>
      <point x="116" y="42"/>
      <point x="67" y="42" type="curve" smooth="yes"/>
    </contour>
    <contour>
      <point x="272" y="222" type="line"/>
      <point x="292" y="282"/>
      <point x="330" y="338"/>
      <point x="406" y="338" type="curve" smooth="yes"/>
      <point x="464" y="338"/>
      <point x="478" y="288"/>
      <point x="466" y="226" type="curve"/>
    </contour>
  </outline>
</glyph>
<glyph name="ccedilla" format="1">
  <advance width="358"/>
  <unicode hex="00E7"/>
  <outline>
    <contour>
      <point x="205" y="-158"/>
      <point x="181" y="-155"/>
      <point x="148" y="-145" type="curve"/>
      <point x="136" y="-142" type="line"/>
      <point x="122" y="-188" type="line"/>
      <point x="134" y="-192" type="line"/>
      <point x="165" y="-201"/>
      <point x="189" y="-207"/>
      <point x="218" y="-207" type="curve" smooth="yes"/>
      <point x="276" y="-207"/>
      <point x="306" y="-178"/>
      <point x="306" y="-136" type="curve" smooth="yes"/>
      <point x="306" y="-82"/>
      <point x="267" y="-64"/>
      <point x="232" y="-53" type="curve" smooth="yes"/>
      <point x="218" y="-49" type="line"/>
      <point x="228" y="-9" type="line"/>
      <point x="260" y="-8"/>
      <point x="292" y="0"/>
      <point x="328" y="13" type="curve"/>
      <point x="312" y="58" type="line"/>
      <point x="288" y="48"/>
      <point x="264" y="45"/>
      <point x="242" y="45" type="curve" smooth="yes"/>
      <point x="237" y="45"/>
      <point x="230" y="45"/>
      <point x="225" y="46" type="curve"/>
      <point x="140" y="56"/>
      <point x="100" y="102"/>
      <point x="100" y="197" type="curve" smooth="yes"/>
      <point x="100" y="286"/>
      <point x="145" y="335"/>
      <point x="237" y="335" type="curve" smooth="yes"/>
      <point x="259" y="335"/>
      <point x="287" y="332"/>
      <point x="315" y="320" type="curve"/>
      <point x="332" y="368" type="line"/>
      <point x="297" y="383"/>
      <point x="264" y="389"/>
      <point x="232" y="389" type="curve" smooth="yes"/>
      <point x="166" y="389"/>
      <point x="117" y="370"/>
      <point x="85" y="332" type="curve" smooth="yes"/>
      <point x="53" y="295"/>
      <point x="38" y="246"/>
      <point x="38" y="185" type="curve" smooth="yes"/>
      <point x="38" y="78"/>
      <point x="87" y="9"/>
      <point x="180" y="-6" type="curve"/>
      <point x="161" y="-81" type="line"/>
      <point x="215" y="-96" type="line"/>
      <point x="232" y="-100"/>
      <point x="256" y="-109"/>
      <point x="256" y="-131" type="curve" smooth="yes"/>
      <point x="256" y="-153"/>
      <point x="238" y="-160"/>
      <point x="215" y="-159" type="curve"/>
    </contour>
  </outline>
</glyph>
<glyph name="eth" format="1">
  <advance width="444"/>
  <unicode hex="00F0"/>
  <outline>
    <contour>
      <point x="375" y="523" type="line"/>
      <point x="321" y="486" type="line"/>
      <point x="372" y="431"/>
      <point x="406" y="353"/>
      <point x="406" y="246" type="curve" smooth="yes"/>
      <point x="406" y="105"/>
      <point x="352" y="-8"/>
      <point x="220" y="-8" type="curve" smooth="yes"/>
      <point x="105" y="-8"/>
      <point x="36" y="79"/>
      <point x="36" y="177" type="curve" smooth="yes"/>
      <point x="36" y="284"/>
      <point x="105" y="366"/>
      <point x="210" y="366" type="curve" smooth="yes"/>
      <point x="248" y="366"/>
      <point x="289" y="353"/>
      <point x="332" y="332" type="curve"/>
      <point x="323" y="380"/>
      <point x="304" y="420"/>
      <point x="271" y="452" type="curve"/>
      <point x="199" y="403" type="line"/>
      <point x="177" y="439" type="line"/>
      <point x="237" y="480" type="line"/>
      <point x="216" y="493"/>
      <point x="193" y="505"/>
      <point x="165" y="515" type="curve"/>
      <point x="189" y="566" type="line"/>
      <point x="224" y="555"/>
      <point x="258" y="538"/>
      <point x="288" y="515" type="curve"/>
      <point x="354" y="560" type="line"/>
    </contour>
    <contour>
      <point x="340" y="257"/>
      <point x="340" y="267"/>
      <point x="339" y="276" type="curve"/>
      <point x="296" y="300"/>
      <point x="259" y="313"/>
      <point x="228" y="313" type="curve" smooth="yes"/>
      <point x="142" y="313"/>
      <point x="102" y="252"/>
      <point x="102" y="180" type="curve" smooth="yes"/>
      <point x="102" y="109"/>
      <point x="146" y="45"/>
      <point x="224" y="45" type="curve" smooth="yes"/>
      <point x="268" y="45"/>
      <point x="293" y="66"/>
      <point x="314" y="103" type="curve" smooth="yes"/>
      <point x="330" y="131"/>
      <point x="340" y="180"/>
      <point x="340" y="247" type="curve" smooth="yes"/>
    </contour>
  </outline>
</glyph>
<glyph name="divide" format="1">
  <advance width="450"/>
  <unicode hex="00F7"/>
  <outline>
    <contour>
      <point x="390" y="260" type="line"/>
      <point x="390" y="204" type="line"/>
      <point x="60" y="204" type="line"/>
      <point x="60" y="260" type="line"/>
    </contour>
    <contour>
      <point x="252" y="320"/>
      <point x="268" y="339"/>
      <point x="268" y="363" type="curve" smooth="yes"/>
      <point x="268" y="387"/>
      <point x="252" y="406"/>
      <point x="225" y="406" type="curve" smooth="yes"/>
      <point x="198" y="406"/>
      <point x="182" y="387"/>
      <point x="182" y="363" type="curve" smooth="yes"/>
      <point x="182" y="339"/>
      <point x="198" y="320"/>
      <point x="225" y="320" type="curve" smooth="yes"/>
    </contour>
    <contour>
      <point x="252" y="58"/>
      <point x="268" y="77"/>
      <point x="268" y="101" type="curve" smooth="yes"/>
      <point x="268" y="125"/>
      <point x="252" y="144"/>
      <point x="225" y="144" type="curve" smooth="yes"/>
      <point x="198" y="144"/>
      <point x="182" y="125"/>
      <point x="182" y="101" type="curve" smooth="yes"/>
      <point x="182" y="77"/>
      <point x="198" y="58"/>
      <point x="225" y="58" type="curve" smooth="yes"/>
    </contour>
  </outline>
</glyph>
<glyph name="oslash" format="1">
  <advance width="456"/>
  <unicode hex="00F8"/>
  <outline>
    <contour>
      <point x="266" y="338"/>
      <point x="293" y="274"/>
      <point x="278" y="195" type="curve" smooth="yes"/>
      <point x="262" y="111"/>
      <point x="206" y="44"/>
      <point x="127" y="44" type="curve" smooth="yes"/>
      <point x="50" y="44"/>
      <point x="23" y="107"/>
      <point x="38" y="185" type="curve" smooth="yes"/>
      <point x="55" y="270"/>
      <point x="112" y="338"/>
      <point x="192" y="338" type="curve" smooth="yes"/>
    </contour>
    <contour>
      <point x="236" y="-9"/>
      <point x="320" y="70"/>
      <point x="342" y="186" type="curve" smooth="yes"/>
      <point x="366" y="310"/>
      <point x="315" y="389"/>
      <point x="194" y="389" type="curve" smooth="yes"/>
      <point x="75" y="389"/>
      <point x="-4" y="313"/>
      <point x="-27" y="195" type="curve" smooth="yes"/>
      <point x="-51" y="73"/>
      <point x="2" y="-9"/>
      <point x="121" y="-9" type="curve" smooth="yes"/>
    </contour>
    <contour>
      <point x="-79" y="28" type="line"/>
      <point x="-42" y="-12" type="line"/>
      <point x="389" y="355" type="line"/>
      <point x="352" y="399" type="line"/>
    </contour>
  </outline>
</glyph>
<glyph name="thorn" format="1">
  <advance width="439"/>
  <unicode hex="00FE"/>
  <outline>
    <contour>
      <point x="213" y="-10"/>
      <point x="307" y="62"/>
      <point x="331" y="190" type="curve" smooth="yes"/>
      <point x="351" y="298"/>
      <point x="301" y="388"/>
      <point x="191" y="388" type="curve" smooth="yes"/>
      <point x="144" y="388"/>
      <point x="107" y="375"/>
      <point x="75" y="346" type="curve"/>
      <point x="116" y="550" type="line"/>
      <point x="51" y="550" type="line"/>
      <point x="-96" y="-206" type="line"/>
      <point x="-31" y="-206" type="line"/>
      <point x="18" y="34" type="line"/>
      <point x="39" y="9"/>
      <point x="70" y="-10"/>
      <point x="117" y="-10" type="curve" smooth="yes"/>
    </contour>
    <contour>
      <point x="79" y="46"/>
      <point x="53" y="60"/>
      <point x="38" y="91" type="curve"/>
      <point x="31" y="111"/>
      <point x="32" y="143"/>
      <point x="40" y="184" type="curve" smooth="yes"/>
      <point x="56" y="266"/>
      <point x="100" y="334"/>
      <point x="179" y="334" type="curve" smooth="yes"/>
      <point x="262" y="332"/>
      <point x="284" y="264"/>
      <point x="268" y="185" type="curve" smooth="yes"/>
      <point x="253" y="108"/>
      <point x="190" y="46"/>
      <point x="115" y="46" type="curve" smooth="yes"/>
    </contour>
  </outline>
</glyph>
<glyph name="Aogonek" format="1">
  <advance width="493"/>
  <unicode hex="0104"/>
  <outline>
    <contour>
      <point x="262" y="218" type="line"/>
      <point x="90" y="218" type="line"/>
      <point x="227" y="481" type="line"/>
    </contour>
    <contour>
      <point x="183" y="-45"/>
      <point x="155" y="-92"/>
      <point x="155" y="-146" type="curve" smooth="yes"/>
      <point x="155" y="-187"/>
      <point x="182" y="-210"/>
      <point x="223" y="-210" type="curve" smooth="yes"/>
      <point x="252" y="-210"/>
      <point x="292" y="-198"/>
      <point x="330" y="-173" type="curve"/>
      <point x="313" y="-135" type="line"/>
      <point x="286" y="-150"/>
      <point x="264" y="-159"/>
      <point x="242" y="-159" type="curve" smooth="yes"/>
      <point x="221" y="-159"/>
      <point x="208" y="-149"/>
      <point x="213" y="-123" type="curve" smooth="yes"/>
      <point x="219" y="-95"/>
      <point x="244" y="-68"/>
      <point x="286" y="-40" type="curve" smooth="yes"/>
      <point x="362" y="10" type="line"/>
      <point x="281" y="550" type="line"/>
      <point x="196" y="550" type="line"/>
      <point x="-99" y="0" type="line"/>
      <point x="-23" y="0" type="line"/>
      <point x="60" y="161" type="line"/>
      <point x="270" y="161" type="line"/>
      <point x="290" y="13" type="line"/>
    </contour>
    <contour>
      <point x="244" y="550" type="move" name="top.cap"/>
    </contour>
  </outline>
</glyph>
<glyph name="aogonek" format="1">
  <advance width="393"/>
  <unicode hex="0105"/>
  <outline>
    <contour>
      <point x="341" y="312"/>
      <point x="328" y="339"/>
      <point x="288" y="368" type="curve"/>
      <point x="266" y="381"/>
      <point x="232" y="388"/>
      <point x="189" y="388" type="curve" smooth="yes"/>
      <point x="148" y="388"/>
      <point x="105" y="379"/>
      <point x="64" y="365" type="curve"/>
      <point x="77" y="317" type="line"/>
      <point x="109" y="327"/>
      <point x="153" y="333"/>
      <point x="180" y="333" type="curve" smooth="yes"/>
      <point x="228" y="333"/>
      <point x="257" y="318"/>
      <point x="268" y="288" type="curve"/>
      <point x="273" y="276"/>
      <point x="276" y="256"/>
      <point x="276" y="228" type="curve" smooth="yes"/>
      <point x="276" y="225" type="line"/>
      <point x="217" y="224"/>
      <point x="171" y="220"/>
      <point x="133" y="210" type="curve" smooth="yes"/>
      <point x="83" y="198"/>
      <point x="38" y="159"/>
      <point x="38" y="96" type="curve" smooth="yes"/>
      <point x="38" y="33"/>
      <point x="93" y="-10"/>
      <point x="161" y="-10" type="curve" smooth="yes"/>
      <point x="214" y="-10"/>
      <point x="249" y="13"/>
      <point x="282" y="40" type="curve"/>
      <point x="289" y="8" type="line"/>
      <point x="244" y="-19" type="line" smooth="yes"/>
      <point x="180" y="-57"/>
      <point x="148" y="-93"/>
      <point x="148" y="-144" type="curve" smooth="yes"/>
      <point x="148" y="-190"/>
      <point x="185" y="-214"/>
      <point x="227" y="-214" type="curve" smooth="yes"/>
      <point x="260" y="-214"/>
      <point x="293" y="-200"/>
      <point x="332" y="-177" type="curve"/>
      <point x="313" y="-142" type="line"/>
      <point x="288" y="-157"/>
      <point x="265" y="-164"/>
      <point x="248" y="-164" type="curve" smooth="yes"/>
      <point x="225" y="-164"/>
      <point x="208" y="-151"/>
      <point x="208" y="-123" type="curve" smooth="yes"/>
      <point x="208" y="-99"/>
      <point x="226" y="-78"/>
      <point x="259" y="-57" type="curve"/>
      <point x="272" y="-48"/>
      <point x="304" y="-29"/>
      <point x="341" y="-11" type="curve"/>
      <point x="341" y="248" type="line" smooth="yes"/>
    </contour>
    <contour>
      <point x="136" y="42"/>
      <point x="101" y="62"/>
      <point x="101" y="103" type="curve" smooth="yes"/>
      <point x="101" y="141"/>
      <point x="127" y="160"/>
      <point x="174" y="170" type="curve" smooth="yes"/>
      <point x="189" y="173"/>
      <point x="224" y="177"/>
      <point x="276" y="178" type="curve"/>
      <point x="276" y="86" type="line"/>
      <point x="248" y="60"/>
      <point x="217" y="42"/>
      <point x="170" y="42" type="curve" smooth="yes"/>
    </contour>
  </outline>
</glyph>
<glyph name="Eogonek" format="1">
  <advance width="446"/>
  <unicode hex="0118"/>
  <outline>
    <contour>
      <point x="211" y="-95"/>
      <point x="236" y="-67"/>
      <point x="280" y="-39" type="curve" smooth="yes"/>
      <point x="355" y="10" type="line"/>
      <point x="363" y="58" type="line"/>
      <point x="107" y="58" type="line"/>
      <point x="146" y="256" type="line"/>
      <point x="381" y="256" type="line"/>
      <point x="392" y="313" type="line"/>
      <point x="157" y="313" type="line"/>
      <point x="192" y="494" type="line"/>
      <point x="448" y="494" type="line"/>
      <point x="459" y="550" type="line"/>
      <point x="137" y="550" type="line"/>
      <point x="30" y="0" type="line"/>
      <point x="262" y="0" type="line"/>
      <point x="252" y="-5" type="line"/>
      <point x="199" y="-36"/>
      <point x="158" y="-80"/>
      <point x="149" y="-124" type="curve" smooth="yes"/>
      <point x="138" y="-179"/>
      <point x="166" y="-210"/>
      <point x="214" y="-210" type="curve" smooth="yes"/>
      <point x="245" y="-210"/>
      <point x="284" y="-199"/>
      <point x="322" y="-174" type="curve"/>
      <point x="304" y="-135" type="line"/>
      <point x="276" y="-150"/>
      <point x="254" y="-159"/>
      <point x="233" y="-159" type="curve" smooth="yes"/>
      <point x="213" y="-159"/>
      <point x="200" y="-149"/>
      <point x="205" y="-123" type="curve" smooth="yes"/>
    </contour>
  </outline>
</glyph>
<glyph name="eogonek" format="1">
  <advance width="404"/>
  <unicode hex="0119"/>
  <outline>
    <contour>
      <point x="68" y="-45"/>
      <point x="35" y="-90"/>
      <point x="27" y="-130" type="curve" smooth="yes"/>
      <point x="18" y="-174"/>
      <point x="39" y="-211"/>
      <point x="100" y="-211" type="curve" smooth="yes"/>
      <point x="133" y="-211"/>
      <point x="160" y="-203"/>
      <point x="202" y="-176" type="curve"/>
      <point x="187" y="-141" type="line"/>
      <point x="170" y="-152"/>
      <point x="139" y="-164"/>
      <point x="117" y="-164" type="curve" smooth="yes"/>
      <point x="91" y="-164"/>
      <point x="82" y="-151"/>
      <point x="87" y="-125" type="curve" smooth="yes"/>
      <point x="93" y="-93"/>
      <point x="121" y="-61"/>
      <point x="167" y="-29" type="curve" smooth="yes"/>
      <point x="188" y="-12"/>
      <point x="221" y="4"/>
      <point x="249" y="12" type="curve"/>
      <point x="242" y="62" type="line"/>
      <point x="209" y="51"/>
      <point x="176" y="46"/>
      <point x="145" y="46" type="curve" smooth="yes"/>
      <point x="54" y="46"/>
      <point x="10" y="86"/>
      <point x="27" y="170" type="curve"/>
      <point x="292" y="172" type="line"/>
      <point x="297" y="180" type="line"/>
      <point x="302" y="213" type="line" smooth="yes"/>
      <point x="324" y="323"/>
      <point x="279" y="389"/>
      <point x="181" y="389" type="curve" smooth="yes"/>
      <point x="65" y="389"/>
      <point x="-8" y="308"/>
      <point x="-32" y="190" type="curve" smooth="yes"/>
      <point x="-65" y="18"/>
      <point x="53" y="-8"/>
      <point x="125" y="-6" type="curve"/>
    </contour>
    <contour>
      <point x="38" y="222" type="line"/>
      <point x="57" y="282"/>
      <point x="103" y="338"/>
      <point x="180" y="338" type="curve" smooth="yes"/>
      <point x="237" y="338"/>
      <point x="251" y="288"/>
      <point x="239" y="226" type="curve"/>
    </contour>
  </outline>
</glyph>
<glyph name="gcommaaccent" format="1">
  <advance width="439"/>
  <unicode hex="0123"/>
  <outline>
    <contour>
      <point x="244" y="435" type="line"/>
      <point x="296" y="435" type="line"/>
      <point x="362" y="586" type="line"/>
      <point x="296" y="586" type="line"/>
    </contour>
    <component base="g"/>
  </outline>
</glyph>
<glyph name="Iogonek" format="1">
  <advance width="212"/>
  <unicode hex="012E"/>
  <outline>
    <contour>
      <point x="39" y="-5" type="line"/>
      <point x="-10" y="-36"/>
      <point x="-44" y="-82"/>
      <point x="-44" y="-129" type="curve" smooth="yes"/>
      <point x="-44" y="-181"/>
      <point x="-11" y="-210"/>
      <point x="34" y="-210" type="curve" smooth="yes"/>
      <point x="66" y="-210"/>
      <point x="104" y="-197"/>
      <point x="137" y="-172" type="curve"/>
      <point x="117" y="-136" type="line"/>
      <point x="91" y="-151"/>
      <point x="72" y="-159"/>
      <point x="51" y="-159" type="curve" smooth="yes"/>
      <point x="29" y="-159"/>
      <point x="11" y="-147"/>
      <point x="11" y="-118" type="curve" smooth="yes"/>
      <point x="11" y="-93"/>
      <point x="29" y="-66"/>
      <point x="67" y="-38" type="curve" smooth="yes"/>
      <point x="136" y="10" type="line"/>
      <point x="136" y="550" type="line"/>
      <point x="69" y="550" type="line"/>
      <point x="69" y="16" type="line"/>
    </contour>
  </outline>
</glyph>
<glyph name="iogonek" format="1">
  <advance width="185"/>
  <unicode hex="012F"/>
  <outline>
    <contour>
      <point x="-9" y="-9" type="line"/>
      <point x="-78" y="-47"/>
      <point x="-104" y="-91"/>
      <point x="-110" y="-126" type="curve" smooth="yes"/>
      <point x="-122" y="-188"/>
      <point x="-88" y="-214"/>
      <point x="-44" y="-214" type="curve" smooth="yes"/>
      <point x="-12" y="-214"/>
      <point x="23" y="-201"/>
      <point x="65" y="-178" type="curve"/>
      <point x="50" y="-141" type="line"/>
      <point x="22" y="-156"/>
      <point x="-1" y="-164"/>
      <point x="-21" y="-164" type="curve" smooth="yes"/>
      <point x="-43" y="-164"/>
      <point x="-57" y="-153"/>
      <point x="-51" y="-122" type="curve" smooth="yes"/>
      <point x="-47" y="-101"/>
      <point x="-33" y="-79"/>
      <point x="12" y="-49" type="curve"/>
      <point x="26" y="-39"/>
      <point x="47" y="-25"/>
      <point x="86" y="-8" type="curve"/>
      <point x="160" y="384" type="line"/>
      <point x="96" y="384" type="line"/>
      <point x="22" y="4" type="line"/>
    </contour>
    <component base="dotaccent" xOffset="115"/>
  </outline>
</glyph>
<glyph name="dotlessi" format="1">
  <advance width="181"/>
  <unicode hex="0131"/>
  <outline>
    <contour>
      <point x="21" y="0" type="line"/>
      <point x="86" y="0" type="line"/>
      <point x="160" y="384" type="line"/>
      <point x="95" y="384" type="line"/>
    </contour>
    <contour>
      <point x="128" y="384" type="move" name="top"/>
    </contour>
  </outline>
</glyph>
<glyph name="IJ" format="1">
  <advance width="530"/>
  <unicode hex="0132"/>
  <outline>
    <contour>
      <point x="428" y="550" type="line"/>
      <point x="354" y="167" type="line" smooth="yes"/>
      <point x="332" y="56"/>
      <point x="278" y="-7"/>
      <point x="146" y="-7" type="curve" smooth="yes"/>
      <point x="123" y="-7"/>
      <point x="98" y="-5"/>
      <point x="75" y="1" type="curve"/>
      <point x="101" y="62" type="line"/>
      <point x="121" y="57"/>
      <point x="139" y="55"/>
      <point x="156" y="55" type="curve"/>
      <point x="243" y="55"/>
      <point x="271" y="93"/>
      <point x="295" y="200" type="curve"/>
      <point x="363" y="550" type="line"/>
    </contour>
    <component base="I"/>
  </outline>
</glyph>
<glyph name="ij" format="1">
  <advance width="332"/>
  <unicode hex="0133"/>
  <outline>
    <contour>
      <point x="58" y="0" type="line"/>
      <point x="123" y="0" type="line"/>
      <point x="123" y="384" type="line"/>
      <point x="58" y="384" type="line"/>
    </contour>
    <contour>
      <point x="58" y="466" type="line"/>
      <point x="123" y="466" type="line"/>
      <point x="123" y="532" type="line"/>
      <point x="58" y="532" type="line"/>
    </contour>
    <contour>
      <point x="211" y="-108"/>
      <point x="190" y="-141"/>
      <point x="148" y="-161" type="curve"/>
      <point x="172" y="-208" type="line"/>
      <point x="208" y="-197"/>
      <point x="241" y="-176"/>
      <point x="257" y="-143" type="curve" smooth="yes"/>
      <point x="271" y="-113"/>
      <point x="274" y="-105"/>
      <point x="274" y="-50" type="curve" smooth="yes"/>
      <point x="274" y="384" type="line"/>
      <point x="211" y="384" type="line"/>
      <point x="211" y="-53" type="line"/>
      <point x="211" y="-62" type="line" smooth="yes"/>
    </contour>
    <contour>
      <point x="211" y="466" type="line"/>
      <point x="274" y="466" type="line"/>
      <point x="274" y="532" type="line"/>
      <point x="211" y="532" type="line"/>
    </contour>
  </outline>
</glyph>
<glyph name="Lcaron" format="1">
  <advance width="400"/>
  <unicode hex="013D"/>
  <outline>
    <contour>
      <point x="-40" y="0" type="line"/>
      <point x="273" y="0" type="line"/>
      <point x="284" y="58" type="line"/>
      <point x="39" y="58" type="line"/>
      <point x="133" y="550" type="line"/>
      <point x="67" y="550" type="line"/>
    </contour>
    <contour>
      <point x="186" y="435" type="line"/>
      <point x="238" y="435" type="line"/>
      <point x="315" y="586" type="line"/>
      <point x="247" y="586" type="line"/>
    </contour>
  </outline>
</glyph>
<glyph name="lcaron" format="1">
  <advance width="245"/>
  <unicode hex="013E"/>
  <outline>
    <contour>
      <point x="140" y="435" type="line"/>
      <point x="186" y="435" type="line"/>
      <point x="252" y="586" type="line"/>
      <point x="192" y="586" type="line"/>
    </contour>
    <contour>
      <point x="22" y="51"/>
      <point x="27" y="76"/>
      <point x="32" y="104" type="curve" smooth="yes"/>
      <point x="116" y="533" type="line"/>
      <point x="53" y="533" type="line"/>
      <point x="-36" y="85" type="line" smooth="yes"/>
      <point x="-47" y="31"/>
      <point x="-19" y="-9"/>
      <point x="33" y="-9" type="curve" smooth="yes"/>
      <point x="69" y="-9"/>
      <point x="97" y="3"/>
      <point x="113" y="9" type="curve"/>
      <point x="105" y="58" type="line"/>
      <point x="93" y="54"/>
      <point x="82" y="51"/>
      <point x="69" y="51" type="curve" smooth="yes"/>
    </contour>
  </outline>
</glyph>
<glyph name="Lslash" format="1">
  <advance width="418"/>
  <unicode hex="0141"/>
  <outline>
    <contour>
      <point x="33" y="282" type="line"/>
      <point x="-52" y="238" type="line"/>
      <point x="-65" y="170" type="line"/>
      <point x="20" y="215" type="line"/>
      <point x="-22" y="0" type="line"/>
      <point x="291" y="0" type="line"/>
      <point x="302" y="58" type="line"/>
      <point x="56" y="58" type="line"/>
      <point x="93" y="253" type="line"/>
      <point x="206" y="312" type="line"/>
      <point x="219" y="380" type="line"/>
      <point x="106" y="321" type="line"/>
      <point x="151" y="550" type="line"/>
      <point x="85" y="550" type="line"/>
    </contour>
  </outline>
</glyph>
<glyph name="lslash" format="1">
  <advance width="244"/>
  <unicode hex="0142"/>
  <outline>
    <contour>
      <point x="44" y="51"/>
      <point x="49" y="76"/>
      <point x="54" y="104" type="curve" smooth="yes"/>
      <point x="138" y="533" type="line"/>
      <point x="75" y="533" type="line"/>
      <point x="-14" y="85" type="line" smooth="yes"/>
      <point x="-25" y="31"/>
      <point x="3" y="-9"/>
      <point x="55" y="-9" type="curve" smooth="yes"/>
      <point x="91" y="-9"/>
      <point x="119" y="3"/>
      <point x="135" y="9" type="curve"/>
      <point x="127" y="58" type="line"/>
      <point x="115" y="54"/>
      <point x="104" y="51"/>
      <point x="91" y="51" type="curve" smooth="yes"/>
    </contour>
    <contour>
      <point x="-42" y="252" type="line"/>
      <point x="-53" y="194" type="line"/>
      <point x="187" y="318" type="line"/>
      <point x="198" y="376" type="line"/>
    </contour>
  </outline>
</glyph>
<glyph name="OE" format="1">
  <advance width="725"/>
  <unicode hex="0152"/>
  <outline>
    <contour>
      <point x="109" y="390"/>
      <point x="167" y="473"/>
      <point x="272" y="489" type="curve" smooth="yes"/>
      <point x="289" y="491"/>
      <point x="314" y="494"/>
      <point x="346" y="494" type="curve" smooth="yes"/>
      <point x="368" y="494" type="line"/>
      <point x="368" y="58" type="line"/>
      <point x="318" y="58" type="line" smooth="yes"/>
      <point x="297" y="58"/>
      <point x="279" y="59"/>
      <point x="267" y="62" type="curve"/>
      <point x="180" y="77"/>
      <point x="109" y="153"/>
      <point x="109" y="264" type="curve" smooth="yes"/>
    </contour>
    <contour>
      <point x="311" y="550"/>
      <point x="262" y="547"/>
      <point x="230" y="539" type="curve" smooth="yes"/>
      <point x="109" y="510"/>
      <point x="44" y="419"/>
      <point x="44" y="272" type="curve" smooth="yes"/>
      <point x="44" y="205"/>
      <point x="58" y="149"/>
      <point x="86" y="105" type="curve" smooth="yes"/>
      <point x="136" y="28"/>
      <point x="208" y="0"/>
      <point x="337" y="0" type="curve" smooth="yes"/>
      <point x="674" y="0" type="line"/>
      <point x="674" y="58" type="line"/>
      <point x="434" y="58" type="line"/>
      <point x="434" y="256" type="line"/>
      <point x="653" y="256" type="line"/>
      <point x="653" y="313" type="line"/>
      <point x="434" y="313" type="line"/>
      <point x="434" y="494" type="line"/>
      <point x="674" y="494" type="line"/>
      <point x="674" y="550" type="line"/>
      <point x="372" y="550" type="line" smooth="yes"/>
    </contour>
  </outline>
</glyph>
<glyph name="oe" format="1">
  <advance width="674"/>
  <unicode hex="0153"/>
  <outline>
    <contour>
      <point x="393" y="389"/>
      <point x="347" y="364"/>
      <point x="313" y="321" type="curve"/>
      <point x="293" y="365"/>
      <point x="252" y="389"/>
      <point x="190" y="389" type="curve" smooth="yes"/>
      <point x="82" y="389"/>
      <point x="2" y="330"/>
      <point x="-31" y="195" type="curve" smooth="yes"/>
      <point x="-59" y="81"/>
      <point x="-2" y="-9"/>
      <point x="117" y="-9" type="curve" smooth="yes"/>
      <point x="176" y="-9"/>
      <point x="227" y="16"/>
      <point x="263" y="58" type="curve"/>
      <point x="283" y="15"/>
      <point x="327" y="-8"/>
      <point x="399" y="-8" type="curve" smooth="yes"/>
      <point x="440" y="-8"/>
      <point x="483" y="-1"/>
      <point x="523" y="12" type="curve"/>
      <point x="516" y="62" type="line"/>
      <point x="483" y="51"/>
      <point x="450" y="46"/>
      <point x="419" y="46" type="curve" smooth="yes"/>
      <point x="328" y="46"/>
      <point x="298" y="86"/>
      <point x="315" y="170" type="curve"/>
      <point x="563" y="172" type="line"/>
      <point x="568" y="180" type="line"/>
      <point x="573" y="213" type="line" smooth="yes"/>
      <point x="590" y="324"/>
      <point x="553" y="389"/>
      <point x="449" y="389" type="curve" smooth="yes"/>
    </contour>
    <contour>
      <point x="46" y="44"/>
      <point x="19" y="107"/>
      <point x="34" y="185" type="curve" smooth="yes"/>
      <point x="51" y="270"/>
      <point x="108" y="338"/>
      <point x="188" y="338" type="curve" smooth="yes"/>
      <point x="252" y="338"/>
      <point x="272" y="274"/>
      <point x="257" y="195" type="curve" smooth="yes"/>
      <point x="256" y="192" type="line" smooth="yes"/>
      <point x="256" y="191"/>
      <point x="256" y="191"/>
      <point x="256" y="190" type="curve" smooth="yes"/>
      <point x="239" y="108"/>
      <point x="191" y="44"/>
      <point x="123" y="44" type="curve" smooth="yes"/>
    </contour>
    <contour>
      <point x="326" y="222" type="line"/>
      <point x="345" y="282"/>
      <point x="377" y="338"/>
      <point x="454" y="338" type="curve" smooth="yes"/>
      <point x="511" y="338"/>
      <point x="525" y="288"/>
      <point x="513" y="226" type="curve"/>
    </contour>
  </outline>
</glyph>
<glyph name="Tcedilla" format="1">
  <advance width="451"/>
  <unicode hex="0162"/>
  <outline>
    <contour>
      <point x="74" y="-171"/>
      <point x="49" y="-164"/>
      <point x="22" y="-153" type="curve"/>
      <point x="-2" y="-205" type="line"/>
      <point x="36" y="-219"/>
      <point x="65" y="-226"/>
      <point x="94" y="-226" type="curve" smooth="yes"/>
      <point x="172" y="-226"/>
      <point x="203" y="-172"/>
      <point x="203" y="-126" type="curve" smooth="yes"/>
      <point x="203" y="-79"/>
      <point x="166" y="-64"/>
      <point x="137" y="-55" type="curve"/>
      <point x="127" y="-52" type="line"/>
      <point x="150" y="0" type="line"/>
      <point x="246" y="494" type="line"/>
      <point x="431" y="494" type="line"/>
      <point x="442" y="550" type="line"/>
      <point x="9" y="550" type="line"/>
      <point x="-2" y="494" type="line"/>
      <point x="180" y="494" type="line"/>
      <point x="84" y="0" type="line"/>
      <point x="46" y="-91" type="line"/>
      <point x="113" y="-105" type="line" smooth="yes"/>
      <point x="129" y="-109"/>
      <point x="146" y="-117"/>
      <point x="146" y="-133" type="curve" smooth="yes"/>
      <point x="146" y="-155"/>
      <point x="133" y="-171"/>
      <point x="93" y="-171" type="curve" smooth="yes"/>
    </contour>
  </outline>
</glyph>
<glyph name="tcaron" format="1">
  <advance width="311"/>
  <unicode hex="0165"/>
  <outline>
    <contour>
      <point x="249" y="435" type="line"/>
      <point x="295" y="435" type="line"/>
      <point x="361" y="586" type="line"/>
      <point x="301" y="586" type="line"/>
    </contour>
    <contour>
      <point x="191" y="-8"/>
      <point x="227" y="-3"/>
      <point x="258" y="8" type="curve"/>
      <point x="251" y="54" type="line"/>
      <point x="233" y="50"/>
      <point x="207" y="47"/>
      <point x="187" y="47" type="curve" smooth="yes"/>
      <point x="139" y="47"/>
      <point x="138" y="71"/>
      <point x="147" y="121" type="curve" smooth="yes"/>
      <point x="185" y="330" type="line"/>
      <point x="291" y="330" type="line"/>
      <point x="302" y="384" type="line"/>
      <point x="196" y="384" type="line"/>
      <point x="215" y="483" type="line"/>
      <point x="149" y="478" type="line"/>
      <point x="131" y="384" type="line"/>
      <point x="56" y="384" type="line"/>
      <point x="45" y="330" type="line"/>
      <point x="120" y="330" type="line"/>
      <point x="80" y="121" type="line" smooth="yes"/>
      <point x="64" y="40"/>
      <point x="84" y="-8"/>
      <point x="166" y="-8" type="curve" smooth="yes"/>
    </contour>
  </outline>
</glyph>
<glyph name="Uogonek" format="1">
  <advance width="542"/>
  <unicode hex="0172"/>
  <outline>
    <contour>
      <point x="169" y="-211"/>
      <point x="214" y="-201"/>
      <point x="254" y="-175" type="curve"/>
      <point x="236" y="-132" type="line"/>
      <point x="210" y="-149"/>
      <point x="184" y="-159"/>
      <point x="156" y="-159" type="curve" smooth="yes"/>
      <point x="131" y="-159"/>
      <point x="125" y="-144"/>
      <point x="129" y="-123" type="curve" smooth="yes"/>
      <point x="141" y="-60"/>
      <point x="228" y="-13"/>
      <point x="283" y="12" type="curve" smooth="yes"/>
      <point x="350" y="46"/>
      <point x="390" y="88"/>
      <point x="408" y="180" type="curve" smooth="yes"/>
      <point x="480" y="550" type="line"/>
      <point x="415" y="550" type="line"/>
      <point x="346" y="196" type="line" smooth="yes"/>
      <point x="342" y="173"/>
      <point x="335" y="154"/>
      <point x="328" y="142" type="curve"/>
      <point x="303" y="83"/>
      <point x="240" y="49"/>
      <point x="170" y="49" type="curve" smooth="yes"/>
      <point x="122" y="49"/>
      <point x="85" y="62"/>
      <point x="65" y="87" type="curve" smooth="yes"/>
      <point x="48" y="117"/>
      <point x="49" y="143"/>
      <point x="58" y="192" type="curve" smooth="yes"/>
      <point x="128" y="550" type="line"/>
      <point x="62" y="550" type="line"/>
      <point x="3" y="245" type="line"/>
      <point x="-4" y="209" type="line" smooth="yes"/>
      <point x="-8" y="189"/>
      <point x="-11" y="172"/>
      <point x="-13" y="159" type="curve" smooth="yes"/>
      <point x="-26" y="53"/>
      <point x="42" y="-10"/>
      <point x="161" y="-9" type="curve"/>
      <point x="121" y="-41"/>
      <point x="85" y="-75"/>
      <point x="73" y="-127" type="curve" smooth="yes"/>
      <point x="62" y="-173"/>
      <point x="93" y="-211"/>
      <point x="144" y="-211" type="curve" smooth="yes"/>
    </contour>
  </outline>
</glyph>
<glyph name="uogonek" format="1">
  <advance width="430"/>
  <unicode hex="0173"/>
  <outline>
    <contour>
      <point x="279" y="384" type="line"/>
      <point x="217" y="75" type="line"/>
      <point x="174" y="55"/>
      <point x="137" y="46"/>
      <point x="106" y="46" type="curve" smooth="yes"/>
      <point x="37" y="46"/>
      <point x="28" y="72"/>
      <point x="42" y="144" type="curve" smooth="yes"/>
      <point x="89" y="384" type="line"/>
      <point x="26" y="384" type="line"/>
      <point x="-25" y="134" type="line" smooth="yes"/>
      <point x="-42" y="51"/>
      <point x="-18" y="-9"/>
      <point x="75" y="-9" type="curve" smooth="yes"/>
      <point x="123" y="-9"/>
      <point x="170" y="5"/>
      <point x="217" y="28" type="curve"/>
      <point x="221" y="2" type="line"/>
      <point x="172" y="-21" type="line"/>
      <point x="104" y="-59"/>
      <point x="64" y="-95"/>
      <point x="54" y="-142" type="curve" smooth="yes"/>
      <point x="45" y="-192"/>
      <point x="79" y="-217"/>
      <point x="123" y="-217" type="curve" smooth="yes"/>
      <point x="154" y="-217"/>
      <point x="189" y="-206"/>
      <point x="232" y="-181" type="curve"/>
      <point x="216" y="-144" type="line"/>
      <point x="189" y="-159"/>
      <point x="166" y="-167"/>
      <point x="147" y="-167" type="curve" smooth="yes"/>
      <point x="124" y="-167"/>
      <point x="112" y="-156"/>
      <point x="117" y="-131" type="curve" smooth="yes"/>
      <point x="122" y="-103"/>
      <point x="147" y="-83"/>
      <point x="183" y="-63" type="curve" smooth="yes"/>
      <point x="199" y="-52"/>
      <point x="225" y="-38"/>
      <point x="265" y="-19" type="curve"/>
      <point x="342" y="384" type="line"/>
    </contour>
  </outline>
</glyph>
<glyph name="florin" format="1">
  <advance width="337"/>
  <unicode hex="0192"/>
  <outline>
    <contour>
      <point x="25" y="-118"/>
      <point x="56" y="-98"/>
      <point x="67" y="-38" type="curve" smooth="yes"/>
      <point x="122" y="243" type="line"/>
      <point x="54" y="243" type="line"/>
      <point x="64" y="294" type="line"/>
      <point x="132" y="294" type="line"/>
      <point x="139" y="333" type="line" smooth="yes"/>
      <point x="156" y="420"/>
      <point x="205" y="464"/>
      <point x="281" y="464" type="curve" smooth="yes"/>
      <point x="314" y="464"/>
      <point x="336" y="459"/>
      <point x="367" y="448" type="curve"/>
      <point x="342" y="400" type="line"/>
      <point x="323" y="406"/>
      <point x="304" y="410"/>
      <point x="286" y="410" type="curve" smooth="yes"/>
      <point x="238" y="410"/>
      <point x="212" y="399"/>
      <point x="199" y="331" type="curve" smooth="yes"/>
      <point x="192" y="294" type="line"/>
      <point x="301" y="294" type="line"/>
      <point x="291" y="243" type="line"/>
      <point x="182" y="243" type="line"/>
      <point x="125" y="-51" type="line" smooth="yes"/>
      <point x="109" y="-131"/>
      <point x="52" y="-170"/>
      <point x="-17" y="-170" type="curve" smooth="yes"/>
      <point x="-42" y="-170"/>
      <point x="-61" y="-169"/>
      <point x="-94" y="-160" type="curve"/>
      <point x="-71" y="-112" type="line"/>
      <point x="-48" y="-117"/>
      <point x="-39" y="-118"/>
      <point x="-23" y="-118" type="curve" smooth="yes"/>
    </contour>
  </outline>
</glyph>
<glyph name="dotlessj" format="1">
  <advance width="180"/>
  <unicode hex="0237"/>
  <outline>
    <contour>
      <point x="-69" y="-106"/>
      <point x="-98" y="-140"/>
      <point x="-144" y="-160" type="curve"/>
      <point x="-125" y="-209" type="line"/>
      <point x="-41" y="-185"/>
      <point x="-14" y="-148"/>
      <point x="5" y="-52" type="curve" smooth="yes"/>
      <point x="90" y="384" type="line"/>
      <point x="27" y="384" type="line"/>
      <point x="-58" y="-53" type="line"/>
      <point x="-60" y="-60" type="line" smooth="yes"/>
    </contour>
    <contour>
      <point x="58" y="384" type="move" name="top"/>
    </contour>
  </outline>
</glyph>
<glyph name="circumflex" format="1">
  <advance width="244"/>
  <unicode hex="02C6"/>
  <outline>
    <contour>
      <point x="-11" y="470" type="line"/>
      <point x="23" y="433" type="line"/>
      <point x="121" y="515" type="line"/>
      <point x="188" y="432" type="line"/>
      <point x="227" y="466" type="line"/>
      <point x="128" y="592" type="line"/>
    </contour>
    <contour>
      <point x="90" y="384" type="move" name="_top"/>
    </contour>
  </outline>
</glyph>
<glyph name="caron" format="1">
  <advance width="244"/>
  <unicode hex="02C7"/>
  <outline>
    <contour>
      <point x="233" y="591" type="line"/>
      <point x="135" y="509" type="line"/>
      <point x="68" y="592" type="line"/>
      <point x="29" y="558" type="line"/>
      <point x="128" y="432" type="line"/>
      <point x="267" y="554" type="line"/>
    </contour>
    <contour>
      <point x="122" y="384" type="move" name="_top"/>
    </contour>
  </outline>
</glyph>
<glyph name="firsttonechinese" format="1">
  <advance width="317"/>
  <unicode hex="02C9"/>
  <outline>
    <contour>
      <point x="325" y="518" type="line"/>
      <point x="315" y="466" type="line"/>
      <point x="108" y="466" type="line"/>
      <point x="118" y="518" type="line"/>
    </contour>
  </outline>
</glyph>
<glyph name="breve" format="1">
  <advance width="245"/>
  <unicode hex="02D8"/>
  <outline>
    <contour>
      <point x="81" y="483"/>
      <point x="62" y="514"/>
      <point x="48" y="544" type="curve"/>
      <point x="5" y="525" type="line"/>
      <point x="22" y="483"/>
      <point x="58" y="434"/>
      <point x="123" y="434" type="curve" smooth="yes"/>
      <point x="189" y="434"/>
      <point x="224" y="483"/>
      <point x="240" y="525" type="curve"/>
      <point x="197" y="544" type="line"/>
      <point x="184" y="514"/>
      <point x="165" y="483"/>
      <point x="123" y="483" type="curve" smooth="yes"/>
    </contour>
    <contour>
      <point x="123" y="384" type="move" name="_top"/>
    </contour>
  </outline>
</glyph>
<glyph name="ring" format="1">
  <advance width="181"/>
  <unicode hex="02DA"/>
  <outline>
    <contour>
      <point x="127" y="498"/>
      <point x="101" y="475"/>
      <point x="71" y="475" type="curve" smooth="yes"/>
      <point x="46" y="475"/>
      <point x="34" y="493"/>
      <point x="39" y="517" type="curve" smooth="yes"/>
      <point x="45" y="548"/>
      <point x="69" y="569"/>
      <point x="99" y="569" type="curve" smooth="yes"/>
      <point x="124" y="569"/>
      <point x="137" y="551"/>
      <point x="133" y="527" type="curve" smooth="yes"/>
    </contour>
    <contour>
      <point x="-11" y="477"/>
      <point x="14" y="435"/>
      <point x="73" y="435" type="curve" smooth="yes"/>
      <point x="118" y="435"/>
      <point x="163" y="474"/>
      <point x="172" y="517" type="curve" smooth="yes"/>
      <point x="181" y="567"/>
      <point x="156" y="609"/>
      <point x="98" y="609" type="curve" smooth="yes"/>
      <point x="53" y="609"/>
      <point x="7" y="571"/>
      <point x="-1" y="527" type="curve" smooth="yes"/>
    </contour>
    <contour>
      <point x="59" y="384" type="move" name="_top"/>
    </contour>
  </outline>
</glyph>
<glyph name="tilde" format="1">
  <advance width="278"/>
  <unicode hex="02DC"/>
  <outline>
    <contour>
      <point x="46" y="536"/>
      <point x="16" y="504"/>
      <point x="5" y="457" type="curve"/>
      <point x="50" y="442" type="line"/>
      <point x="58" y="469"/>
      <point x="67" y="486"/>
      <point x="90" y="486" type="curve" smooth="yes"/>
      <point x="114" y="486"/>
      <point x="140" y="443"/>
      <point x="186" y="443" type="curve" smooth="yes"/>
      <point x="233" y="443"/>
      <point x="264" y="476"/>
      <point x="273" y="521" type="curve"/>
      <point x="227" y="536" type="line"/>
      <point x="220" y="508"/>
      <point x="210" y="491"/>
      <point x="184" y="491" type="curve" smooth="yes"/>
      <point x="159" y="491"/>
      <point x="127" y="536"/>
      <point x="89" y="536" type="curve" smooth="yes"/>
    </contour>
    <contour>
      <point x="137" y="384" type="move" name="_top"/>
    </contour>
  </outline>
</glyph>
<glyph name="hungarumlaut" format="1">
  <advance width="343"/>
  <unicode hex="02DD"/>
  <outline>
    <component base="acute"/>
    <component base="acute" xOffset="150"/>
    <contour>
      <point x="117" y="384" type="move" name="_top"/>
    </contour>
  </outline>
</glyph>
<glyph name="commaaccent" format="1">
  <advance width="112"/>
  <unicode hex="0326"/>
  <outline>
    <contour>
      <point x="-141" y="-199" type="line"/>
      <point x="-87" y="-199" type="line"/>
      <point x="-8" y="-48" type="line"/>
      <point x="-76" y="-48" type="line"/>
    </contour>
    <contour>
      <point x="-37" y="0" type="move" name="_bottom"/>
    </contour>
  </outline>
</glyph>
<glyph name="candraBindu-deva" format="1">
  <advance width="297"/>
  <unicode hex="0901"/>
  <outline>
    <contour>
      <point x="219" y="509"/>
      <point x="267" y="546"/>
      <point x="296" y="604" type="curve"/>
      <point x="254" y="629" type="line"/>
      <point x="228" y="584"/>
      <point x="199" y="557"/>
      <point x="146" y="557" type="curve" smooth="yes"/>
      <point x="98" y="557"/>
      <point x="81" y="580"/>
      <point x="73" y="625" type="curve"/>
      <point x="27" y="610" type="line"/>
      <point x="33" y="552"/>
      <point x="72" y="509"/>
      <point x="145" y="509" type="curve" smooth="yes"/>
    </contour>
    <contour>
      <point x="174" y="614"/>
      <point x="186" y="626"/>
      <point x="189" y="640" type="curve" smooth="yes"/>
      <point x="193" y="661"/>
      <point x="183" y="677"/>
      <point x="161" y="677" type="curve" smooth="yes"/>
      <point x="144" y="677"/>
      <point x="131" y="665"/>
      <point x="128" y="650" type="curve" smooth="yes"/>
      <point x="125" y="630"/>
      <point x="135" y="614"/>
      <point x="156" y="614" type="curve" smooth="yes"/>
    </contour>
    <contour>
      <point x="129" y="447" type="move" name="_top"/>
    </contour>
  </outline>
</glyph>
<glyph name="visarga-deva" format="1">
  <advance width="173"/>
  <unicode hex="0903"/>
  <outline>
    <contour>
      <point x="54" y="257"/>
      <point x="69" y="271"/>
      <point x="72" y="288" type="curve" smooth="yes"/>
      <point x="77" y="312"/>
      <point x="64" y="330"/>
      <point x="39" y="330" type="curve" smooth="yes"/>
      <point x="19" y="330"/>
      <point x="5" y="316"/>
      <point x="1" y="298" type="curve" smooth="yes"/>
      <point x="-3" y="275"/>
      <point x="9" y="257"/>
      <point x="33" y="257" type="curve" smooth="yes"/>
    </contour>
    <contour>
      <point x="15" y="57"/>
      <point x="30" y="71"/>
      <point x="33" y="88" type="curve" smooth="yes"/>
      <point x="38" y="112"/>
      <point x="25" y="130"/>
      <point x="0" y="130" type="curve" smooth="yes"/>
      <point x="-20" y="130"/>
      <point x="-34" y="116"/>
      <point x="-38" y="98" type="curve" smooth="yes"/>
      <point x="-42" y="75"/>
      <point x="-30" y="57"/>
      <point x="-6" y="57" type="curve" smooth="yes"/>
    </contour>
  </outline>
</glyph>
<glyph name="aShort-deva" format="1">
  <advance width="581"/>
  <unicode hex="0904"/>
  <outline>
    <contour>
      <point x="656" y="456" type="line"/>
      <point x="556" y="454" type="line"/>
      <point x="564" y="542"/>
      <point x="491" y="564"/>
      <point x="441" y="564" type="curve" smooth="yes"/>
      <point x="431" y="564"/>
      <point x="420" y="564"/>
      <point x="408" y="564" type="curve" smooth="yes"/>
      <point x="366" y="570"/>
      <point x="348" y="579"/>
      <point x="351" y="636" type="curve"/>
      <point x="301" y="623" type="line"/>
      <point x="289" y="522"/>
      <point x="380" y="516"/>
      <point x="418" y="516" type="curve" smooth="yes"/>
      <point x="482" y="516"/>
      <point x="506" y="499"/>
      <point x="505" y="458" type="curve"/>
      <point x="410" y="456" type="line"/>
      <point x="401" y="408" type="line"/>
      <point x="495" y="408" type="line"/>
      <point x="462" y="251" type="line"/>
      <point x="438" y="240"/>
      <point x="414" y="230"/>
      <point x="374" y="230" type="curve" smooth="yes"/>
      <point x="349" y="230"/>
      <point x="319" y="237"/>
      <point x="286" y="252" type="curve"/>
      <point x="336" y="275"/>
      <point x="361" y="309"/>
      <point x="369" y="348" type="curve" smooth="yes"/>
      <point x="381" y="411"/>
      <point x="339" y="457"/>
      <point x="265" y="457" type="curve" smooth="yes"/>
      <point x="205" y="457"/>
      <point x="161" y="425"/>
      <point x="138" y="409" type="curve"/>
      <point x="163" y="364" type="line"/>
      <point x="188" y="383"/>
      <point x="216" y="406"/>
      <point x="262" y="406" type="curve" smooth="yes"/>
      <point x="300" y="406"/>
      <point x="325" y="388"/>
      <point x="318" y="352" type="curve" smooth="yes"/>
      <point x="313" y="328"/>
      <point x="295" y="274"/>
      <point x="192" y="275" type="curve" smooth="yes"/>
      <point x="171" y="275" type="line"/>
      <point x="161" y="226" type="line"/>
      <point x="182" y="226" type="line"/>
      <point x="291" y="230"/>
      <point x="301" y="189"/>
      <point x="294" y="152" type="curve" smooth="yes"/>
      <point x="284" y="102"/>
      <point x="240" y="77"/>
      <point x="190" y="77" type="curve" smooth="yes"/>
      <point x="119" y="77"/>
      <point x="88" y="125"/>
      <point x="59" y="205" type="curve"/>
      <point x="13" y="182" type="line"/>
      <point x="49" y="83"/>
      <point x="92" y="25"/>
      <point x="189" y="25" type="curve" smooth="yes"/>
      <point x="263" y="25"/>
      <point x="330" y="72"/>
      <point x="342" y="132" type="curve" smooth="yes"/>
      <point x="346" y="154"/>
      <point x="346" y="170"/>
      <point x="344" y="184" type="curve"/>
      <point x="358" y="183"/>
      <point x="372" y="182"/>
      <point x="386" y="182" type="curve" smooth="yes"/>
      <point x="412" y="182"/>
      <point x="437" y="187"/>
      <point x="455" y="193" type="curve"/>
      <point x="415" y="0" type="line"/>
      <point x="469" y="0" type="line"/>
      <point x="549" y="408" type="line"/>
      <point x="647" y="408" type="line"/>
    </contour>
  </outline>
</glyph>
<glyph name="u-deva" format="1">
  <advance width="430"/>
  <unicode hex="0909"/>
  <outline>
    <contour>
      <point x="505" y="456" type="line"/>
      <point x="28" y="456" type="line"/>
      <point x="18" y="408" type="line"/>
      <point x="274" y="408" type="line"/>
      <point x="319" y="400"/>
      <point x="331" y="380"/>
      <point x="324" y="344" type="curve" smooth="yes"/>
      <point x="318" y="315"/>
      <point x="298" y="264"/>
      <point x="195" y="265" type="curve" smooth="yes"/>
      <point x="184" y="265" type="line"/>
      <point x="174" y="216" type="line"/>
      <point x="185" y="216" type="line"/>
      <point x="294" y="220"/>
      <point x="304" y="179"/>
      <point x="296" y="137" type="curve" smooth="yes"/>
      <point x="285" y="82"/>
      <point x="241" y="57"/>
      <point x="191" y="57" type="curve" smooth="yes"/>
      <point x="120" y="57"/>
      <point x="88" y="105"/>
      <point x="60" y="185" type="curve"/>
      <point x="14" y="162" type="line"/>
      <point x="50" y="63"/>
      <point x="93" y="5"/>
      <point x="190" y="5" type="curve" smooth="yes"/>
      <point x="264" y="5"/>
      <point x="331" y="52"/>
      <point x="345" y="121" type="curve" smooth="yes"/>
      <point x="358" y="192"/>
      <point x="332" y="225"/>
      <point x="290" y="240" type="curve"/>
      <point x="341" y="264"/>
      <point x="363" y="294"/>
      <point x="371" y="334" type="curve" smooth="yes"/>
      <point x="377" y="363"/>
      <point x="372" y="387"/>
      <point x="358" y="406" type="curve"/>
      <point x="495" y="408" type="line"/>
    </contour>
    <contour>
      <point x="304" y="447" type="move" name="top"/>
    </contour>
  </outline>
</glyph>
<glyph name="lVocalic-deva" format="1">
  <advance width="531"/>
  <unicode hex="090C"/>
  <outline>
    <contour>
      <point x="596" y="408" type="line"/>
      <point x="606" y="456" type="line"/>
      <point x="28" y="456" type="line"/>
      <point x="18" y="408" type="line"/>
      <point x="400" y="408" type="line"/>
      <point x="379" y="308" type="line"/>
      <point x="345" y="306"/>
      <point x="310" y="295"/>
      <point x="280" y="266" type="curve"/>
      <point x="264" y="289"/>
      <point x="236" y="310"/>
      <point x="196" y="310" type="curve" smooth="yes"/>
      <point x="115" y="310"/>
      <point x="57" y="255"/>
      <point x="41" y="177" type="curve" smooth="yes"/>
      <point x="22" y="76"/>
      <point x="96" y="-11"/>
      <point x="96" y="-11" type="curve"/>
      <point x="154" y="9" type="line"/>
      <point x="136" y="34"/>
      <point x="84" y="100"/>
      <point x="97" y="167" type="curve" smooth="yes"/>
      <point x="107" y="219"/>
      <point x="144" y="256"/>
      <point x="193" y="256" type="curve" smooth="yes"/>
      <point x="222" y="256"/>
      <point x="238" y="235"/>
      <point x="246" y="216" type="curve"/>
      <point x="238" y="200"/>
      <point x="234" y="184"/>
      <point x="231" y="169" type="curve" smooth="yes"/>
      <point x="228" y="156"/>
      <point x="225" y="130"/>
      <point x="225" y="120" type="curve"/>
      <point x="276" y="108" type="line"/>
      <point x="277" y="118"/>
      <point x="278" y="138"/>
      <point x="282" y="157" type="curve" smooth="yes"/>
      <point x="293" y="215"/>
      <point x="329" y="257"/>
      <point x="379" y="256" type="curve" smooth="yes"/>
      <point x="426" y="256"/>
      <point x="438" y="223"/>
      <point x="433" y="194" type="curve" smooth="yes"/>
      <point x="425" y="155"/>
      <point x="392" y="133"/>
      <point x="372" y="122" type="curve" smooth="yes"/>
      <point x="334" y="101"/>
      <point x="300" y="78"/>
      <point x="291" y="28" type="curve" smooth="yes"/>
      <point x="282" y="-17"/>
      <point x="301" y="-62"/>
      <point x="367" y="-62" type="curve" smooth="yes"/>
      <point x="402" y="-62"/>
      <point x="435" y="-48"/>
      <point x="461" y="-29" type="curve"/>
      <point x="441" y="19" type="line"/>
      <point x="426" y="9"/>
      <point x="397" y="-11"/>
      <point x="374" y="-11" type="curve" smooth="yes"/>
      <point x="349" y="-11"/>
      <point x="339" y="0"/>
      <point x="343" y="21" type="curve" smooth="yes"/>
      <point x="350" y="58"/>
      <point x="378" y="66"/>
      <point x="413" y="88" type="curve" smooth="yes"/>
      <point x="448" y="113"/>
      <point x="475" y="140"/>
      <point x="485" y="185" type="curve" smooth="yes"/>
      <point x="495" y="232"/>
      <point x="475" y="279"/>
      <point x="433" y="298" type="curve"/>
      <point x="456" y="408" type="line"/>
    </contour>
    <contour>
      <point x="436" y="447" type="move" name="top"/>
    </contour>
  </outline>
</glyph>
<glyph name="eCandra-deva" format="1">
  <advance width="409"/>
  <unicode hex="090D"/>
  <outline>
    <contour>
      <point x="253" y="123" type="line"/>
      <point x="322" y="149"/>
      <point x="341" y="186"/>
      <point x="353" y="246" type="curve" smooth="yes"/>
      <point x="384" y="408" type="line"/>
      <point x="474" y="408" type="line"/>
      <point x="484" y="456" type="line"/>
      <point x="28" y="456" type="line"/>
      <point x="18" y="408" type="line"/>
      <point x="93" y="408" type="line"/>
      <point x="49" y="172" type="line"/>
      <point x="270" y="-44" type="line"/>
      <point x="310" y="-5" type="line"/>
      <point x="105" y="194" type="line"/>
      <point x="147" y="408" type="line"/>
      <point x="332" y="408" type="line"/>
      <point x="304" y="261" type="line"/>
      <point x="293" y="214"/>
      <point x="290" y="191"/>
      <point x="232" y="171" type="curve"/>
    </contour>
    <contour>
      <point x="336" y="509"/>
      <point x="388" y="548"/>
      <point x="415" y="606" type="curve"/>
      <point x="375" y="629" type="line"/>
      <point x="349" y="584"/>
      <point x="320" y="557"/>
      <point x="267" y="557" type="curve" smooth="yes"/>
      <point x="219" y="557"/>
      <point x="202" y="580"/>
      <point x="194" y="625" type="curve"/>
      <point x="148" y="610" type="line"/>
      <point x="154" y="552"/>
      <point x="193" y="509"/>
      <point x="266" y="509" type="curve" smooth="yes"/>
    </contour>
    <contour>
      <point x="250" y="447" type="move" name="top"/>
    </contour>
  </outline>
</glyph>
<glyph name="eShort-deva" format="1">
  <advance width="409"/>
  <unicode hex="090E"/>
  <outline>
    <contour>
      <point x="253" y="123" type="line"/>
      <point x="322" y="149"/>
      <point x="341" y="186"/>
      <point x="353" y="246" type="curve" smooth="yes"/>
      <point x="384" y="408" type="line"/>
      <point x="474" y="408" type="line"/>
      <point x="484" y="456" type="line"/>
      <point x="392" y="454" type="line"/>
      <point x="399" y="542"/>
      <point x="327" y="564"/>
      <point x="277" y="564" type="curve" smooth="yes"/>
      <point x="267" y="564"/>
      <point x="256" y="564"/>
      <point x="244" y="564" type="curve" smooth="yes"/>
      <point x="202" y="570"/>
      <point x="184" y="579"/>
      <point x="187" y="636" type="curve"/>
      <point x="137" y="623" type="line"/>
      <point x="125" y="522"/>
      <point x="215" y="516"/>
      <point x="253" y="516" type="curve" smooth="yes"/>
      <point x="317" y="516"/>
      <point x="342" y="499"/>
      <point x="341" y="458" type="curve"/>
      <point x="28" y="456" type="line"/>
      <point x="18" y="408" type="line"/>
      <point x="93" y="408" type="line"/>
      <point x="49" y="172" type="line"/>
      <point x="270" y="-44" type="line"/>
      <point x="310" y="-5" type="line"/>
      <point x="105" y="194" type="line"/>
      <point x="147" y="408" type="line"/>
      <point x="332" y="408" type="line"/>
      <point x="304" y="261" type="line"/>
      <point x="293" y="214"/>
      <point x="290" y="191"/>
      <point x="232" y="171" type="curve"/>
    </contour>
    <contour>
      <point x="250" y="447" type="move" name="top"/>
    </contour>
  </outline>
</glyph>
<glyph name="ai-deva" format="1">
  <advance width="409"/>
  <unicode hex="0910"/>
  <outline>
    <contour>
      <point x="253" y="123" type="line"/>
      <point x="322" y="149"/>
      <point x="341" y="186"/>
      <point x="353" y="246" type="curve" smooth="yes"/>
      <point x="384" y="408" type="line"/>
      <point x="474" y="408" type="line"/>
      <point x="484" y="456" type="line"/>
      <point x="394" y="456" type="line"/>
      <point x="315" y="586" type="line"/>
      <point x="292" y="622"/>
      <point x="276" y="637"/>
      <point x="236" y="637" type="curve" smooth="yes"/>
      <point x="206" y="637"/>
      <point x="174" y="620"/>
      <point x="174" y="620" type="curve"/>
      <point x="186" y="575" type="line"/>
      <point x="185" y="575"/>
      <point x="210" y="586"/>
      <point x="234" y="586" type="curve" smooth="yes"/>
      <point x="253" y="586"/>
      <point x="260" y="580"/>
      <point x="272" y="561" type="curve" smooth="yes"/>
      <point x="334" y="456" type="line"/>
      <point x="28" y="456" type="line"/>
      <point x="18" y="408" type="line"/>
      <point x="92" y="408" type="line"/>
      <point x="49" y="172" type="line"/>
      <point x="270" y="-44" type="line"/>
      <point x="310" y="-5" type="line"/>
      <point x="105" y="194" type="line"/>
      <point x="147" y="408" type="line"/>
      <point x="332" y="408" type="line"/>
      <point x="304" y="261" type="line"/>
      <point x="293" y="214"/>
      <point x="290" y="191"/>
      <point x="232" y="171" type="curve"/>
    </contour>
    <contour>
      <point x="250" y="447" type="move" name="top"/>
    </contour>
  </outline>
</glyph>
<glyph name="kha-deva" format="1">
  <advance width="581"/>
  <unicode hex="0916"/>
  <outline>
    <contour>
      <point x="656" y="456" type="line"/>
      <point x="28" y="456" type="line"/>
      <point x="18" y="408" type="line"/>
      <point x="162" y="410" type="line"/>
      <point x="177" y="392"/>
      <point x="191" y="362"/>
      <point x="182" y="311" type="curve" smooth="yes"/>
      <point x="170" y="250"/>
      <point x="121" y="224"/>
      <point x="86" y="214" type="curve"/>
      <point x="63" y="246" type="line"/>
      <point x="19" y="212" type="line"/>
      <point x="20" y="212"/>
      <point x="167" y="-15"/>
      <point x="167" y="-15" type="curve"/>
      <point x="220" y="18" type="line"/>
      <point x="118" y="169" type="line"/>
      <point x="165" y="187"/>
      <point x="219" y="226"/>
      <point x="233" y="299" type="curve" smooth="yes"/>
      <point x="243" y="351"/>
      <point x="234" y="384"/>
      <point x="221" y="406" type="curve"/>
      <point x="495" y="408" type="line"/>
      <point x="476" y="317" type="line"/>
      <point x="456" y="326"/>
      <point x="433" y="334"/>
      <point x="400" y="334" type="curve" smooth="yes"/>
      <point x="329" y="334"/>
      <point x="263" y="285"/>
      <point x="248" y="207" type="curve" smooth="yes"/>
      <point x="232" y="123"/>
      <point x="282" y="70"/>
      <point x="357" y="70" type="curve" smooth="yes"/>
      <point x="386" y="70"/>
      <point x="411" y="74"/>
      <point x="434" y="82" type="curve"/>
      <point x="416" y="0" type="line"/>
      <point x="469" y="0" type="line"/>
      <point x="548" y="408" type="line"/>
      <point x="646" y="408" type="line"/>
    </contour>
    <contour>
      <point x="321" y="121"/>
      <point x="292" y="146"/>
      <point x="302" y="197" type="curve" smooth="yes"/>
      <point x="313" y="253"/>
      <point x="356" y="283"/>
      <point x="402" y="283" type="curve" smooth="yes"/>
      <point x="433" y="283"/>
      <point x="454" y="274"/>
      <point x="469" y="264" type="curve"/>
      <point x="441" y="139" type="line"/>
      <point x="423" y="130"/>
      <point x="399" y="121"/>
      <point x="368" y="121" type="curve" smooth="yes"/>
    </contour>
    <contour>
      <point x="530" y="447" type="move" name="top"/>
    </contour>
    <contour>
      <point x="444" y="5" type="move" name="bottom"/>
    </contour>
  </outline>
</glyph>
<glyph name="ga-deva" format="1">
  <advance width="444"/>
  <unicode hex="0917"/>
  <outline>
    <contour>
      <point x="519" y="456" type="line"/>
      <point x="28" y="456" type="line"/>
      <point x="18" y="408" type="line"/>
      <point x="134" y="408" type="line"/>
      <point x="97" y="215" type="line"/>
      <point x="39" y="215" type="line"/>
      <point x="33" y="181" type="line"/>
      <point x="91" y="90" type="line"/>
      <point x="128" y="90" type="line"/>
      <point x="189" y="408" type="line"/>
      <point x="355" y="408" type="line"/>
      <point x="276" y="0" type="line"/>
      <point x="332" y="0" type="line"/>
      <point x="411" y="408" type="line"/>
      <point x="509" y="408" type="line"/>
    </contour>
    <contour>
      <point x="391" y="447" type="move" name="top"/>
    </contour>
    <contour>
      <point x="305" y="5" type="move" name="bottom"/>
    </contour>
  </outline>
</glyph>
<glyph name="ca-deva" format="1">
  <advance width="471"/>
  <unicode hex="091A"/>
  <outline>
    <contour>
      <point x="546" y="456" type="line"/>
      <point x="28" y="456" type="line"/>
      <point x="18" y="408" type="line"/>
      <point x="382" y="408" type="line"/>
      <point x="334" y="167" type="line"/>
      <point x="308" y="149"/>
      <point x="271" y="130"/>
      <point x="222" y="130" type="curve" smooth="yes"/>
      <point x="170" y="130"/>
      <point x="136" y="153"/>
      <point x="144" y="195" type="curve" smooth="yes"/>
      <point x="149" y="223"/>
      <point x="166" y="241"/>
      <point x="180" y="251" type="curve"/>
      <point x="265" y="253" type="line"/>
      <point x="275" y="301" type="line"/>
      <point x="43" y="301" type="line"/>
      <point x="33" y="253" type="line"/>
      <point x="114" y="255" type="line"/>
      <point x="103" y="243"/>
      <point x="94" y="226"/>
      <point x="89" y="199" type="curve" smooth="yes"/>
      <point x="76" y="135"/>
      <point x="119" y="78"/>
      <point x="219" y="78" type="curve" smooth="yes"/>
      <point x="265" y="78"/>
      <point x="300" y="90"/>
      <point x="325" y="104" type="curve"/>
      <point x="303" y="0" type="line"/>
      <point x="359" y="0" type="line"/>
      <point x="438" y="408" type="line"/>
      <point x="536" y="408" type="line"/>
    </contour>
    <contour>
      <point x="418" y="447" type="move" name="top"/>
    </contour>
    <contour>
      <point x="332" y="5" type="move" name="bottom"/>
    </contour>
  </outline>
</glyph>
<glyph name="cha-deva" format="1">
  <advance width="535"/>
  <unicode hex="091B"/>
  <outline>
    <contour>
      <point x="600" y="408" type="line"/>
      <point x="610" y="456" type="line"/>
      <point x="28" y="456" type="line"/>
      <point x="18" y="408" type="line"/>
      <point x="139" y="410" type="line"/>
      <point x="117" y="391"/>
      <point x="107" y="369"/>
      <point x="103" y="349" type="curve" smooth="yes"/>
      <point x="95" y="307"/>
      <point x="109" y="276"/>
      <point x="147" y="254" type="curve"/>
      <point x="100" y="233"/>
      <point x="67" y="206"/>
      <point x="58" y="158" type="curve" smooth="yes"/>
      <point x="40" y="66"/>
      <point x="107" y="6"/>
      <point x="222" y="6" type="curve" smooth="yes"/>
      <point x="324" y="6"/>
      <point x="475" y="55"/>
      <point x="506" y="215" type="curve" smooth="yes"/>
      <point x="519" y="281"/>
      <point x="497" y="328"/>
      <point x="459" y="343" type="curve"/>
      <point x="473" y="408" type="line"/>
    </contour>
    <contour>
      <point x="410" y="348" type="line"/>
      <point x="360" y="338"/>
      <point x="318" y="293"/>
      <point x="306" y="233" type="curve" smooth="yes"/>
      <point x="291" y="156"/>
      <point x="319" y="108"/>
      <point x="332" y="79" type="curve"/>
      <point x="301" y="65"/>
      <point x="264" y="58"/>
      <point x="224" y="58" type="curve" smooth="yes"/>
      <point x="158" y="58"/>
      <point x="98" y="88"/>
      <point x="109" y="142" type="curve" smooth="yes"/>
      <point x="117" y="185"/>
      <point x="143" y="230"/>
      <point x="250" y="226" type="curve"/>
      <point x="253" y="226" type="line"/>
      <point x="263" y="275" type="line"/>
      <point x="252" y="275" type="line" smooth="yes"/>
      <point x="147" y="274"/>
      <point x="151" y="321"/>
      <point x="155" y="339" type="curve" smooth="yes"/>
      <point x="162" y="376"/>
      <point x="186" y="400"/>
      <point x="233" y="408" type="curve"/>
      <point x="423" y="408" type="line"/>
    </contour>
    <contour>
      <point x="368" y="119"/>
      <point x="345" y="161"/>
      <point x="357" y="223" type="curve" smooth="yes"/>
      <point x="365" y="264"/>
      <point x="396" y="295"/>
      <point x="424" y="295" type="curve" smooth="yes"/>
      <point x="444" y="295"/>
      <point x="467" y="275"/>
      <point x="456" y="221" type="curve" smooth="yes"/>
      <point x="447" y="172"/>
      <point x="420" y="133"/>
      <point x="380" y="103" type="curve"/>
    </contour>
    <contour>
      <point x="456" y="447" type="move" name="top"/>
    </contour>
    <contour>
      <point x="213" y="-19" type="move" name="bottom"/>
    </contour>
  </outline>
</glyph>
<glyph name="ja-deva" format="1">
  <advance width="540"/>
  <unicode hex="091C"/>
  <outline>
    <contour>
      <point x="615" y="456" type="line"/>
      <point x="28" y="456" type="line"/>
      <point x="18" y="408" type="line"/>
      <point x="451" y="408" type="line"/>
      <point x="427" y="284" type="line"/>
      <point x="259" y="284" type="line"/>
      <point x="216" y="284" type="line"/>
      <point x="210" y="239" type="line"/>
      <point x="276" y="239"/>
      <point x="283" y="195"/>
      <point x="277" y="165" type="curve" smooth="yes"/>
      <point x="267" y="114"/>
      <point x="225" y="87"/>
      <point x="180" y="87" type="curve" smooth="yes"/>
      <point x="124" y="87"/>
      <point x="81" y="142"/>
      <point x="70" y="243" type="curve"/>
      <point x="21" y="227" type="line"/>
      <point x="36" y="106"/>
      <point x="88" y="35"/>
      <point x="179" y="35" type="curve" smooth="yes"/>
      <point x="228" y="35"/>
      <point x="309" y="62"/>
      <point x="326" y="151" type="curve" smooth="yes"/>
      <point x="331" y="176"/>
      <point x="330" y="206"/>
      <point x="314" y="234" type="curve"/>
      <point x="418" y="236" type="line"/>
      <point x="372" y="0" type="line"/>
      <point x="428" y="0" type="line"/>
      <point x="507" y="408" type="line"/>
      <point x="605" y="408" type="line"/>
    </contour>
    <contour>
      <point x="487" y="447" type="move" name="top"/>
    </contour>
    <contour>
      <point x="401" y="5" type="move" name="bottom"/>
    </contour>
  </outline>
</glyph>
<glyph name="jha-deva" format="1">
  <advance width="562"/>
  <unicode hex="091D"/>
  <outline>
    <contour>
      <point x="637" y="456" type="line"/>
      <point x="28" y="456" type="line"/>
      <point x="18" y="408" type="line"/>
      <point x="289" y="408" type="line"/>
      <point x="274" y="341" type="line"/>
      <point x="249" y="344"/>
      <point x="241" y="345"/>
      <point x="206" y="345" type="curve" smooth="yes"/>
      <point x="135" y="345"/>
      <point x="78" y="325"/>
      <point x="67" y="265" type="curve" smooth="yes"/>
      <point x="52" y="191"/>
      <point x="98" y="163"/>
      <point x="149" y="163" type="curve" smooth="yes"/>
      <point x="174" y="163"/>
      <point x="201" y="169"/>
      <point x="223" y="169" type="curve" smooth="yes"/>
      <point x="263" y="169"/>
      <point x="274" y="148"/>
      <point x="269" y="121" type="curve" smooth="yes"/>
      <point x="260" y="79"/>
      <point x="211" y="59"/>
      <point x="174" y="59" type="curve" smooth="yes"/>
      <point x="156" y="59"/>
      <point x="140" y="58"/>
      <point x="125" y="64" type="curve"/>
      <point x="84" y="134" type="line"/>
      <point x="59" y="136"/>
      <point x="33" y="123"/>
      <point x="29" y="101" type="curve" smooth="yes"/>
      <point x="21" y="61"/>
      <point x="55" y="35"/>
      <point x="96" y="24" type="curve"/>
      <point x="111" y="-17"/>
      <point x="141" y="-96"/>
      <point x="141" y="-96" type="curve"/>
      <point x="194" y="-75" type="line"/>
      <point x="153" y="9" type="line"/>
      <point x="164" y="9" type="line" smooth="yes"/>
      <point x="244" y="9"/>
      <point x="308" y="48"/>
      <point x="320" y="110" type="curve" smooth="yes"/>
      <point x="323" y="122"/>
      <point x="324" y="131"/>
      <point x="325" y="140" type="curve"/>
      <point x="342" y="138"/>
      <point x="358" y="136"/>
      <point x="376" y="136" type="curve" smooth="yes"/>
      <point x="395" y="136"/>
      <point x="412" y="140"/>
      <point x="428" y="147" type="curve"/>
      <point x="397" y="0" type="line"/>
      <point x="453" y="0" type="line"/>
      <point x="532" y="408" type="line"/>
      <point x="627" y="408" type="line"/>
    </contour>
    <contour>
      <point x="434" y="198" type="line"/>
      <point x="417" y="191"/>
      <point x="395" y="184"/>
      <point x="366" y="184" type="curve" smooth="yes"/>
      <point x="352" y="184"/>
      <point x="326" y="191"/>
      <point x="298" y="197" type="curve"/>
      <point x="284" y="212"/>
      <point x="260" y="222"/>
      <point x="227" y="222" type="curve" smooth="yes"/>
      <point x="208" y="222"/>
      <point x="184" y="216"/>
      <point x="161" y="216" type="curve" smooth="yes"/>
      <point x="130" y="216"/>
      <point x="111" y="221"/>
      <point x="117" y="251" type="curve" smooth="yes"/>
      <point x="123" y="282"/>
      <point x="151" y="294"/>
      <point x="203" y="294" type="curve" smooth="yes"/>
      <point x="263" y="294"/>
      <point x="279" y="289"/>
      <point x="313" y="285" type="curve"/>
      <point x="324" y="292" type="line"/>
      <point x="345" y="408" type="line"/>
      <point x="476" y="408" type="line"/>
    </contour>
    <contour>
      <point x="512" y="447" type="move" name="top"/>
    </contour>
    <contour>
      <point x="426" y="5" type="move" name="bottom"/>
    </contour>
  </outline>
</glyph>
<glyph name="tta-deva" format="1">
  <advance width="391"/>
  <unicode hex="091F"/>
  <outline>
    <contour>
      <point x="262" y="265"/>
      <point x="286" y="260"/>
      <point x="321" y="256" type="curve"/>
      <point x="330" y="263" type="line"/>
      <point x="357" y="408" type="line"/>
      <point x="456" y="408" type="line"/>
      <point x="466" y="456" type="line"/>
      <point x="28" y="456" type="line"/>
      <point x="18" y="408" type="line"/>
      <point x="301" y="408" type="line"/>
      <point x="281" y="315" type="line"/>
      <point x="256" y="316"/>
      <point x="237" y="317"/>
      <point x="221" y="317" type="curve" smooth="yes"/>
      <point x="114" y="317"/>
      <point x="52" y="246"/>
      <point x="37" y="168" type="curve" smooth="yes"/>
      <point x="17" y="65"/>
      <point x="78" y="0"/>
      <point x="177" y="0" type="curve" smooth="yes"/>
      <point x="242" y="0"/>
      <point x="301" y="28"/>
      <point x="329" y="45" type="curve"/>
      <point x="309" y="93" type="line"/>
      <point x="281" y="78"/>
      <point x="235" y="52"/>
      <point x="183" y="52" type="curve" smooth="yes"/>
      <point x="112" y="52"/>
      <point x="77" y="91"/>
      <point x="89" y="156" type="curve" smooth="yes"/>
      <point x="102" y="220"/>
      <point x="147" y="265"/>
      <point x="227" y="265" type="curve" smooth="yes"/>
    </contour>
    <contour>
      <point x="337" y="447" type="move" name="top"/>
    </contour>
    <contour>
      <point x="163" y="-25" type="move" name="bottom"/>
    </contour>
  </outline>
</glyph>
<glyph name="ttha-deva" format="1">
  <advance width="431"/>
  <unicode hex="0920"/>
  <outline>
    <contour>
      <point x="496" y="408" type="line"/>
      <point x="506" y="456" type="line"/>
      <point x="28" y="456" type="line"/>
      <point x="18" y="408" type="line"/>
      <point x="293" y="408" type="line"/>
      <point x="276" y="317" type="line"/>
      <point x="225" y="317" type="line" smooth="yes"/>
      <point x="116" y="317"/>
      <point x="54" y="246"/>
      <point x="38" y="163" type="curve" smooth="yes"/>
      <point x="19" y="67"/>
      <point x="75" y="0"/>
      <point x="174" y="0" type="curve" smooth="yes"/>
      <point x="316" y="0"/>
      <point x="367" y="84"/>
      <point x="381" y="153" type="curve" smooth="yes"/>
      <point x="394" y="220"/>
      <point x="364" y="270"/>
      <point x="326" y="300" type="curve"/>
      <point x="349" y="408" type="line"/>
    </contour>
    <contour>
      <point x="109" y="53"/>
      <point x="79" y="94"/>
      <point x="91" y="156" type="curve" smooth="yes"/>
      <point x="104" y="223"/>
      <point x="151" y="264"/>
      <point x="226" y="264" type="curve" smooth="yes"/>
      <point x="285" y="265" type="line"/>
      <point x="312" y="248"/>
      <point x="336" y="212"/>
      <point x="326" y="157" type="curve" smooth="yes"/>
      <point x="312" y="89"/>
      <point x="255" y="53"/>
      <point x="182" y="53" type="curve" smooth="yes"/>
    </contour>
    <contour>
      <point x="327" y="447" type="move" name="top"/>
    </contour>
    <contour>
      <point x="169" y="-25" type="move" name="bottom"/>
    </contour>
  </outline>
</glyph>
